<?xml version="1.0" standalone="no"?>
<!DOCTYPE svg PUBLIC "-//W3C//DTD SVG 20010904//EN"
 "http://www.w3.org/TR/2001/REC-SVG-20010904/DTD/svg10.dtd">
<svg version="1.0" xmlns="http://www.w3.org/2000/svg"
 width="110.000000pt" height="110.000000pt" viewBox="0 0 110.000000 110.000000"
 preserveAspectRatio="xMidYMid meet">
<metadata>
Created by potrace 1.14, written by Peter Selinger 2001-2017
</metadata>
<g transform="translate(0.000000,110.000000) scale(0.100000,-0.100000)"
fill="#000000" stroke="none">
<path d="M473 980 c-108 -23 -190 -100 -224 -212 -28 -92 -23 -267 9 -340 28
-63 92 -131 150 -159 68 -34 216 -33 285 0 116 57 177 175 177 346 0 224 -103
355 -291 369 -35 3 -83 1 -106 -4z m173 -141 c49 -46 67 -96 72 -200 5 -121
-13 -190 -61 -237 -58 -56 -150 -61 -204 -10 -55 51 -68 93 -68 223 0 129 13
173 67 221 33 30 46 34 110 31 45 -3 64 -9 84 -28z"/>
<path d="M411 552 c10 -93 46 -145 110 -162 43 -12 91 3 122 37 17 20 17 20
-10 16 l-28 -4 21 18 21 19 -23 27 c-12 14 -35 29 -51 33 -15 3 -58 22 -96 40
-37 19 -68 34 -70 34 -2 0 0 -26 4 -58z"/>
<path d="M50 663 c0 -67 26 -216 51 -299 48 -154 102 -227 209 -278 54 -26 77
-31 136 -31 62 0 75 3 107 27 33 26 67 29 67 7 0 -5 14 -16 31 -25 64 -33 182
-11 251 46 70 58 131 223 144 388 l7 82 -36 0 c-20 0 -38 -4 -42 -9 -3 -5 -19
-12 -36 -16 -32 -7 -36 -14 -63 -106 -31 -108 -110 -191 -210 -222 -23 -6 -79
-12 -126 -12 -70 1 -95 5 -141 27 -129 59 -199 188 -199 363 l0 71 -47 17
c-27 9 -60 17 -75 17 -27 0 -28 -2 -28 -47z"/>
</g>
</svg>
