<svg xmlns="http://www.w3.org/2000/svg" viewBox="0 0 140.078 41.396">
  <defs>
    <style>
      .cls-1 {
        fill: #fff200;
      }

      .cls-2 {
        fill: #00aeef;
      }

      .cls-3 {
        fill: #005baa;
      }

      .cls-4 {
        fill: #fff;
      }
    </style>
  </defs>
  <g id="Group_11" data-name="Group 11" transform="translate(0.1)">
    <path id="Path_24" data-name="Path 24" class="cls-1" d="M438.444,68.167c0-.022-.022-.045-.045-.067.022.022.022.045.045.067Z" transform="translate(-340.909 -52.944)"/>
    <path id="Path_25" data-name="Path 25" class="cls-2" d="M235.1,83.3a5.422,5.422,0,0,0-.6.022V83.3Z" transform="translate(-182.388 -64.761)"/>
    <path id="Path_26" data-name="Path 26" class="cls-2" d="M235.1,83.3a5.422,5.422,0,0,0-.6.022V83.3Z" transform="translate(-182.388 -64.761)"/>
    <path id="Path_27" data-name="Path 27" class="cls-3" d="M546.3,123.356a.557.557,0,0,1,.089-.156.557.557,0,0,0-.089.156Z" transform="translate(-424.795 -95.781)"/>
    <path id="Path_28" data-name="Path 28" class="cls-3" d="M563.091,109.6a6.811,6.811,0,0,0-1.291.2A6.241,6.241,0,0,1,563.091,109.6Z" transform="translate(-436.845 -85.208)"/>
    <path id="Path_29" data-name="Path 29" class="cls-4" d="M25.334,105.825a1.836,1.836,0,0,1-.534,1.291,1.8,1.8,0,0,1-1.291.534H12a1.809,1.809,0,0,1-1.8-1.8,1.836,1.836,0,0,1,.534-1.291A1.728,1.728,0,0,1,12,104H23.509A1.833,1.833,0,0,1,25.334,105.825Z" transform="translate(-8.008 -80.854)"/>
    <path id="Path_30" data-name="Path 30" class="cls-4" d="M66.039,73.3a1.836,1.836,0,0,1-.534,1.291,1.8,1.8,0,0,1-1.291.534H56.4a1.8,1.8,0,0,1-1.8-1.8,1.836,1.836,0,0,1,.534-1.291,1.8,1.8,0,0,1,1.291-.534h7.834A1.791,1.791,0,0,1,66.039,73.3Z" transform="translate(-42.526 -55.587)"/>
    <path id="Path_31" data-name="Path 31" class="cls-4" d="M124.44,40.8a1.836,1.836,0,0,1-.534,1.291,1.8,1.8,0,0,1-1.291.534H114.4a1.8,1.8,0,0,1-1.8-1.8,1.836,1.836,0,0,1,.534-1.291A1.8,1.8,0,0,1,114.425,39h8.212A1.8,1.8,0,0,1,124.44,40.8Z" transform="translate(-87.618 -30.32)"/>
    <path id="Path_32" data-name="Path 32" class="cls-4" d="M458,153.336a5.855,5.855,0,0,0,3.85-1.736A5.421,5.421,0,0,1,458,153.336Z" transform="translate(-356.147 -117.86)"/>
    <path id="Path_33" data-name="Path 33" class="cls-4" d="M550.778,83.222l-3.628,5.853h-9.57a3.11,3.11,0,0,0-.512,0,6.242,6.242,0,0,0-1.291.2c-.044.022-.089.022-.133.045A5.449,5.449,0,0,0,532.4,92.1a.556.556,0,0,1-.089.156,48.662,48.662,0,0,0-4.006-4.74c1.469-1.825,4.518-4.318,10.238-4.318C547.529,83.222,550.778,83.222,550.778,83.222Z" transform="translate(-410.801 -64.683)"/>
    <path id="Path_34" data-name="Path 34" class="cls-4" d="M421.6,130.467a10.47,10.47,0,0,1-10.126,6.41H398.3V122.9h5.92v8.123h7.367a5.855,5.855,0,0,0,3.85-1.736c.022-.045.067-.067.089-.089.089-.111.178-.2.267-.312.022-.044.067-.067.089-.111a.676.676,0,0,0,.111-.156l.134-.2h0a7.542,7.542,0,0,0,.445-.846,5.738,5.738,0,0,0,.356-2.248,16.748,16.748,0,0,1,4.1,4.318C421.09,129.732,421.29,130.044,421.6,130.467Z" transform="translate(-309.733 -95.548)"/>
    <path id="Path_35" data-name="Path 35" class="cls-4" d="M90.525,7.879h0a13.171,13.171,0,0,0-3.383-.423,12.978,12.978,0,0,0-2.96.334c-.334.067-.645.156-.957.245a17.472,17.472,0,0,0-4.006-4.473A16.708,16.708,0,0,0,69.961.045c-.111,0-.245-.022-.356-.022S69.36,0,69.227,0H68.4a2.419,2.419,0,0,0-.4.022c-.134,0-.289.022-.423.022a16.373,16.373,0,0,0-5.519,1.38H53.292A1.836,1.836,0,0,0,52,1.959a1.81,1.81,0,0,0,1.269,3.094h3.539a.022.022,0,0,1-.022.022h.022a1.816,1.816,0,0,1,1.536,1.78,1.836,1.836,0,0,1-.534,1.291,1.8,1.8,0,0,1-1.291.534H42.23a1.836,1.836,0,0,0-1.291.534,1.81,1.81,0,0,0,1.269,3.094h9.859a1.736,1.736,0,0,1,.49.067h0a1.8,1.8,0,0,1,1.291,1.736,1.758,1.758,0,0,1-.2.846,2.116,2.116,0,0,1-.334.445,1.8,1.8,0,0,1-1.291.534H28.966a1.836,1.836,0,0,0-1.291.534,1.81,1.81,0,0,0,1.269,3.094H41.986a1.7,1.7,0,0,1,.6.111,1.817,1.817,0,0,1,1.2,1.714,1.836,1.836,0,0,1-.534,1.291,1.8,1.8,0,0,1-1.291.534H22.734a1.836,1.836,0,0,0-1.291.534,1.81,1.81,0,0,0,1.269,3.094h17.07a1.8,1.8,0,0,1,1.8,1.8,1.836,1.836,0,0,1-.534,1.291,1.8,1.8,0,0,1-1.291.534H1.725A1.836,1.836,0,0,0,.434,31,1.81,1.81,0,0,0,1.7,34.1H42.408a1.8,1.8,0,0,1,1.8,1.8,1.836,1.836,0,0,1-.534,1.291,1.358,1.358,0,0,1-.356.267,1.826,1.826,0,0,1-.935.245H17.46a1.847,1.847,0,1,0,0,3.694H62.572V37.7H52.691a9.557,9.557,0,0,1-.6-19.1v-.022h3.939a14.079,14.079,0,0,1-.111-1.691v-.356a9.751,9.751,0,0,1,.089-1.157A12.981,12.981,0,0,1,63.529,5.1a11.624,11.624,0,0,1,1.981-.712A12.93,12.93,0,0,1,79.531,9.548c.045.045.067.089.111.134a.022.022,0,0,0,.022.022l.134.2a16.384,16.384,0,0,1,1.424,3.338,9.8,9.8,0,0,1,5.942-2,9.678,9.678,0,0,1,3.939.823,9.959,9.959,0,0,1,4.206,3.516h4.3A13.8,13.8,0,0,0,90.525,7.879Zm7.011,7.344h0a.078.078,0,0,1-.022-.045A.069.069,0,0,0,97.536,15.223Z"/>
    <path id="Path_36" data-name="Path 36" class="cls-4" d="M294.9,106.09V83.3h21.5l-3.761,5.853H300.931v2.96h14.422l-3.405,5.675H301.02v8.3Z" transform="translate(-229.346 -64.761)"/>
    <path id="Path_37" data-name="Path 37" class="cls-4" d="M449.644,106.09H435.823c-6.81,0-12.33-8.88-12.33-8.88-5.141-7.745-11.439-8.079-12.441-8.079H398.3V83.3h12.152c10.193,0,15.557,6.944,19.3,12,3.739,5.074,6.41,4.941,6.41,4.941h9.926Z" transform="translate(-309.733 -64.761)"/>
  </g>
</svg>
