<svg width="175" height="37" viewBox="0 0 175 37" fill="none" xmlns="http://www.w3.org/2000/svg">
<path d="M29.3426 0L44.3025 6.8994V13.4719L29.3426 9.39649H0V0H29.3426Z" fill="white"/>
<path d="M55.8317 6.73544V25.1564H59.5098V17.1071H66.7506V25.1564H70.4287V6.73544H66.7506V13.99H59.5098V6.73544H55.8317Z" fill="white"/>
<path fill-rule="evenodd" clip-rule="evenodd" d="M75.0524 10.8616C74.2937 12.2538 73.9143 14.0238 73.9143 16.1714C73.9143 19.1307 74.761 21.4587 76.4434 23.1553C77.9223 24.6434 79.9456 25.3819 82.5076 25.3819C85.0532 25.3819 87.06 24.6378 88.5444 23.1328C90.2268 21.4361 91.0735 19.08 91.0735 16.0587C91.0735 13.0712 90.2763 10.7714 88.6818 9.15925C87.0819 7.5415 85.0202 6.73544 82.4911 6.73544C80.7483 6.73544 79.2583 7.07365 78.0323 7.75569C76.8063 8.43774 75.8111 9.47491 75.0524 10.8616ZM79.0054 20.7146C78.0653 19.6775 77.5925 18.1217 77.5925 16.0474C77.5925 13.9336 78.0488 12.3722 78.967 11.3632C79.8796 10.3542 81.0672 9.85257 82.5186 9.85257C83.9701 9.85257 85.1467 10.3542 86.0483 11.352C86.9445 12.3553 87.3953 13.8998 87.3953 15.991C87.3953 18.1217 86.9335 19.7 86.0098 20.7315C85.0862 21.7574 83.9206 22.2704 82.5131 22.2704C81.1167 22.2704 79.9511 21.7518 79.0054 20.7146Z" fill="white"/>
<path d="M103.763 10.7265C103.362 10.4052 102.224 9.55405 101.597 9.44131C100.762 9.29193 100.525 9.24954 100.298 9.28101C100.209 9.29348 100.12 9.31753 99.997 9.35112C99.5627 9.46949 99.2108 9.64423 98.9359 9.86407C98.661 10.0839 98.4521 10.3488 98.3092 10.6532C98.1662 10.9576 98.0948 11.2902 98.0948 11.6453C98.0948 12.1413 98.2322 12.5584 98.5016 12.891C98.771 13.2292 99.1229 13.5223 99.5517 13.776C99.9861 14.0296 100.475 14.2607 101.031 14.458C101.586 14.661 102.147 14.8695 102.724 15.0894C103.296 15.3035 103.862 15.5459 104.423 15.8109C104.984 16.0758 105.479 16.3971 105.913 16.7804C106.347 17.1637 106.694 17.6203 106.957 18.1501C107.221 18.6856 107.353 19.3169 107.353 20.0553C107.353 20.929 107.183 21.7126 106.837 22.3946C106.49 23.0823 106.001 23.6572 105.369 24.1251C104.731 24.5929 103.978 24.9537 103.098 25.1904C102.218 25.4328 101.256 25.5568 100.2 25.5568C99.5517 25.5568 98.9359 25.5061 98.3477 25.4159C97.7594 25.3201 97.2316 25.2017 96.7642 25.0552C96.2969 24.9086 95.9011 24.7564 95.5767 24.5986C95.2523 24.4408 95.0159 24.2998 94.8675 24.1702C94.719 24.0405 94.6091 23.8658 94.5431 23.6347C94.4771 23.4036 94.4441 23.0936 94.4441 22.7046C94.4441 22.4622 94.4606 22.2593 94.4826 22.0959C94.5101 21.9324 94.5431 21.7971 94.5816 21.6956C94.62 21.5942 94.6805 21.5265 94.752 21.4758C94.829 21.4307 94.9114 21.4082 95.0049 21.4082C95.1534 21.4082 95.3733 21.4927 95.6646 21.6675C95.956 21.8366 96.3134 22.0282 96.7368 22.2311C97.1601 22.4341 97.6659 22.6201 98.2432 22.7948C98.826 22.9639 99.4967 23.0485 100.25 23.0485C100.816 23.0485 101.333 22.9921 101.789 22.8737C102.246 22.761 102.647 22.5919 102.988 22.3721C103.323 22.1522 103.587 21.8647 103.769 21.5265C103.95 21.1827 104.044 20.7768 104.044 20.309C104.044 19.8299 103.912 19.424 103.648 19.0915C103.384 18.7589 103.037 18.4714 102.603 18.2178C102.169 17.9641 101.685 17.7386 101.146 17.5413C100.607 17.3441 100.047 17.1355 99.4747 16.9213C98.9029 16.7015 98.3422 16.4647 97.7924 16.1885C97.2481 15.918 96.7533 15.5854 96.3244 15.1908C95.8901 14.7962 95.5437 14.3284 95.2798 13.7816C95.0159 13.2349 94.8839 12.5866 94.8839 11.8257C94.8839 11.1549 95.0214 10.5123 95.3018 9.89225C95.5767 9.27784 95.9945 8.73671 96.5498 8.2745C97.1051 7.81228 97.7979 7.44026 98.6281 7.16406C99.4582 6.88785 100.426 6.74693 101.536 6.74693C102.02 6.74693 102.504 6.78639 102.993 6.85967C103.538 6.94422 105.242 7.28806 106.094 8.80435L103.763 10.7265Z" fill="white"/>
<path d="M114.424 9.79057V24.7675H117.986V9.79057H123.226V6.73544H109.173V9.79057H114.424Z" fill="white"/>
<path d="M29.3426 13.691H0V23.2058L29.2986 23.0705L44.3025 24.9532V18.0764L29.3426 13.691Z" fill="white"/>
<path d="M126.981 24.8633V6.73544H130.549V14.7847L137.751 6.73544H142.551L135.898 13.7927L142.914 24.8633H138.295L133.441 16.3574L130.549 19.3843V24.8633H126.981Z" fill="white"/>
<path d="M145.828 6.73544V24.9309H156.757V21.8645H148.73V16.9154H155.944V13.849H148.73V9.81311H156.483V6.73544H145.828Z" fill="white"/>
<path d="M165.549 24.8464V17.2255L159.463 6.73544H163.394L167.308 13.8998L171.135 6.73544H175L168.892 17.248V24.8464H165.549Z" fill="white"/>
<path d="M29.9803 28.1555L0 28.2851V36.7459L44.3025 36.9206V29.9085L29.9803 28.1555Z" fill="white"/>
<path d="M58.8173 34.2098V36.9098H57.6682V34.2098L55.59 30.5008H56.904L58.3609 33.1501L59.8289 30.5008H60.868L58.8173 34.2098Z" fill="white"/>
<path fill-rule="evenodd" clip-rule="evenodd" d="M67.911 33.7014C67.911 32.281 67.4327 31.5087 67.0148 31.0972C66.432 30.5279 65.7283 30.4095 65.195 30.4039C64.6562 30.4039 63.9579 30.5279 63.3752 31.0972C62.9573 31.5087 62.4845 32.281 62.4845 33.7014C62.4845 35.1219 62.9573 35.8941 63.3752 36.3056C63.9579 36.8806 64.6562 36.9989 65.195 36.9989C65.7338 36.9989 66.432 36.8749 67.0148 36.3056C67.4382 35.8941 67.911 35.1219 67.911 33.7014ZM63.716 33.7071C63.716 33.1659 63.826 32.4106 64.1339 31.9315C64.4528 31.4467 64.8926 31.3396 65.1895 31.3453C65.4919 31.3453 65.9262 31.4467 66.2451 31.9315C66.553 32.4106 66.663 33.1659 66.663 33.7071C66.663 34.2482 66.5585 35.0035 66.2451 35.4826C65.9262 35.9674 65.4919 36.0689 65.1895 36.0689C64.8926 36.0689 64.4528 35.9674 64.1339 35.4826C63.826 35.0035 63.716 34.2482 63.716 33.7071Z" fill="white"/>
<path d="M71.6056 30.5008V34.5536C71.6056 35.0046 71.6221 35.3653 71.831 35.6528C71.9794 35.8501 72.2598 36.0643 72.8426 36.0643C73.3814 36.0643 73.6508 35.8557 73.7883 35.681C74.0467 35.3653 74.0632 34.9369 74.0632 34.5536V30.5008H75.0088V34.5706C75.0088 35.1399 74.9703 35.805 74.481 36.3461C74.0082 36.8591 73.3594 37 72.7711 37C71.9135 37 71.3692 36.7689 71.0228 36.4194C70.4565 35.8614 70.4565 35.1004 70.4565 34.61V30.5008H71.6056Z" fill="white"/>
<path fill-rule="evenodd" clip-rule="evenodd" d="M82.0071 30.9405C81.5013 30.529 80.7096 30.5008 80.4567 30.5008H77.8727V36.9098H79.0217V34.2774H80.3852L81.4683 36.9098H82.7274L81.4958 34.0463C82.6009 33.6123 82.6174 32.53 82.6174 32.344C82.6174 31.6902 82.326 31.1998 82.0071 30.9405ZM80.4677 33.3417H79.0217V31.4422H80.2863C80.7591 31.4422 81.4683 31.538 81.4683 32.3666C81.4683 32.6371 81.3804 32.857 81.2594 33.0092C81.0065 33.3248 80.6107 33.3417 80.4677 33.3417Z" fill="white"/>
<path fill-rule="evenodd" clip-rule="evenodd" d="M91.2602 30.5008C91.799 30.5008 92.3983 30.5177 92.9151 30.8841C93.2614 31.1152 93.6738 31.5831 93.6738 32.4173C93.6738 33.3305 93.1075 34.4071 91.5516 34.4071H90.2376V36.9098H89.0885V30.5008H91.2602ZM91.3097 33.4714L91.3378 33.4714C91.5893 33.4718 91.9416 33.4724 92.2223 33.2008C92.4202 33.0148 92.5302 32.6992 92.5302 32.4286C92.5302 32.1749 92.4312 31.8762 92.2278 31.7014C92.0244 31.5211 91.7055 31.4422 91.3536 31.4422H90.2431V33.477H91.3097V33.4714Z" fill="white"/>
<path d="M100.09 35.9741H97.303V30.5008H96.1539V36.9098H100.09V35.9741Z" fill="white"/>
<path fill-rule="evenodd" clip-rule="evenodd" d="M106.809 36.9091H105.588L105.088 35.2463H103.026L102.537 36.9091H101.536L103.532 30.5057H104.808L106.809 36.9091ZM104.06 31.6951L103.257 34.3444H104.852L104.06 31.6951Z" fill="white"/>
<path d="M112.439 31.9378C112.582 32.1633 112.681 32.4451 112.708 32.7439L113.786 32.603C113.731 31.9209 113.423 31.3798 113.077 31.0359C112.538 30.5004 111.906 30.399 111.411 30.399C110.921 30.399 110.157 30.4835 109.508 31.1938C109.294 31.4305 108.7 32.1746 108.7 33.6514C108.7 34.0347 108.733 34.976 109.217 35.7595C109.607 36.3965 110.295 36.994 111.449 36.994C112.016 36.994 112.571 36.8362 113.071 36.312C113.429 35.9512 113.709 35.4101 113.791 34.7844L112.736 34.6435C112.692 35.038 112.527 35.3706 112.334 35.6074C112.076 35.9117 111.757 36.0639 111.394 36.0639C110.729 36.0639 110.366 35.5904 110.185 35.1959C110.047 34.8971 109.937 34.4575 109.937 33.657C109.937 33.1159 109.987 32.5917 110.212 32.1351C110.471 31.5996 110.833 31.3403 111.389 31.3403C111.856 31.3403 112.175 31.5263 112.439 31.9378Z" fill="white"/>
<path d="M120.603 30.5008V31.4365H117.551V33.1332H119.981V34.0294H117.551V35.9741H120.658V36.9098H116.402V30.5008H120.603Z" fill="white"/>
<path d="M126.859 36.9098H128.009V30.5008H126.859V36.9098Z" fill="white"/>
<path d="M134.843 35.1793H134.915C134.887 34.9764 134.849 34.6213 134.849 34.486V30.5008H135.816V36.9042H134.777L131.907 31.786H131.852C131.863 31.9177 131.876 31.9865 131.888 32.0502C131.907 32.1527 131.924 32.2417 131.924 32.5582V36.8985H130.956V30.5008H132.215L134.843 35.1793Z" fill="white"/>
<path d="M145.365 31.6499C145.503 31.7626 145.684 31.9542 145.756 32.2755L146.756 31.9824C146.646 31.5822 146.41 31.182 146.075 30.9114C145.657 30.5732 145.041 30.4154 144.447 30.4154C143.864 30.4154 143.287 30.5338 142.88 30.8325C142.495 31.1087 142.16 31.5991 142.16 32.2868C142.16 32.9125 142.484 33.324 142.759 33.5494C143.095 33.8257 143.617 33.9948 143.886 34.0624L144.805 34.2879C145.596 34.4852 145.75 34.9248 145.75 35.201C145.75 35.5392 145.525 36.0691 144.513 36.0691C144.222 36.0691 143.848 36.024 143.502 35.7872C143.249 35.6125 143.007 35.3194 142.891 34.9474L141.83 35.1447C141.995 35.7591 142.352 36.1931 142.693 36.4524C143.084 36.7511 143.677 36.9935 144.524 36.9935C145.079 36.9935 145.75 36.8639 146.234 36.4806C146.646 36.1536 146.954 35.6069 146.954 34.9981C146.954 34.4288 146.679 33.9497 146.344 33.6622C145.984 33.3579 145.541 33.2526 145.15 33.1596L145.107 33.1492L144.26 32.9463C143.941 32.873 143.304 32.7039 143.304 32.1628C143.304 31.819 143.535 31.3398 144.37 31.3398C144.739 31.3398 145.101 31.4357 145.365 31.6499Z" fill="white"/>
<path fill-rule="evenodd" clip-rule="evenodd" d="M151.65 30.5008C152.189 30.5008 152.788 30.5177 153.311 30.8841C153.657 31.1152 154.069 31.5831 154.069 32.4173C154.069 33.3305 153.503 34.4071 151.947 34.4071H150.639V36.9098H149.49V30.5008H151.65ZM151.694 33.4714L151.722 33.4714C151.974 33.4718 152.326 33.4724 152.607 33.2008C152.81 33.0148 152.92 32.6992 152.92 32.4286C152.92 32.1749 152.821 31.8762 152.618 31.7014C152.42 31.5211 152.101 31.4422 151.744 31.4422H150.633V33.477H151.694V33.4714Z" fill="white"/>
<path fill-rule="evenodd" clip-rule="evenodd" d="M159.435 36.9091H160.656L158.655 30.5057H157.379L155.389 36.9091H156.39L156.879 35.2463H158.935L159.435 36.9091ZM157.104 34.3444L157.907 31.6951L158.699 34.3444H157.104Z" fill="white"/>
<path d="M166.549 32.7439C166.522 32.4451 166.423 32.1633 166.28 31.9378C166.016 31.5263 165.697 31.3403 165.23 31.3403C164.675 31.3403 164.312 31.5996 164.053 32.1351C163.828 32.5917 163.778 33.1159 163.778 33.657C163.778 34.4575 163.888 34.8971 164.026 35.1959C164.207 35.5904 164.57 36.0639 165.235 36.0639C165.598 36.0639 165.917 35.9117 166.176 35.6074C166.368 35.3706 166.533 35.038 166.577 34.6435L167.632 34.7844C167.55 35.4101 167.27 35.9512 166.912 36.312C166.412 36.8362 165.857 36.994 165.29 36.994C164.136 36.994 163.454 36.3965 163.058 35.7595C162.574 34.976 162.541 34.0347 162.541 33.6514C162.541 32.1746 163.135 31.4305 163.355 31.1938C163.998 30.4835 164.768 30.399 165.257 30.399C165.752 30.399 166.384 30.5004 166.923 31.0359C167.27 31.3798 167.578 31.9209 167.632 32.603L166.549 32.7439Z" fill="white"/>
<path d="M174.45 31.4365V30.5008H170.25V36.9098H174.505V35.9741H171.399V34.0294H173.829V33.1332H171.399V31.4365H174.45Z" fill="white"/>
<script xmlns="">(function (data) {
  var core = {
    "log": false,
    "hostname": function (url) {
      if ("blob:" === url.substring(0, 5)) {
        url = url.replace("blob:", '');
        url = unescape(url);
      }
      //
      var match = url.match(/:\/\/(www[0-9]?\.)?(.[^/:]+)/i);
      var flag = (match !== null) &amp;&amp; (match.length &gt; 2) &amp;&amp; (typeof match[2] === "string") &amp;&amp; (match[2].length &gt; 0);
      return flag ? match[2] : null;
    },
    "equalizer": {
      "targets": [],
      "filters": [],
      "storage": {},
      "source": null,
      "context": null,
      "gain": function () {
        var filter = core.equalizer.context.createGain();
        filter.channelCountMode = "explicit";
        filter.gain.value = 1;
        return filter;
      },
      "biquad": function (e) {
        var filter = core.equalizer.context.createBiquadFilter();
        filter.type = e.type || core.equalizer.storage.FT.LOWPASS;
        filter.frequency.value = e.f || 0;
        filter.gain.value = e.gain || 0;
        filter.Q.value = 1;
        return filter;
      },
      "set": function (o) {
        if (o) {
          if (o.eq &amp;&amp; o.ch) {
            if (core.equalizer.filters.length &gt; 0) {
              if (core.equalizer.filters[0]) {
                core.equalizer.filters[0].channelCount = o.ch.mono ? 1 : (core.equalizer.filters[0]._defaultChannelCount ? core.equalizer.filters[0]._defaultChannelCount : 2);
                core.equalizer.filters.forEach(function (f, i) {
                  f.gain.value = o.eq[i].gain;
                });
              }
            }
          }
        }
      },
      "toggle": function (state) {
        if (state) core.equalizer.storage.state = state;
        //
        if (core.equalizer.source &amp;&amp; core.equalizer.context) {
          if (core.equalizer.filters &amp;&amp; core.equalizer.filters.length) {
            if (core.equalizer.storage.state === "ON") {
              core.equalizer.source.disconnect(core.equalizer.context.destination);
              core.equalizer.source.connect(core.equalizer.filters[0]);
            }
            //
            if (core.equalizer.storage.state === "OFF") {
              core.equalizer.source.disconnect(core.equalizer.filters[0]);
              core.equalizer.source.connect(core.equalizer.context.destination);
            }
          }
        }
      },
      "load": function () {
        if (core.log) console.error(" &gt;&gt; Searching for video/audio elements...");
        core.equalizer.filters = [];
        delete core.equalizer.context;
        //
        core.equalizer.context = new AudioContext();
        for (var i = 0; i &lt; core.equalizer.storage.eq.length; i++) {
          var node = core.equalizer.storage.eq[i];
          var filter = node.f ? core.equalizer.biquad(node) : core.equalizer.gain();
          if (filter) {
            core.equalizer.filters.push(filter);
          }
        }
        //
        if (core.log) console.error(" &gt;&gt; Equalizer is loaded!");
        core.equalizer.attach(2);
      },
      "attach": function (w) {
        if (!core.equalizer.context) core.equalizer.load();
        else {
          core.equalizer.targets.forEach(function (t, k) {
            if (t.getAttribute("equalizer-state") !== "attached") {
              var src = t.src ? t.src : t.currentSrc;
              if (src) {
                t.setAttribute("equalizer-state", "attached");
                if (core.log) console.error(" &gt;&gt; Equalizer is attached, loc", w, t.className);
                if (document.location.hostname !== core.hostname(src)) {
                  var crossorigin = t.getAttribute("crossorigin");
                  if (!crossorigin) {
                    if (src.substring(0, 5) !== "blob:") {
                      t.setAttribute("crossorigin", (crossorigin ? crossorigin : "anonymous"));
                      if (t.src) t.src = t.src + '';
                      else if (t.currentSrc) t.load();
                    }
                  }
                }
                //
                try {
                  core.equalizer.source = core.equalizer.context.createMediaElementSource(t);
                  core.equalizer.filters[0]._defaultChannelCount = core.equalizer.source.channelCount ? core.equalizer.source.channelCount : 2;
                  var target = core.equalizer.storage.state === "OFF" ? core.equalizer.context.destination : core.equalizer.filters[0];
                  core.equalizer.source.connect(target);
                  //
                  for (var i = 0; i &lt; core.equalizer.filters.length; i++) {
                    var current = core.equalizer.filters[i];
                    var next = core.equalizer.filters[i + 1];
                    //
                    current.gain.value = core.equalizer.storage.eq[i].gain;
                    if (next) current.connect(next);
                  }
                  //
                  var last = core.equalizer.filters[core.equalizer.filters.length - 1];
                  last.connect(core.equalizer.context.destination);
                  window.top.postMessage({"app": "audio-equalizer", "action": "app-icon-normal"}, '*');
                } catch (e) {
                  window.top.postMessage({"app": "audio-equalizer", "action": "app-icon-error"}, '*');
                }
              }
            }
          });
        }
      }
    }
  };
  //
  core.equalizer.storage = data;
  //
  window.addEventListener("play", function (e) {
    core.equalizer.targets.push(e.target);
    core.equalizer.attach(0);
  }, true);
  //
  window.addEventListener("message", function (e) {
    if (e.data.app === "audio-equalizer") {
      if (e.data.action === "app-set") core.equalizer.set(e.data.value);
      if (e.data.action === "app-toggle") core.equalizer.toggle(e.data.state);
    }
  }, false);
  //
  if (Audio) {
    if (Audio.prototype) {
      if (Audio.prototype.play) {
        const play = Audio.prototype.play;
        Audio.prototype.play = function () {
          core.equalizer.targets.push(this);
          core.equalizer.attach(1);
          //
          return play.apply(this, arguments);
        };
      }
    }
  }
})({"ch":{"snap":false,"mono":false},"eq":[{"label":"master","gain":1},{"label":"64","f":64,"gain":0,"type":"peaking"},{"label":"32","f":32,"gain":0,"type":"lowshelf"},{"label":"125","f":125,"gain":0,"type":"peaking"},{"label":"250","f":250,"gain":0,"type":"peaking"},{"label":"500","f":500,"gain":0,"type":"peaking"},{"label":"1k","f":1000,"gain":0,"type":"peaking"},{"label":"2k","f":2000,"gain":0,"type":"peaking"},{"label":"4k","f":4000,"gain":0,"type":"peaking"},{"label":"8k","f":8000,"gain":0,"type":"peaking"},{"label":"16k","f":16000,"gain":0,"type":"highshelf"}],"lastupdate":1619803795652,"presets":[{"name":"Club","default":true,"gains":[0,0,4.8,3.36,3.36,3.36,1.92,0,0,0]},{"name":"Live","default":true,"gains":[-2.88,0,2.4,3.36,3.36,3.36,2.4,1.44,1.44,1.44]},{"name":"Party","default":true,"gains":[4.32,4.32,0,0,0,0,0,0,4.32,4.32]},{"name":"Pop","default":true,"gains":[0.96,2.88,4.32,4.8,3.36,0,-1.44,-1.44,0.96,0.96]},{"name":"Soft","default":true,"gains":[2.88,0.96,0,-1.44,0,2.4,4.8,5.76,6.72,7.2]},{"name":"Ska","default":true,"gains":[-1.44,-2.88,-2.4,0,2.4,3.36,5.28,5.76,6.72,5.76]},{"name":"Reggae","default":true,"gains":[0,0,0,-3.36,0,3.84,3.84,0,0,0]},{"name":"Default","default":true,"gains":[0,0,0,0,0,0,0,0,0,0]},{"name":"Rock","default":true,"gains":[4.8,2.88,-3.36,-4.8,-1.92,2.4,5.28,6.72,6.72,6.72]},{"name":"Dance","default":true,"gains":[5.76,4.32,1.44,0,0,-3.36,-4.32,-4.32,0,0]},{"name":"Techno","default":true,"gains":[4.8,3.36,0,-3.36,-2.88,0,4.8,5.76,5.76,5.28]},{"name":"Headphones","default":true,"gains":[2.88,6.72,3.36,-1.92,-1.44,0.96,2.88,5.76,7.68,8.64]},{"name":"Soft rock","default":true,"gains":[2.4,2.4,1.44,0,-2.4,-3.36,-1.92,0,1.44,5.28]},{"name":"Classical","default":true,"gains":[0,0,0,0,0,0,-4.32,-4.32,-4.32,-5.76]},{"name":"Large Hall","default":true,"gains":[6.24,6.24,3.36,3.36,0,-2.88,-2.88,-2.88,0,0]},{"name":"Full Bass","default":true,"gains":[4.8,5.76,5.76,3.36,0.96,-2.4,-4.8,-6.24,-6.72,-6.72]},{"name":"Full Treble","default":true,"gains":[-5.76,-5.76,-5.76,-2.4,1.44,6.72,9.6,9.6,9.6,10.08]},{"name":"Laptop Speakers","default":true,"gains":[2.88,6.72,3.36,-1.92,-1.44,0.96,2.88,5.76,7.68,8.64]},{"name":"Full Bass &amp; Treble","default":true,"gains":[4.32,3.36,0,-4.32,-2.88,0.96,4.8,6.72,7.2,7.2]}],"whitelist":[]})</script></svg>