<?xml version="1.0" encoding="utf-8"?>
<!-- Generator: Adobe Illustrator 25.2.1, SVG Export Plug-In . SVG Version: 6.00 Build 0)  -->
<svg version="1.1" id="Laag_1" xmlns="http://www.w3.org/2000/svg" xmlns:xlink="http://www.w3.org/1999/xlink" x="0px" y="0px"
	 viewBox="0 0 750 161.8" style="enable-background:new 0 0 750 161.8;" xml:space="preserve">
<style type="text/css">
	.st0{fill:#FFFFFF;}
	.st1{fill:#F58220;}
</style>
<path class="st0" d="M81.7,53c5,5.4,5.7,11.8,5.7,16.8c0,4.7-0.5,14-7.8,19.6c-4.7,3.5-10,3.8-14.7,3.8h-3.8H6.2H2.4V77.6h3.9H54
	c2.1,0,4.8-0.3,6.8-2.6c1.9-1.9,1.7-4.3,1.7-5.7c0-2.6-0.3-4.8-2.6-6.9c-1.4-1.4-4-2.2-16.6-5.9l-17.7-4.9C5.5,47.7,0.5,34.7,1.2,25
	c0-4.7,0.7-10.6,4.3-15.6c5.7-7.6,14-8,22-8h3.8h47.9h3.8v15.6h-3.8H34.5h-1.4c-1.9,0-3.9,0.2-5.7,1.7c-2.6,1.9-2.6,4-2.6,6.6
	s0.2,4.8,2.9,7.1c2.6,2.1,9.2,4.2,11.4,4.7l19.7,5.5C69.9,46,77,48.2,81.7,53z M171.3,54.1h-49.4c0,4,0.5,9.9,1.2,12.6
	c2.8,9.7,11.1,10.9,18.5,10.9h41h3.9v15.6h-3.9h-47h-3.9c-9.4,0-20.6-0.9-28-11.6C97.5,72.8,97,60.5,97,48.2
	c0-17.3,0.7-29.6,10.9-38.4c10-8.6,25.6-8.6,34.3-8.6c0.6,0,1.1,0,1.7,0c0.8,0,1.5,0,2.2,0c10.9,0,21.8,0.5,30.3,5.9
	c10.6,6.9,13,18.2,13,29.8c0,4.7-0.3,9.9-4.3,13.8c-2.8,2.8-6.2,3.5-9.9,3.5H171.3z M160,38.5c4,0,4.5-2.8,4.5-5.4
	c0-5.7-2.9-10-5.9-12.3c-4.6-3.6-10.5-4.1-15.8-4.2c-5.3,0.1-11.9,0.7-16.9,6c-4.1,4.7-4,9.7-4.1,15.8L160,38.5L160,38.5z
	 M426.4,54.1h-49.5c0,4,0.5,9.9,1.2,12.6c2.8,9.7,11.1,10.9,18.5,10.9h41h3.9v15.6h-3.9h-47h-3.9c-9.4,0-20.6-0.9-28-11.6
	c-6.1-8.8-6.6-21.1-6.6-33.4c0-17.3,0.7-29.6,10.9-38.4c10-8.6,25.6-8.6,34.3-8.6c0.6,0,1.1,0,1.7,0c0.8,0,1.5,0,2.2,0
	c10.9,0,21.8,0.5,30.3,5.9c10.6,6.9,13,18.2,13,29.8c0,4.7-0.4,9.9-4.3,13.8c-2.8,2.8-6.2,3.5-9.9,3.5H426.4z M415.1,38.5
	c4,0,4.5-2.8,4.5-5.4c0-5.7-2.9-10-5.9-12.3c-4.6-3.6-10.5-4.1-15.8-4.2c-5.3,0.1-11.9,0.7-16.9,6c-4.1,4.7-4,9.7-4.1,15.8
	L415.1,38.5L415.1,38.5z M497,1.5h-3.9c-7.1,0-19,0.5-27.5,8c-7.8,6.7-9.5,16.4-9.5,26.7v57.1h3.9h16.4h3.9V41.5
	c0-6.9,0.7-13.3,4.7-18c4.9-5.7,11.9-6.4,17.3-6.4h4.6h3.8V1.5h-3.8H497z M626.6,1.5h-3.8v68.7c0,1.9,0.2,3.6-1.7,5.5
	c-1.2,1.2-3.3,1.9-5.9,1.9h-12.9c-7.4,0-12.8-0.9-16.4-5.9c-2.6-3.5-3.5-8-3.5-16.1V1.5h-3.8h-16.4h-3.8v57.8
	c0,11.2,1.7,20.2,9.3,27c6.2,5.4,13.3,6.9,23.9,6.9h3.8h28.5h3.8c4.8,0,10.4-0.2,14.4-3.5c4.7-3.6,4.8-9.7,4.8-13V1.5h-3.8H626.6z
	 M742.4,53c-4.7-4.8-11.8-7.1-22.8-10.4l-19.7-5.5c-2.2-0.5-8.8-2.6-11.4-4.7c-2.8-2.3-2.9-4.5-2.9-7.1s0-4.7,2.6-6.6
	c1.8-1.5,3.8-1.7,5.7-1.7h1.4h44.8h3.8V1.5h-3.8H692h-3.8c-8,0-16.3,0.4-22,8c-3.6,5-4.3,10.9-4.3,15.6c-0.7,9.7,4.3,22.7,24.4,26.7
	l17.7,4.8c12.6,3.6,15.2,4.5,16.6,5.9c2.2,2.1,2.6,4.3,2.6,6.9c0,1.4,0.2,3.8-1.7,5.7c-1.9,2.2-4.7,2.6-6.8,2.6h-47.7h-3.8v15.6h3.8
	h54.8h3.8c4.7,0,10-0.3,14.7-3.8c7.3-5.5,7.8-14.9,7.8-19.5C748.1,64.8,747.4,58.4,742.4,53z M541.1,1.5h-3.8h-16.4H517v15.6h24.1
	V1.5z M517,93.2h3.8h16.4h3.8V25H517V93.2z M348.6,1h-17.1h-3.9l-25.6,68c-0.1,0.4-0.3,0.8-0.5,1.2c-0.2-0.4-0.4-0.8-0.5-1.2
	L275.3,1h-3.9h-17.1h-3.9l-3.2,0.1l-3.6,0l-3.7,0.1c-7.4,0.2-19,0.7-27.5,8.1c-7.8,6.7-9.5,16.4-9.5,26.7v57.1h3.9h16.4h3.9V41.5
	c0-6.9,0.7-13.3,4.7-18c4.9-5.7,11.9-6.4,17.3-6.4h4.6h3.5l28.3,68.6c3.3,8.3,10.7,8.1,14.2,8.1c0.6,0,1.2,0,1.8,0c0.8,0,1.4,0,2,0
	c5,0,10.7-0.3,14-8.1l35-84.6C352.5,1,348.6,1,348.6,1z"/>
<g>
	<path class="st1" d="M2.7,160.8v-48h9v48H2.7z"/>
	<path class="st1" d="M35.9,160.8V120H17.2v-7.2h46.5v7.2H45v40.8H35.9z"/>
	<path class="st1" d="M87.2,160.8v-48h9v48H87.2z"/>
	<path class="st1" d="M152.5,154.6c0,2.4-0.7,4.2-2.1,5.2s-3.1,1.6-5,1.6c-1.5,0-2.9-0.2-4.2-0.8c-1.3-0.5-2.5-1.6-3.6-3.3
		l-20.2-31.9c-0.4-0.5-0.6-0.8-0.8-1c-0.1-0.1-0.2-0.2-0.3-0.2c-0.2,0-0.4,0.1-0.6,0.3c-0.2,0.2-0.3,0.6-0.3,1.1v35.2h-8.8v-42
		c0-2.1,0.7-3.6,1.9-4.8c1.3-1.1,3.1-1.7,5.4-1.7c2.1,0,3.8,0.4,4.9,1.1c1.1,0.7,2,1.6,2.7,2.7l20.4,32.1c0.2,0.2,0.3,0.5,0.4,0.8
		c0.1,0.3,0.3,0.4,0.6,0.4c0.4,0,0.6-0.1,0.6-0.4c0.1-0.3,0.1-0.5,0.1-0.7v-35.3h8.8L152.5,154.6L152.5,154.6z"/>
	<path class="st1" d="M162.7,160.8v-41.7c0-0.8,0.1-1.6,0.3-2.4s0.7-1.5,1.4-2.2c0.8-0.8,1.7-1.3,2.6-1.4c0.9-0.2,1.8-0.3,2.6-0.3
		h31.2v7.2H174c-0.3,0-0.6,0-0.9,0s-0.6,0.2-0.8,0.5c-0.3,0.3-0.4,0.6-0.5,0.9s-0.1,0.7-0.1,1v10.4H193v7.2h-21.2v20.7L162.7,160.8
		L162.7,160.8z"/>
	<path class="st1" d="M207.3,121c0-1,0.1-2.1,0.3-3.2c0.2-1.1,0.8-2.1,1.7-3.1c0.9-0.8,1.8-1.4,2.8-1.6c1-0.2,2-0.3,2.9-0.3h22.8
		c0.8,0,1.7,0,2.6,0.1s1.8,0.2,2.7,0.5c0.9,0.3,1.8,0.7,2.6,1.3c0.8,0.6,1.6,1.4,2.3,2.5c1.1,1.6,1.8,3.4,2.1,5.2s0.3,3.6,0.3,5.3
		c0,1.7-0.1,3.5-0.3,5.4s-0.8,3.7-1.8,5.4c-0.3,0.6-0.7,1.2-1.2,1.8c-0.5,0.6-1,1.1-1.8,1.6s-1.6,0.9-2.6,1.2s-2.2,0.4-3.6,0.4h-6.2
		v0.3l18.2,16.9h-11.4l-15.8-15.6c-0.5-0.5-1-1.1-1.5-1.9c-0.5-0.8-0.8-1.5-0.8-2.2v-1.1c0-1,0.3-1.8,1-2.4c0.7-0.6,1.7-0.9,3-0.9h9
		c0.8,0,1.6-0.1,2.6-0.3s1.7-0.8,2.4-1.8c0.2-0.4,0.4-0.8,0.6-1.4c0.2-0.6,0.3-1.2,0.3-1.8c0.1-0.6,0.1-1.2,0.1-1.8
		c0-0.6,0-1.1,0-1.5c0-1.9-0.2-3.4-0.5-4.4s-0.7-1.8-1.2-2.3c-0.7-0.7-1.6-1.1-2.5-1.3c-1-0.1-1.8-0.2-2.5-0.2h-14.7
		c-0.5,0-0.9,0-1.3,0.1c-0.4,0.1-0.7,0.3-1.1,0.6c-0.5,0.4-0.8,0.8-0.9,1.3s-0.1,0.9-0.1,1.4v37.3h-9L207.3,121L207.3,121z"/>
	<path class="st1" d="M271.6,117.7c0.9-2,1.9-3.4,3-4.2c1.1-0.8,2.8-1.2,4.9-1.2c2.1,0,3.7,0.4,4.8,1.2c1.2,0.8,2.2,2.2,3,4.2
		l18.1,43.1h-9.5l-4.9-12.1h-23.1l-4.9,12.1h-9.5L271.6,117.7z M270.2,142.2h18.4l-7.8-19.5c-0.1-0.4-0.3-0.8-0.5-1.3
		c-0.2-0.5-0.5-0.7-0.8-0.7s-0.6,0.2-0.8,0.7s-0.4,0.9-0.5,1.3L270.2,142.2z"/>
	<path class="st1" d="M308.1,153.6h26.6c1.1,0,1.9-0.2,2.5-0.6s1-0.9,1.3-1.4c0.3-0.6,0.5-1.1,0.5-1.7c0.1-0.6,0.1-1.1,0.1-1.5
		c0-0.5,0-0.9-0.1-1.4c-0.1-0.5-0.3-1-0.6-1.5s-0.8-0.9-1.4-1.4c-0.6-0.4-1.5-0.8-2.5-1.1l-18.9-6c-0.2,0-0.5-0.1-0.9-0.3
		c-0.4-0.2-0.9-0.4-1.5-0.7s-1.1-0.6-1.7-1.1s-1.1-0.9-1.6-1.5c-0.5-0.6-1-1.4-1.3-2.1c-0.3-0.8-0.6-1.6-0.8-2.4s-0.3-1.6-0.3-2.4
		c0-0.8-0.1-1.5-0.1-2.2c0-1.5,0.2-3,0.5-4.6c0.3-1.6,1.2-3,2.6-4.3c1.2-1.2,2.6-1.9,4-2.2c1.4-0.3,2.7-0.4,3.9-0.4h27.6v7.2h-24.5
		c-0.6,0-1.3,0.1-2,0.2c-0.7,0.1-1.3,0.4-1.8,0.9c-0.6,0.6-1,1.2-1.1,1.9s-0.2,1.3-0.2,1.8c0,1.1,0.3,2.1,0.8,3
		c0.5,1,1.8,1.8,3.7,2.4l17.5,5.6c1.6,0.5,3,1,4.1,1.6s2,1.2,2.8,1.9c0.7,0.7,1.3,1.4,1.7,2.3c0.4,0.9,0.7,1.7,0.9,2.5
		c0.2,0.9,0.3,1.7,0.4,2.4c0.1,0.8,0.1,1.4,0.1,2c0,1.5-0.1,3.1-0.5,4.6c-0.3,1.6-1,3-2,4.3c-1.2,1.6-2.5,2.5-4,2.9
		c-1.5,0.4-3,0.6-4.6,0.6h-29.5L308.1,153.6L308.1,153.6z"/>
	<path class="st1" d="M369.3,160.8V120h-18.7v-7.2h46.5v7.2h-18.8v40.8H369.3z"/>
	<path class="st1" d="M402.6,121c0-1,0.1-2.1,0.3-3.2s0.8-2.1,1.7-3.1c0.9-0.8,1.8-1.4,2.8-1.6c1-0.2,2-0.3,2.9-0.3h22.8
		c0.8,0,1.7,0,2.6,0.1s1.8,0.2,2.7,0.5c0.9,0.3,1.8,0.7,2.6,1.3c0.8,0.6,1.6,1.4,2.3,2.5c1.1,1.6,1.8,3.4,2,5.2
		c0.2,1.8,0.3,3.6,0.3,5.3c0,1.7-0.1,3.5-0.3,5.4s-0.8,3.7-1.8,5.4c-0.3,0.6-0.7,1.2-1.2,1.8c-0.5,0.6-1,1.1-1.8,1.6
		s-1.6,0.9-2.6,1.2c-1,0.3-2.2,0.4-3.6,0.4h-6.2v0.3l18.2,16.9h-11.3l-15.8-15.6c-0.5-0.5-1-1.1-1.5-1.9c-0.5-0.8-0.8-1.5-0.8-2.2
		v-1.1c0-1,0.3-1.8,1-2.4c0.7-0.6,1.7-0.9,3-0.9h9c0.8,0,1.6-0.1,2.6-0.3s1.7-0.8,2.4-1.8c0.2-0.4,0.4-0.8,0.6-1.4
		c0.2-0.6,0.3-1.2,0.3-1.8s0.1-1.2,0.1-1.8c0-0.6,0-1.1,0-1.5c0-1.9-0.2-3.4-0.5-4.4s-0.7-1.8-1.2-2.3c-0.7-0.7-1.6-1.1-2.5-1.3
		c-1-0.1-1.8-0.2-2.5-0.2H415c-0.5,0-0.9,0-1.3,0.1c-0.4,0.1-0.7,0.3-1.1,0.6c-0.5,0.4-0.8,0.8-0.9,1.3c-0.1,0.4-0.1,0.9-0.1,1.4
		v37.3h-9L402.6,121L402.6,121z"/>
	<path class="st1" d="M478,154.1c0.8-0.1,1.7-0.2,2.6-0.4c0.9-0.2,1.7-0.5,2.5-0.9c0.8-0.4,1.5-1,2.2-1.6c0.5-0.6,1-1.3,1.3-2
		c0.3-0.7,0.5-1.5,0.7-2.2s0.2-1.5,0.3-2.2s0-1.4,0-2v-29.9h9V144c0,2.1-0.2,4.1-0.7,6.3s-1.6,4.1-3.5,6c-1.2,1.2-2.5,2.2-4,2.9
		c-1.5,0.7-3,1.2-4.5,1.5c-1.5,0.3-3,0.6-4.4,0.6c-1.4,0.1-2.7,0.1-3.8,0.1c-1.1,0-2.4,0-3.8-0.1s-2.9-0.3-4.4-0.6
		c-1.5-0.3-3-0.9-4.5-1.5c-1.5-0.7-2.8-1.6-4-2.9c-1.8-1.9-3-3.9-3.5-6s-0.7-4.2-0.7-6.3v-31.1h9v29.9c0,1.3,0.1,2.7,0.3,4.2
		s0.9,2.9,2,4.1c0.6,0.7,1.4,1.2,2.2,1.6c0.8,0.4,1.6,0.7,2.5,0.9c0.8,0.2,1.7,0.3,2.5,0.4c0.8,0.1,1.6,0.1,2.3,0.1
		C476.4,154.2,477.1,154.1,478,154.1z"/>
	<path class="st1" d="M525.6,160.8c-1.1,0-2.4-0.1-3.7-0.2c-1.3-0.1-2.7-0.4-4-0.8c-1.3-0.4-2.7-1-4-1.7s-2.5-1.8-3.6-3
		c-1.1-1.3-2-2.7-2.7-4.2c-0.6-1.5-1.1-3-1.4-4.6s-0.5-3.1-0.6-4.6c-0.1-1.5-0.1-3-0.1-4.3c0-1.7,0.1-3.4,0.2-5.1s0.3-3.4,0.7-5
		c0.3-1.6,0.8-3.1,1.4-4.6c0.6-1.4,1.4-2.8,2.4-3.9c1.2-1.4,2.5-2.5,4-3.3c1.5-0.8,2.9-1.4,4.4-1.8s2.8-0.7,4.1-0.8
		c1.3-0.1,2.3-0.1,3.2-0.1h19.2v7.2h-15c-1.3,0-2.6,0-3.8,0.1s-2.4,0.3-3.5,0.6s-2.1,0.8-3,1.4s-1.7,1.4-2.4,2.4
		c-0.7,1.1-1.4,2.6-1.9,4.6c-0.5,2-0.8,4.8-0.8,8.3c0,1.8,0.1,3.3,0.2,4.6s0.3,2.4,0.5,3.3s0.5,1.7,0.8,2.3s0.5,1.1,0.8,1.4
		c1.2,1.9,2.9,3.1,5.1,3.7s4.6,0.9,7.5,0.9h16.2v7.2L525.6,160.8L525.6,160.8z"/>
	<path class="st1" d="M568,160.8V120h-18.7v-7.2h46.5v7.2H577v40.8H568z"/>
	<path class="st1" d="M624.3,154.1c0.8-0.1,1.7-0.2,2.6-0.4c0.9-0.2,1.7-0.5,2.5-0.9c0.8-0.4,1.5-1,2.2-1.6c0.5-0.6,1-1.3,1.3-2
		c0.3-0.7,0.5-1.5,0.7-2.2s0.2-1.5,0.3-2.2s0-1.4,0-2v-29.9h9V144c0,2.1-0.2,4.1-0.7,6.3s-1.6,4.1-3.5,6c-1.2,1.2-2.5,2.2-4,2.9
		s-3,1.2-4.5,1.5s-3,0.6-4.4,0.6c-1.4,0.1-2.7,0.1-3.8,0.1c-1.1,0-2.3,0-3.8-0.1s-2.9-0.3-4.4-0.6c-1.5-0.3-3-0.9-4.5-1.5
		c-1.5-0.7-2.8-1.6-4-2.9c-1.8-1.9-3-3.9-3.5-6s-0.7-4.2-0.7-6.3v-31.1h9v29.9c0,1.3,0.1,2.7,0.3,4.2s0.9,2.9,2,4.1
		c0.6,0.7,1.4,1.2,2.2,1.6s1.6,0.7,2.5,0.9c0.8,0.2,1.7,0.3,2.5,0.4c0.8,0.1,1.6,0.1,2.3,0.1C622.7,154.2,623.5,154.1,624.3,154.1z"
		/>
	<path class="st1" d="M653.2,121c0-1,0.1-2.1,0.3-3.2s0.8-2.1,1.7-3.1c0.9-0.8,1.8-1.4,2.8-1.6c1-0.2,2-0.3,2.9-0.3h22.8
		c0.8,0,1.7,0,2.6,0.1s1.8,0.2,2.7,0.5c0.9,0.3,1.8,0.7,2.6,1.3c0.8,0.6,1.6,1.4,2.3,2.5c1.1,1.6,1.8,3.4,2,5.2
		c0.2,1.8,0.3,3.6,0.3,5.3c0,1.7-0.1,3.5-0.3,5.4s-0.8,3.7-1.8,5.4c-0.3,0.6-0.7,1.2-1.2,1.8c-0.5,0.6-1,1.1-1.8,1.6
		s-1.6,0.9-2.6,1.2c-1,0.3-2.2,0.4-3.6,0.4h-6.2v0.3l18.2,16.9h-11.4l-15.8-15.6c-0.5-0.5-1-1.1-1.5-1.9c-0.5-0.8-0.8-1.5-0.8-2.2
		v-1.1c0-1,0.3-1.8,1-2.4c0.7-0.6,1.7-0.9,3-0.9h9c0.8,0,1.6-0.1,2.6-0.3s1.7-0.8,2.4-1.8c0.2-0.4,0.4-0.8,0.6-1.4
		c0.2-0.6,0.3-1.2,0.3-1.8s0.1-1.2,0.1-1.8c0-0.6,0-1.1,0-1.5c0-1.9-0.2-3.4-0.5-4.4s-0.7-1.8-1.2-2.3c-0.7-0.7-1.6-1.1-2.5-1.3
		c-1-0.1-1.8-0.2-2.5-0.2h-14.7c-0.5,0-0.9,0-1.3,0.1c-0.4,0.1-0.7,0.3-1.1,0.6c-0.5,0.4-0.8,0.8-0.9,1.3s-0.1,0.9-0.1,1.4v37.3h-9
		L653.2,121L653.2,121z"/>
	<path class="st1" d="M712.8,160.8c-1,0-2-0.1-3-0.2c-0.9-0.1-1.8-0.6-2.5-1.3c-0.8-0.8-1.3-1.7-1.5-2.7c-0.2-1-0.3-2-0.3-2.9v-34
		c0-1,0.2-1.9,0.5-2.8s0.7-1.6,1.2-2.2c0.8-0.9,1.7-1.4,2.8-1.6c1.1-0.2,2.1-0.3,3-0.3h30.8v7.2h-25.9c-0.4,0-0.8,0-1.3,0.1
		s-0.8,0.3-1.2,0.6c-0.4,0.4-0.6,0.8-0.7,1.2s-0.1,0.8-0.1,1.2v9.7H743v7.2h-28.4v11.2c0,0.9,0.2,1.5,0.7,1.9
		c0.3,0.3,0.7,0.4,1.2,0.5c0.5,0.1,1.2,0.1,1.9,0.1H744v7.2L712.8,160.8L712.8,160.8z"/>
</g>
</svg>
