<?xml version="1.0" encoding="UTF-8" standalone="no"?>
<!-- Created with Inkscape (http://www.inkscape.org/) -->

<svg
   width="130.34392mm"
   height="127.40161mm"
   viewBox="0 0 130.34392 127.40162"
   version="1.1"
   id="svg1876"
   inkscape:version="1.1 (c4e8f9ed74, 2021-05-24)"
   sodipodi:docname="drc.svg"
   xmlns:inkscape="http://www.inkscape.org/namespaces/inkscape"
   xmlns:sodipodi="http://sodipodi.sourceforge.net/DTD/sodipodi-0.dtd"
   xmlns="http://www.w3.org/2000/svg"
   xmlns:svg="http://www.w3.org/2000/svg">
  <sodipodi:namedview
     id="namedview1878"
     pagecolor="#ffffff"
     bordercolor="#666666"
     borderopacity="1.0"
     inkscape:pageshadow="2"
     inkscape:pageopacity="0.0"
     inkscape:pagecheckerboard="0"
     inkscape:document-units="mm"
     showgrid="false"
     inkscape:zoom="0.5"
     inkscape:cx="113"
     inkscape:cy="229"
     inkscape:window-width="1920"
     inkscape:window-height="1020"
     inkscape:window-x="0"
     inkscape:window-y="32"
     inkscape:window-maximized="1"
     inkscape:current-layer="layer1" />
  <defs
     id="defs1873" />
  <g
     inkscape:label="Layer 1"
     inkscape:groupmode="layer"
     id="layer1"
     transform="translate(-131.61525,-72.002346)">
    <g
       id="g2358"
       transform="matrix(1.166227,0,0,-1.166227,-247.12163,581.706)">
      <path
         d="m 380.824,334.586 c -0.23,0.006 -0.412,-0.179 -0.416,-0.404 -0.006,-0.585 -0.01,-1.218 -0.015,-1.871 -0.012,-1.392 -0.022,-2.831 -0.053,-4.08 -0.006,-0.226 0.172,-0.416 0.398,-0.42 0.002,0 0.008,0 0.01,0 0.221,0 0.404,0.175 0.41,0.399 0.033,1.258 0.043,2.699 0.055,4.094 0.004,0.652 0.008,1.285 0.016,1.868 0.001,0.225 -0.18,0.411 -0.405,0.414"
         style="fill:#3c3a3e;fill-opacity:1;fill-rule:nonzero;stroke:none;stroke-width:0.1"
         id="path196" />
      <path
         d="m 380.814,342.154 c -0.224,-0.002 -0.408,-0.186 -0.408,-0.413 0.006,-1.151 0.01,-2.298 0.012,-3.443 0.002,-0.226 0.184,-0.408 0.41,-0.408 0.229,0.001 0.41,0.184 0.41,0.41 -0.004,1.146 -0.008,2.293 -0.013,3.446 0,0.226 -0.184,0.408 -0.411,0.408"
         style="fill:#3c3a3e;fill-opacity:1;fill-rule:nonzero;stroke:none;stroke-width:0.1"
         id="path198" />
      <path
         d="m 380.236,422.68 c 0.227,0 0.41,0.183 0.412,0.409 0.004,1.057 0.018,2.134 0.041,3.204 0.006,0.227 -0.173,0.414 -0.398,0.419 -0.219,0.01 -0.416,-0.174 -0.42,-0.4 -0.025,-1.074 -0.039,-2.158 -0.043,-3.219 -0.002,-0.227 0.182,-0.411 0.408,-0.413"
         style="fill:#3c3a3e;fill-opacity:1;fill-rule:nonzero;stroke:none;stroke-width:0.1"
         id="path200" />
      <path
         d="m 379.965,429.074 c -0.008,-0.226 0.168,-0.416 0.394,-0.424 0.006,0 0.012,0 0.016,0 0.219,0 0.4,0.173 0.41,0.395 0.031,0.895 0.016,1.755 0,2.586 -0.031,1.653 -0.058,3.215 0.274,4.934 0.045,0.223 -0.1,0.437 -0.323,0.481 -0.222,0.043 -0.437,-0.102 -0.48,-0.323 -0.352,-1.805 -0.322,-3.409 -0.291,-5.108 0.015,-0.82 0.031,-1.668 0,-2.541"
         style="fill:#3c3a3e;fill-opacity:1;fill-rule:nonzero;stroke:none;stroke-width:0.1"
         id="path202" />
      <path
         d="m 436.031,383.287 c -1.047,-0.202 -2.133,-0.067 -3.283,0.077 -0.801,0.1 -1.627,0.202 -2.459,0.189 -0.226,-0.004 -0.406,-0.19 -0.402,-0.417 0.004,-0.223 0.185,-0.402 0.41,-0.402 0.002,0 0.006,0 0.006,0 0.771,0.014 1.572,-0.086 2.342,-0.183 0.734,-0.091 1.482,-0.184 2.23,-0.184 0.438,0 0.877,0.031 1.311,0.116 0.222,0.042 0.369,0.257 0.326,0.48 -0.041,0.221 -0.26,0.365 -0.481,0.324"
         style="fill:#3c3a3e;fill-opacity:1;fill-rule:nonzero;stroke:none;stroke-width:0.1"
         id="path204" />
      <path
         d="m 424.387,383.325 c -0.006,0.226 -0.194,0.411 -0.422,0.397 -1.604,-0.048 -3.219,-0.159 -4.93,-0.276 -3.017,-0.207 -6.135,-0.422 -9.152,-0.257 -1.053,0.015 -2.022,0.049 -2.959,0.104 -0.225,0.02 -0.422,-0.157 -0.434,-0.384 -0.015,-0.226 0.158,-0.419 0.383,-0.433 0.953,-0.058 1.932,-0.093 2.982,-0.107 0.76,-0.041 1.526,-0.058 2.295,-0.058 2.317,0 4.659,0.16 6.942,0.317 1.703,0.118 3.31,0.227 4.898,0.276 0.227,0.006 0.403,0.194 0.397,0.421"
         style="fill:#3c3a3e;fill-opacity:1;fill-rule:nonzero;stroke:none;stroke-width:0.1"
         id="path206" />
      <path
         d="m 399.928,383.228 c -0.227,-0.001 -0.408,-0.187 -0.408,-0.412 0.001,-0.226 0.183,-0.408 0.41,-0.408 h 0.002 c 1.271,0.006 2.552,0.017 3.839,0.029 0.227,0.002 0.411,0.188 0.407,0.415 -0.002,0.226 -0.19,0.394 -0.414,0.405 -1.285,-0.012 -2.567,-0.023 -3.836,-0.029"
         style="fill:#3c3a3e;fill-opacity:1;fill-rule:nonzero;stroke:none;stroke-width:0.1"
         id="path208" />
      <path
         d="m 364.357,383.159 c -0.728,0.019 -1.459,0.035 -2.191,0.049 l -1.352,0.019 c -2.765,0.039 -5.376,0.075 -8.298,0.337 -0.227,0.022 -0.426,-0.145 -0.446,-0.37 -0.019,-0.226 0.147,-0.425 0.371,-0.445 2.954,-0.266 5.58,-0.302 8.364,-0.341 l 1.345,-0.02 c 0.731,-0.013 1.459,-0.03 2.184,-0.049 0.006,0 0.008,0 0.01,0 0.224,0 0.406,0.177 0.412,0.399 0.006,0.226 -0.174,0.414 -0.399,0.421"
         style="fill:#3c3a3e;fill-opacity:1;fill-rule:nonzero;stroke:none;stroke-width:0.1"
         id="path210" />
      <path
         d="m 336.949,383.266 c 0.026,-0.207 0.201,-0.359 0.406,-0.359 0.018,0 0.034,0.001 0.053,0.003 2.367,0.299 4.639,0.203 7.043,0.1 1.666,-0.07 3.387,-0.142 5.137,-0.071 0.225,0.009 0.402,0.199 0.392,0.425 -0.007,0.227 -0.193,0.4 -0.425,0.393 -1.715,-0.069 -3.42,0.003 -5.069,0.073 -2.334,0.099 -4.746,0.201 -7.181,-0.107 -0.225,-0.027 -0.385,-0.232 -0.356,-0.457"
         style="fill:#3c3a3e;fill-opacity:1;fill-rule:nonzero;stroke:none;stroke-width:0.1"
         id="path212" />
      <path
         d="m 333.752,383.463 c -1.055,-0.363 -1.979,-0.319 -2.955,-0.273 -0.426,0.019 -0.863,0.04 -1.318,0.027 -0.739,-0.025 -1.469,-0.031 -2.157,-0.035 l -2.16,-0.016 c -0.226,-0.002 -0.408,-0.185 -0.408,-0.412 0.004,-0.225 0.187,-0.407 0.412,-0.407 h 0.002 l 2.16,0.016 c 0.692,0.004 1.428,0.01 2.176,0.035 0.426,0.012 0.846,-0.007 1.254,-0.027 0.328,-0.015 0.658,-0.032 0.996,-0.032 0.709,0 1.449,0.069 2.266,0.349 0.212,0.073 0.328,0.307 0.253,0.521 -0.074,0.213 -0.306,0.329 -0.521,0.254"
         style="fill:#3c3a3e;fill-opacity:1;fill-rule:nonzero;stroke:none;stroke-width:0.1"
         id="path214" />
      <path
         d="m 344.898,347.539 c -0.744,-0.967 -1.566,-1.717 -2.437,-2.513 -0.43,-0.393 -0.873,-0.798 -1.32,-1.243 -0.161,-0.159 -0.161,-0.419 -0.002,-0.579 0.08,-0.082 0.183,-0.121 0.291,-0.121 0.103,0 0.209,0.039 0.289,0.119 0.433,0.431 0.871,0.832 1.295,1.219 0.898,0.821 1.746,1.595 2.533,2.618 0.139,0.179 0.105,0.436 -0.074,0.574 -0.18,0.139 -0.436,0.105 -0.575,-0.074"
         style="fill:#3c3a3e;fill-opacity:1;fill-rule:nonzero;stroke:none;stroke-width:0.1"
         id="path216" />
      <path
         d="m 363.947,365.392 c 0.151,0.169 0.135,0.428 -0.035,0.579 -0.17,0.149 -0.428,0.133 -0.578,-0.035 -2.375,-2.682 -5.07,-5.209 -7.674,-7.65 -2.666,-2.499 -5.422,-5.081 -7.869,-7.86 -0.15,-0.169 -0.133,-0.427 0.037,-0.577 0.078,-0.069 0.174,-0.102 0.272,-0.102 0.113,0 0.226,0.046 0.306,0.138 2.422,2.748 5.162,5.317 7.813,7.802 2.621,2.456 5.33,4.994 7.728,7.705"
         style="fill:#3c3a3e;fill-opacity:1;fill-rule:nonzero;stroke:none;stroke-width:0.1"
         id="path218" />
      <path
         d="m 394.262,396.384 c -0.162,0.157 -0.422,0.153 -0.58,-0.01 -1.541,-1.596 -2.737,-2.796 -4.121,-4.185 l -0.43,-0.431 c -0.158,-0.161 -0.158,-0.42 0.002,-0.579 0.08,-0.081 0.185,-0.12 0.289,-0.12 0.105,0 0.211,0.039 0.291,0.121 l 0.428,0.431 c 1.386,1.391 2.584,2.594 4.13,4.194 0.159,0.162 0.155,0.422 -0.009,0.579"
         style="fill:#3c3a3e;fill-opacity:1;fill-rule:nonzero;stroke:none;stroke-width:0.1"
         id="path220" />
      <path
         d="m 396.49,399.336 c -0.162,-0.157 -0.168,-0.416 -0.011,-0.58 0.08,-0.084 0.189,-0.127 0.294,-0.127 0.104,0 0.206,0.039 0.284,0.114 1.902,1.815 3.761,3.734 5.56,5.589 2.631,2.711 5.35,5.515 8.231,8.031 0.172,0.148 0.189,0.407 0.041,0.578 -0.151,0.171 -0.409,0.188 -0.58,0.04 -2.907,-2.54 -5.637,-5.356 -8.28,-8.078 -1.793,-1.85 -3.648,-3.763 -5.539,-5.567"
         style="fill:#3c3a3e;fill-opacity:1;fill-rule:nonzero;stroke:none;stroke-width:0.1"
         id="path222" />
      <path
         d="m 414.324,415.952 c 0.106,0 0.211,0.041 0.291,0.122 0.93,0.94 1.864,1.886 2.805,2.829 l 2.83,2.83 c 0.158,0.159 0.158,0.419 0,0.579 -0.162,0.159 -0.42,0.159 -0.58,0 l -2.828,-2.83 c -0.942,-0.944 -1.879,-1.891 -2.809,-2.832 -0.16,-0.162 -0.158,-0.421 0.002,-0.58 0.08,-0.078 0.186,-0.118 0.289,-0.118"
         style="fill:#3c3a3e;fill-opacity:1;fill-rule:nonzero;stroke:none;stroke-width:0.1"
         id="path224" />
      <path
         d="m 417.645,346.374 c -0.875,0.87 -1.76,1.749 -2.647,2.634 -0.162,0.159 -0.422,0.158 -0.58,-0.003 -0.16,-0.16 -0.16,-0.419 0,-0.578 0.891,-0.886 1.773,-1.766 2.65,-2.636 0.877,-0.868 1.741,-1.728 2.602,-2.588 0.078,-0.081 0.184,-0.12 0.289,-0.12 0.105,0 0.211,0.039 0.291,0.12 0.158,0.16 0.158,0.419 0,0.579 -0.861,0.861 -1.727,1.722 -2.605,2.592"
         style="fill:#3c3a3e;fill-opacity:1;fill-rule:nonzero;stroke:none;stroke-width:0.1"
         id="path226" />
      <path
         d="m 407.467,356.517 c -1.744,1.655 -3.547,3.367 -5.104,5.249 -0.142,0.173 -0.4,0.199 -0.576,0.054 -0.174,-0.144 -0.199,-0.402 -0.055,-0.576 1.588,-1.92 3.409,-3.649 5.17,-5.321 1.235,-1.175 2.512,-2.388 3.703,-3.66 0.083,-0.087 0.19,-0.131 0.299,-0.131 0.102,0 0.203,0.038 0.282,0.111 0.164,0.155 0.173,0.414 0.017,0.579 -1.205,1.291 -2.492,2.513 -3.736,3.695"
         style="fill:#3c3a3e;fill-opacity:1;fill-rule:nonzero;stroke:none;stroke-width:0.1"
         id="path228" />
      <path
         d="m 397.045,366.965 c -0.219,0.063 -0.443,-0.066 -0.506,-0.284 -0.06,-0.218 0.066,-0.444 0.285,-0.505 0.824,-0.232 1.256,-0.87 1.713,-1.546 0.301,-0.446 0.611,-0.908 1.047,-1.246 0.074,-0.058 0.164,-0.087 0.252,-0.087 0.121,0 0.242,0.055 0.324,0.158 0.139,0.179 0.108,0.436 -0.072,0.576 -0.332,0.258 -0.594,0.648 -0.873,1.058 -0.494,0.733 -1.055,1.563 -2.17,1.876"
         style="fill:#3c3a3e;fill-opacity:1;fill-rule:nonzero;stroke:none;stroke-width:0.1"
         id="path230" />
      <path
         d="m 358.408,404.66 0.194,-0.195 c 0.08,-0.079 0.185,-0.119 0.289,-0.119 0.105,0 0.211,0.04 0.291,0.119 0.16,0.16 0.16,0.42 0,0.58 l -0.194,0.194 c -1.009,1.009 -2.224,2.227 -3.238,3.251 -0.158,0.16 -0.418,0.162 -0.58,0.002 -0.16,-0.159 -0.162,-0.418 -0.002,-0.579 1.014,-1.025 2.23,-2.244 3.24,-3.253"
         style="fill:#3c3a3e;fill-opacity:1;fill-rule:nonzero;stroke:none;stroke-width:0.1"
         id="path232" />
      <path
         d="m 343.01,419.919 c 0.621,-0.604 1.238,-1.21 1.857,-1.824 l 0.049,-0.039 c 1.602,-1.177 2.904,-2.613 4.283,-4.132 1.016,-1.118 2.065,-2.274 3.254,-3.33 0.08,-0.069 0.178,-0.103 0.274,-0.103 0.111,0 0.224,0.046 0.304,0.137 0.151,0.169 0.137,0.429 -0.033,0.579 -1.156,1.027 -2.191,2.166 -3.189,3.268 -1.342,1.475 -2.727,3.002 -4.385,4.223 -0.613,0.608 -1.229,1.209 -1.842,1.807 -0.623,0.606 -1.244,1.208 -1.867,1.811 -0.164,0.157 -0.422,0.153 -0.58,-0.009 -0.158,-0.163 -0.153,-0.422 0.01,-0.58 0.623,-0.602 1.244,-1.204 1.865,-1.808"
         style="fill:#3c3a3e;fill-opacity:1;fill-rule:nonzero;stroke:none;stroke-width:0.1"
         id="path234" />
      <path
         d="m 365.879,346.019 c -0.207,0.087 -0.447,-0.01 -0.535,-0.219 -0.328,-0.784 -0.637,-1.534 -0.934,-2.261 -0.295,-0.729 -0.58,-1.439 -0.859,-2.14 l -0.436,-1.107 c -0.404,-1.022 -0.806,-2.039 -1.232,-3.088 -0.084,-0.209 0.015,-0.449 0.224,-0.534 0.051,-0.021 0.104,-0.03 0.155,-0.03 0.162,0 0.316,0.096 0.381,0.256 0.425,1.05 0.83,2.07 1.234,3.094 l 0.437,1.106 c 0.278,0.7 0.559,1.406 0.856,2.133 0.295,0.725 0.603,1.474 0.93,2.254 0.088,0.209 -0.01,0.449 -0.221,0.536"
         style="fill:#3c3a3e;fill-opacity:1;fill-rule:nonzero;stroke:none;stroke-width:0.1"
         id="path236" />
      <path
         d="m 368.506,352.718 c -0.213,0.08 -0.449,-0.028 -0.529,-0.239 -0.354,-0.942 -0.739,-1.94 -1.18,-3.047 -0.084,-0.211 0.019,-0.45 0.23,-0.533 0.051,-0.02 0.1,-0.029 0.151,-0.029 0.164,0 0.318,0.098 0.381,0.259 0.443,1.113 0.83,2.114 1.185,3.061 0.08,0.212 -0.027,0.449 -0.238,0.528"
         style="fill:#3c3a3e;fill-opacity:1;fill-rule:nonzero;stroke:none;stroke-width:0.1"
         id="path238" />
      <path
         d="m 393.227,414.131 c 0.066,-0.043 0.142,-0.062 0.216,-0.062 0.135,0 0.27,0.068 0.348,0.192 0.594,0.954 0.973,2.109 1.34,3.239 0.357,1.097 0.726,2.231 1.301,3.2 l 0.029,0.059 c 0.307,0.774 0.574,1.479 0.814,2.152 0.079,0.212 -0.035,0.448 -0.248,0.524 -0.211,0.076 -0.447,-0.035 -0.523,-0.248 -0.234,-0.656 -0.494,-1.343 -0.793,-2.097 -0.611,-1.039 -0.992,-2.207 -1.363,-3.349 -0.366,-1.119 -0.711,-2.177 -1.252,-3.046 -0.119,-0.191 -0.061,-0.444 0.131,-0.564"
         style="fill:#3c3a3e;fill-opacity:1;fill-rule:nonzero;stroke:none;stroke-width:0.1"
         id="path240" />
      <path
         d="m 397.955,425.61 c 0.051,-0.021 0.104,-0.032 0.156,-0.032 0.16,0 0.313,0.096 0.379,0.254 0.348,0.838 0.696,1.676 1.045,2.514 0.088,0.209 -0.012,0.449 -0.221,0.536 -0.209,0.088 -0.449,-0.011 -0.535,-0.22 -0.349,-0.838 -0.699,-1.678 -1.047,-2.517 -0.086,-0.209 0.012,-0.449 0.223,-0.535"
         style="fill:#3c3a3e;fill-opacity:1;fill-rule:nonzero;stroke:none;stroke-width:0.1"
         id="path242" />
      <path
         d="m 426.646,364.658 c -1.066,0.612 -2.107,0.998 -3.111,1.371 -0.969,0.36 -1.885,0.7 -2.783,1.221 -0.197,0.113 -0.447,0.046 -0.561,-0.151 -0.113,-0.195 -0.046,-0.446 0.151,-0.559 0.957,-0.555 1.949,-0.923 2.908,-1.279 0.973,-0.361 1.98,-0.735 2.986,-1.314 0.067,-0.035 0.137,-0.054 0.205,-0.054 0.143,0 0.28,0.074 0.356,0.207 0.113,0.195 0.045,0.446 -0.151,0.558"
         style="fill:#3c3a3e;fill-opacity:1;fill-rule:nonzero;stroke:none;stroke-width:0.1"
         id="path244" />
      <path
         d="m 416.674,368.027 c 0.158,0 0.308,0.09 0.375,0.244 0.092,0.206 0,0.449 -0.207,0.54 -4.24,1.882 -8.742,3.507 -13.096,5.075 l -0.57,0.207 c -0.211,0.076 -0.447,-0.034 -0.524,-0.247 -0.078,-0.213 0.034,-0.448 0.246,-0.524 l 0.569,-0.206 c 4.541,-1.637 8.83,-3.183 13.043,-5.053 0.054,-0.025 0.109,-0.036 0.164,-0.036"
         style="fill:#3c3a3e;fill-opacity:1;fill-rule:nonzero;stroke:none;stroke-width:0.1"
         id="path246" />
      <path
         d="m 394.803,377.504 c -0.209,0.088 -0.448,-0.008 -0.535,-0.215 -0.09,-0.209 0.007,-0.45 0.216,-0.539 0.84,-0.358 1.686,-0.711 2.534,-1.063 0.849,-0.351 1.703,-0.699 2.56,-1.043 0.049,-0.021 0.102,-0.03 0.152,-0.03 0.163,0 0.317,0.097 0.381,0.256 0.086,0.21 -0.017,0.449 -0.228,0.533 -0.854,0.345 -1.705,0.692 -2.553,1.042 -0.844,0.35 -1.685,0.702 -2.527,1.059"
         style="fill:#3c3a3e;fill-opacity:1;fill-rule:nonzero;stroke:none;stroke-width:0.1"
         id="path248" />
      <path
         d="m 360.619,390.325 0.194,-0.094 c 0.808,-0.393 1.644,-0.8 2.669,-1.02 0.03,-0.004 0.057,-0.008 0.084,-0.008 0.192,0 0.362,0.131 0.401,0.324 0.049,0.221 -0.092,0.44 -0.315,0.487 -0.927,0.198 -1.716,0.582 -2.48,0.954 l -0.193,0.095 c -0.901,0.435 -1.799,0.837 -2.905,0.968 -0.224,0.028 -0.429,-0.135 -0.455,-0.359 -0.025,-0.225 0.135,-0.429 0.36,-0.456 0.98,-0.115 1.775,-0.471 2.64,-0.891"
         style="fill:#3c3a3e;fill-opacity:1;fill-rule:nonzero;stroke:none;stroke-width:0.1"
         id="path250" />
      <path
         d="m 342.113,397.546 c 2.399,-1.337 4.883,-2.241 7.283,-3.115 1.702,-0.62 3.463,-1.26 5.153,-2.044 0.056,-0.026 0.115,-0.039 0.172,-0.039 0.154,0 0.302,0.088 0.371,0.238 0.096,0.205 0.006,0.449 -0.199,0.544 -1.721,0.799 -3.498,1.445 -5.215,2.071 -2.377,0.865 -4.836,1.76 -7.182,3.07 l -0.035,0.017 c -0.818,0.362 -1.637,0.727 -2.453,1.093 -1.635,0.733 -3.266,1.473 -4.891,2.213 -0.205,0.094 -0.449,0.002 -0.541,-0.203 -0.096,-0.207 -0.004,-0.45 0.201,-0.543 1.627,-0.742 3.258,-1.481 4.895,-2.215 0.812,-0.364 1.627,-0.726 2.441,-1.087"
         style="fill:#3c3a3e;fill-opacity:1;fill-rule:nonzero;stroke:none;stroke-width:0.1"
         id="path252" />
      <path
         d="m 340.361,365.44 c -0.791,-0.419 -1.664,-0.639 -2.507,-0.852 l -0.084,-0.022 c -0.901,-0.228 -1.832,-0.465 -2.657,-0.94 -0.195,-0.114 -0.263,-0.365 -0.15,-0.56 0.076,-0.131 0.213,-0.205 0.355,-0.205 0.071,0 0.139,0.017 0.203,0.055 0.729,0.418 1.565,0.631 2.45,0.855 l 0.082,0.022 c 0.892,0.225 1.814,0.457 2.691,0.922 0.201,0.106 0.277,0.354 0.172,0.555 -0.107,0.199 -0.355,0.275 -0.555,0.17"
         style="fill:#3c3a3e;fill-opacity:1;fill-rule:nonzero;stroke:none;stroke-width:0.1"
         id="path254" />
      <path
         d="m 343.932,365.918 c 0.045,0 0.091,0.008 0.136,0.024 4.516,1.596 8.014,3.286 11.004,5.319 0.19,0.127 0.237,0.382 0.11,0.569 -0.127,0.187 -0.383,0.235 -0.569,0.109 -2.933,-1.993 -6.369,-3.652 -10.818,-5.225 -0.213,-0.075 -0.326,-0.309 -0.25,-0.521 0.06,-0.17 0.217,-0.275 0.387,-0.275"
         style="fill:#3c3a3e;fill-opacity:1;fill-rule:nonzero;stroke:none;stroke-width:0.1"
         id="path256" />
      <path
         d="m 369.119,377.867 c -0.088,0.209 -0.326,0.308 -0.535,0.222 -0.887,-0.367 -1.773,-0.737 -2.66,-1.109 -0.879,-0.368 -1.758,-0.738 -2.635,-1.112 -0.734,-0.225 -1.443,-0.591 -2.193,-0.979 l -0.367,-0.189 c -0.879,-0.454 -1.747,-0.882 -2.702,-1.117 -0.22,-0.055 -0.355,-0.278 -0.3,-0.497 0.046,-0.187 0.214,-0.311 0.398,-0.311 0.031,0 0.064,0.003 0.098,0.012 1.043,0.257 1.994,0.727 2.879,1.184 l 0.371,0.191 c 0.722,0.373 1.406,0.725 2.076,0.929 l 0.041,0.015 c 0.883,0.374 1.767,0.747 2.652,1.118 0.885,0.371 1.77,0.74 2.654,1.106 0.209,0.088 0.309,0.328 0.223,0.537"
         style="fill:#3c3a3e;fill-opacity:1;fill-rule:nonzero;stroke:none;stroke-width:0.1"
         id="path258" />
      <path
         d="m 394.264,388.137 c 0.066,0 0.132,0.016 0.193,0.048 0.713,0.38 1.49,0.651 2.314,0.936 0.977,0.34 1.987,0.689 2.895,1.242 0.193,0.117 0.254,0.368 0.137,0.562 -0.117,0.194 -0.369,0.255 -0.563,0.138 -0.834,-0.507 -1.801,-0.842 -2.736,-1.167 -0.818,-0.285 -1.664,-0.578 -2.432,-0.988 -0.199,-0.106 -0.277,-0.354 -0.17,-0.554 0.075,-0.138 0.215,-0.217 0.362,-0.217"
         style="fill:#3c3a3e;fill-opacity:1;fill-rule:nonzero;stroke:none;stroke-width:0.1"
         id="path260" />
      <path
         d="m 416.367,398.152 c -2.406,-1.506 -5.207,-2.47 -7.914,-3.402 -1.709,-0.587 -3.476,-1.196 -5.099,-1.929 -0.208,-0.093 -0.299,-0.335 -0.206,-0.541 0.069,-0.152 0.217,-0.243 0.373,-0.243 0.059,0 0.116,0.013 0.168,0.037 1.59,0.719 3.26,1.292 5.03,1.901 2.752,0.947 5.595,1.926 8.084,3.484 0.191,0.118 0.25,0.372 0.131,0.564 -0.123,0.191 -0.375,0.25 -0.567,0.129"
         style="fill:#3c3a3e;fill-opacity:1;fill-rule:nonzero;stroke:none;stroke-width:0.1"
         id="path262" />
      <path
         d="m 420.238,399.481 c 0.059,-0.171 0.217,-0.279 0.387,-0.279 0.045,0 0.09,0.008 0.133,0.022 0.967,0.329 1.9,0.766 2.701,1.151 l 0.418,0.204 c 0.756,0.364 1.533,0.742 2.377,1.091 0.211,0.087 0.309,0.327 0.223,0.536 -0.088,0.21 -0.327,0.31 -0.538,0.222 -0.865,-0.359 -1.654,-0.741 -2.419,-1.112 l -0.416,-0.202 c -0.995,-0.478 -1.776,-0.831 -2.61,-1.114 -0.215,-0.072 -0.328,-0.305 -0.256,-0.519"
         style="fill:#3c3a3e;fill-opacity:1;fill-rule:nonzero;stroke:none;stroke-width:0.1"
         id="path264" />
      <path
         d="m 399.48,339.692 c -0.298,0.727 -0.599,1.452 -0.908,2.198 -0.267,0.57 -0.482,1.184 -0.691,1.777 -0.32,0.909 -0.651,1.849 -1.168,2.653 -0.121,0.191 -0.377,0.244 -0.567,0.123 -0.191,-0.122 -0.246,-0.376 -0.123,-0.566 0.465,-0.724 0.766,-1.578 1.084,-2.481 0.217,-0.613 0.44,-1.246 0.713,-1.836 0.303,-0.729 0.604,-1.454 0.903,-2.178 0.297,-0.727 0.591,-1.453 0.882,-2.182 0.065,-0.158 0.219,-0.256 0.381,-0.256 0.051,0 0.104,0.008 0.153,0.03 0.211,0.084 0.312,0.322 0.228,0.531 -0.293,0.73 -0.59,1.459 -0.887,2.187"
         style="fill:#3c3a3e;fill-opacity:1;fill-rule:nonzero;stroke:none;stroke-width:0.1"
         id="path266" />
      <path
         d="m 393.805,353.071 c -0.09,0.209 -0.332,0.303 -0.539,0.214 -0.209,-0.091 -0.303,-0.332 -0.213,-0.539 l 1.158,-2.669 c 0.068,-0.154 0.219,-0.247 0.377,-0.247 0.055,0 0.109,0.011 0.162,0.034 0.209,0.091 0.305,0.331 0.213,0.539 l -1.158,2.668"
         style="fill:#3c3a3e;fill-opacity:1;fill-rule:nonzero;stroke:none;stroke-width:0.1"
         id="path268" />
      <path
         d="m 365.609,417.564 c 0.067,-0.154 0.219,-0.246 0.375,-0.246 0.057,0 0.112,0.011 0.164,0.034 0.207,0.09 0.301,0.331 0.213,0.538 -0.422,0.971 -0.851,1.951 -1.289,2.939 -0.092,0.207 -0.334,0.3 -0.541,0.208 -0.207,-0.091 -0.301,-0.333 -0.209,-0.54 0.436,-0.986 0.867,-1.964 1.287,-2.933"
         style="fill:#3c3a3e;fill-opacity:1;fill-rule:nonzero;stroke:none;stroke-width:0.1"
         id="path270" />
      <path
         d="m 362.031,425.664 c 0.416,-0.728 0.844,-1.482 1.016,-2.298 0.039,-0.194 0.211,-0.327 0.398,-0.327 0.03,0 0.057,0.002 0.086,0.01 0.223,0.045 0.364,0.263 0.317,0.484 -0.196,0.942 -0.657,1.753 -1.104,2.536 -0.394,0.694 -0.767,1.349 -0.93,2.044 -0.052,0.221 -0.273,0.355 -0.496,0.304 -0.218,-0.052 -0.355,-0.271 -0.302,-0.492 0.189,-0.811 0.609,-1.549 1.015,-2.261"
         style="fill:#3c3a3e;fill-opacity:1;fill-rule:nonzero;stroke:none;stroke-width:0.1"
         id="path272" />
      <path
         d="m 361.893,353.656 c -0.184,0.133 -0.442,0.094 -0.575,-0.09 -0.49,-0.675 -0.953,-1.472 -1.402,-2.242 -0.646,-1.117 -1.318,-2.271 -2.102,-3.12 -0.154,-0.166 -0.142,-0.426 0.024,-0.579 0.078,-0.073 0.178,-0.109 0.277,-0.109 0.11,0 0.221,0.044 0.301,0.131 0.846,0.916 1.539,2.11 2.211,3.265 0.455,0.788 0.889,1.532 1.353,2.172 0.135,0.183 0.094,0.439 -0.087,0.572"
         style="fill:#3c3a3e;fill-opacity:1;fill-rule:nonzero;stroke:none;stroke-width:0.1"
         id="path274" />
      <path
         d="m 364.988,359.27 -1.904,-2.964 c -0.123,-0.19 -0.066,-0.443 0.125,-0.566 0.068,-0.045 0.145,-0.066 0.221,-0.066 0.134,0 0.265,0.067 0.343,0.189 l 1.905,2.964 c 0.121,0.19 0.066,0.444 -0.125,0.566 -0.19,0.123 -0.444,0.068 -0.565,-0.123"
         style="fill:#3c3a3e;fill-opacity:1;fill-rule:nonzero;stroke:none;stroke-width:0.1"
         id="path276" />
      <path
         d="m 397.086,408.143 c -0.213,0.08 -0.449,-0.028 -0.529,-0.239 -0.391,-1.044 -1.075,-1.921 -1.735,-2.768 -0.529,-0.68 -1.076,-1.381 -1.463,-2.159 -0.099,-0.203 -0.017,-0.448 0.186,-0.549 0.059,-0.029 0.121,-0.043 0.182,-0.043 0.15,0 0.294,0.083 0.367,0.228 0.349,0.702 0.847,1.342 1.375,2.019 0.697,0.896 1.42,1.823 1.855,2.984 0.08,0.213 -0.027,0.448 -0.238,0.527"
         style="fill:#3c3a3e;fill-opacity:1;fill-rule:nonzero;stroke:none;stroke-width:0.1"
         id="path278" />
      <path
         d="m 398.453,409.97 c 0.055,-0.025 0.111,-0.035 0.168,-0.035 0.156,0 0.305,0.089 0.375,0.242 0.818,1.834 1.996,3.466 3.242,5.194 0.516,0.715 1.049,1.455 1.551,2.206 0.127,0.189 0.076,0.443 -0.111,0.568 -0.19,0.126 -0.444,0.076 -0.569,-0.112 -0.494,-0.738 -1.023,-1.473 -1.535,-2.182 -1.217,-1.687 -2.474,-3.428 -3.328,-5.341 -0.092,-0.206 0.002,-0.448 0.207,-0.54"
         style="fill:#3c3a3e;fill-opacity:1;fill-rule:nonzero;stroke:none;stroke-width:0.1"
         id="path280" />
      <path
         d="m 409.328,364.943 c -0.191,0.125 -0.445,0.071 -0.568,-0.12 -0.123,-0.189 -0.071,-0.443 0.121,-0.566 0.455,-0.296 0.914,-0.587 1.375,-0.879 1.721,-1.091 3.502,-2.218 5.103,-3.656 0.079,-0.07 0.176,-0.105 0.274,-0.105 0.113,0 0.222,0.047 0.305,0.137 0.152,0.168 0.136,0.427 -0.032,0.578 -1.652,1.482 -3.461,2.629 -5.211,3.738 -0.459,0.291 -0.916,0.58 -1.367,0.873"
         style="fill:#3c3a3e;fill-opacity:1;fill-rule:nonzero;stroke:none;stroke-width:0.1"
         id="path282" />
      <path
         d="m 405.664,366.444 c 0.125,0 0.25,0.058 0.33,0.167 0.133,0.182 0.096,0.438 -0.086,0.573 -1.926,1.421 -4.029,2.679 -6.066,3.898 -0.697,0.416 -1.383,0.825 -2.039,1.23 -0.686,0.419 -1.367,0.834 -2.045,1.244 -0.678,0.41 -1.35,0.815 -2.016,1.212 -0.193,0.117 -0.445,0.053 -0.56,-0.141 -0.118,-0.195 -0.055,-0.446 0.14,-0.563 0.662,-0.396 1.334,-0.8 2.008,-1.209 0.68,-0.409 1.361,-0.823 2.043,-1.242 0.66,-0.406 1.348,-0.816 2.047,-1.234 2.019,-1.209 4.107,-2.457 6,-3.856 0.074,-0.053 0.158,-0.079 0.244,-0.079"
         style="fill:#3c3a3e;fill-opacity:1;fill-rule:nonzero;stroke:none;stroke-width:0.1"
         id="path284" />
      <path
         d="m 363.672,393.265 c 0.062,-0.034 0.129,-0.051 0.195,-0.051 0.145,0 0.285,0.077 0.36,0.214 0.109,0.199 0.037,0.447 -0.163,0.556 -2.931,1.609 -5.742,3.462 -9.058,5.749 -0.186,0.13 -0.442,0.082 -0.57,-0.104 -0.127,-0.186 -0.081,-0.442 0.105,-0.57 3.336,-2.301 6.166,-4.168 9.131,-5.794"
         style="fill:#3c3a3e;fill-opacity:1;fill-rule:nonzero;stroke:none;stroke-width:0.1"
         id="path286" />
      <path
         d="m 345.346,405.704 c -0.127,-0.19 -0.073,-0.444 0.115,-0.567 1.717,-1.133 3.779,-2.501 6.059,-4.071 0.07,-0.048 0.15,-0.072 0.232,-0.072 0.129,0 0.258,0.063 0.338,0.179 0.127,0.186 0.08,0.441 -0.106,0.569 -2.287,1.572 -4.351,2.944 -6.072,4.078 -0.189,0.125 -0.443,0.073 -0.566,-0.116"
         style="fill:#3c3a3e;fill-opacity:1;fill-rule:nonzero;stroke:none;stroke-width:0.1"
         id="path288" />
      <path
         d="m 340.055,373.822 c 0.023,0 0.047,10e-4 0.072,0.006 1.773,0.316 3.455,0.746 5.082,1.163 0.564,0.145 1.113,0.286 1.643,0.416 0.222,0.054 0.357,0.275 0.302,0.495 -0.054,0.22 -0.277,0.355 -0.496,0.301 -0.533,-0.131 -1.084,-0.272 -1.652,-0.417 -1.613,-0.415 -3.279,-0.842 -5.022,-1.151 -0.222,-0.04 -0.373,-0.253 -0.332,-0.475 0.036,-0.199 0.207,-0.338 0.403,-0.338"
         style="fill:#3c3a3e;fill-opacity:1;fill-rule:nonzero;stroke:none;stroke-width:0.1"
         id="path290" />
      <path
         d="m 361.52,378.692 c -0.061,0.219 -0.286,0.349 -0.504,0.288 -2.071,-0.563 -4.209,-0.902 -6.477,-1.261 -1.594,-0.252 -3.24,-0.514 -4.85,-0.858 -0.22,-0.047 -0.363,-0.265 -0.316,-0.486 0.043,-0.193 0.213,-0.324 0.4,-0.324 0.03,0 0.059,0.003 0.086,0.009 1.588,0.34 3.225,0.599 4.807,0.85 2.189,0.347 4.453,0.705 6.564,1.279 0.219,0.06 0.348,0.285 0.29,0.503"
         style="fill:#3c3a3e;fill-opacity:1;fill-rule:nonzero;stroke:none;stroke-width:0.1"
         id="path292" />
      <path
         d="m 363.861,379.166 c 0.041,-0.192 0.211,-0.323 0.401,-0.323 0.029,0 0.058,0.003 0.088,0.009 l 0.992,0.213 c 0.711,0.154 1.418,0.307 2.125,0.458 0.219,0.048 0.363,0.266 0.314,0.487 -0.049,0.222 -0.267,0.361 -0.488,0.315 -0.705,-0.151 -1.414,-0.305 -2.123,-0.457 l -0.994,-0.215 c -0.221,-0.048 -0.362,-0.266 -0.315,-0.487"
         style="fill:#3c3a3e;fill-opacity:1;fill-rule:nonzero;stroke:none;stroke-width:0.1"
         id="path294" />
      <path
         d="m 407.303,387.954 c 0.218,0.059 0.347,0.285 0.287,0.503 -0.061,0.218 -0.283,0.348 -0.504,0.288 -0.857,-0.234 -1.801,-0.372 -2.799,-0.517 -1.459,-0.212 -2.967,-0.433 -4.445,-0.978 -0.213,-0.078 -0.321,-0.314 -0.244,-0.527 0.06,-0.165 0.218,-0.268 0.386,-0.268 0.045,0 0.092,0.008 0.141,0.026 1.398,0.515 2.863,0.728 4.281,0.936 1.024,0.149 1.99,0.291 2.897,0.537"
         style="fill:#3c3a3e;fill-opacity:1;fill-rule:nonzero;stroke:none;stroke-width:0.1"
         id="path296" />
      <path
         d="m 411.244,389.273 c 0.006,-0.221 0.188,-0.396 0.408,-0.396 0.006,0 0.01,0 0.014,0 2.174,0.075 4.23,0.693 6.219,1.293 1.369,0.412 2.662,0.801 3.97,1.019 0.225,0.036 0.375,0.247 0.34,0.47 -0.037,0.224 -0.252,0.373 -0.472,0.338 -1.362,-0.226 -2.741,-0.642 -4.075,-1.042 -1.939,-0.585 -3.945,-1.189 -6.009,-1.258 -0.225,-0.007 -0.405,-0.197 -0.395,-0.424"
         style="fill:#3c3a3e;fill-opacity:1;fill-rule:nonzero;stroke:none;stroke-width:0.1"
         id="path298" />
      <path
         d="m 372.109,420.318 c 0.043,-0.191 0.211,-0.322 0.401,-0.322 0.029,0 0.058,0.004 0.088,0.01 0.222,0.048 0.361,0.267 0.312,0.488 -0.228,1.043 -0.457,2.088 -0.678,3.135 -0.046,0.222 -0.265,0.365 -0.484,0.317 -0.221,-0.046 -0.363,-0.263 -0.316,-0.485 0.22,-1.05 0.449,-2.099 0.677,-3.143"
         style="fill:#3c3a3e;fill-opacity:1;fill-rule:nonzero;stroke:none;stroke-width:0.1"
         id="path300" />
      <path
         d="m 386.969,420.063 c 0.021,-0.003 0.047,-0.005 0.066,-0.005 0.199,0 0.371,0.141 0.404,0.341 0.19,1.12 0.385,2.239 0.588,3.361 0.039,0.223 -0.107,0.436 -0.332,0.476 -0.224,0.041 -0.433,-0.107 -0.476,-0.33 -0.203,-1.125 -0.397,-2.248 -0.586,-3.37 -0.039,-0.224 0.111,-0.435 0.336,-0.473"
         style="fill:#3c3a3e;fill-opacity:1;fill-rule:nonzero;stroke:none;stroke-width:0.1"
         id="path302" />
      <path
         d="m 419.066,375.881 c 0.664,-0.213 1.35,-0.43 2.123,-0.43 0.176,0 0.36,0.012 0.547,0.037 0.225,0.031 0.381,0.238 0.35,0.461 -0.029,0.226 -0.24,0.381 -0.461,0.351 -0.822,-0.113 -1.545,0.118 -2.311,0.362 -0.876,0.279 -1.781,0.568 -2.921,0.409 -0.223,-0.03 -0.381,-0.238 -0.35,-0.462 0.029,-0.224 0.24,-0.379 0.461,-0.35 0.957,0.135 1.736,-0.114 2.562,-0.378"
         style="fill:#3c3a3e;fill-opacity:1;fill-rule:nonzero;stroke:none;stroke-width:0.1"
         id="path304" />
      <path
         d="m 397.844,379.651 c -0.03,-0.224 0.127,-0.432 0.351,-0.462 0.748,-0.105 1.528,-0.23 2.395,-0.384 0.881,-0.134 1.808,-0.308 3.01,-0.561 0.523,-0.112 1.045,-0.226 1.564,-0.341 0.475,-0.104 0.947,-0.209 1.426,-0.31 1.205,-0.236 2.127,-0.394 2.988,-0.516 1.09,-0.153 2.049,-0.239 2.94,-0.264 0.002,0 0.005,0 0.009,0 0.223,0 0.405,0.177 0.411,0.399 0.005,0.226 -0.172,0.414 -0.399,0.421 -0.857,0.023 -1.789,0.107 -2.848,0.256 -0.845,0.119 -1.755,0.275 -2.937,0.507 -0.471,0.1 -0.941,0.205 -1.414,0.308 -0.522,0.114 -1.045,0.23 -1.572,0.341 -1.217,0.258 -2.157,0.432 -3.043,0.568 -0.87,0.155 -1.659,0.281 -2.416,0.387 -0.227,0.03 -0.432,-0.125 -0.465,-0.349"
         style="fill:#3c3a3e;fill-opacity:1;fill-rule:nonzero;stroke:none;stroke-width:0.1"
         id="path306" />
      <path
         d="m 347.709,388.453 c -0.051,-0.221 0.09,-0.44 0.311,-0.489 3.882,-0.861 8.115,-1.548 12.564,-2.039 0.893,-0.13 1.699,-0.29 2.465,-0.487 0.035,-0.009 0.07,-0.013 0.103,-0.013 0.184,0 0.348,0.122 0.397,0.308 0.056,0.22 -0.076,0.443 -0.297,0.499 -0.793,0.204 -1.627,0.369 -2.564,0.506 -4.434,0.491 -8.637,1.171 -12.493,2.026 -0.22,0.05 -0.439,-0.09 -0.486,-0.311"
         style="fill:#3c3a3e;fill-opacity:1;fill-rule:nonzero;stroke:none;stroke-width:0.1"
         id="path308" />
      <path
         d="m 341.793,389.166 c 0.775,-0.069 1.506,-0.136 2.125,-0.43 0.059,-0.027 0.117,-0.039 0.176,-0.039 0.154,0 0.301,0.086 0.371,0.233 0.096,0.205 0.01,0.449 -0.195,0.546 -0.752,0.357 -1.555,0.43 -2.405,0.505 -0.734,0.067 -1.494,0.136 -2.236,0.404 -0.215,0.076 -0.449,-0.034 -0.527,-0.247 -0.075,-0.214 0.035,-0.448 0.248,-0.525 0.841,-0.303 1.656,-0.375 2.443,-0.447"
         style="fill:#3c3a3e;fill-opacity:1;fill-rule:nonzero;stroke:none;stroke-width:0.1"
         id="path310" />
      <path
         d="m 353.494,362.92 c 0.156,0.164 0.152,0.423 -0.014,0.579 -0.162,0.157 -0.421,0.151 -0.578,-0.012 -1.252,-1.306 -2.668,-2.161 -4.168,-3.067 -0.714,-0.431 -1.451,-0.877 -2.175,-1.377 -0.188,-0.13 -0.235,-0.385 -0.104,-0.57 0.078,-0.116 0.205,-0.178 0.336,-0.178 0.08,0 0.16,0.024 0.232,0.072 0.706,0.488 1.432,0.926 2.133,1.351 1.483,0.893 3.012,1.818 4.338,3.202"
         style="fill:#3c3a3e;fill-opacity:1;fill-rule:nonzero;stroke:none;stroke-width:0.1"
         id="path312" />
      <path
         d="m 355.611,364.873 c 0.077,-0.064 0.168,-0.095 0.262,-0.095 0.117,0 0.234,0.051 0.315,0.149 0.634,0.768 1.435,1.224 2.283,1.706 0.816,0.466 1.664,0.948 2.379,1.736 0.152,0.168 0.138,0.426 -0.03,0.579 -0.168,0.152 -0.425,0.14 -0.58,-0.03 -0.625,-0.689 -1.377,-1.118 -2.176,-1.573 -0.875,-0.497 -1.777,-1.011 -2.507,-1.896 -0.145,-0.174 -0.119,-0.433 0.054,-0.576"
         style="fill:#3c3a3e;fill-opacity:1;fill-rule:nonzero;stroke:none;stroke-width:0.1"
         id="path314" />
      <path
         d="m 364.746,372.107 -1.664,-1.169 c -0.186,-0.131 -0.23,-0.386 -0.1,-0.572 0.081,-0.113 0.207,-0.174 0.336,-0.174 0.082,0 0.164,0.025 0.237,0.075 l 1.664,1.171 c 0.185,0.13 0.228,0.386 0.097,0.571 -0.13,0.185 -0.386,0.229 -0.57,0.098"
         style="fill:#3c3a3e;fill-opacity:1;fill-rule:nonzero;stroke:none;stroke-width:0.1"
         id="path316" />
      <path
         d="m 390.922,389.496 c 0.072,0 0.142,0.017 0.207,0.055 4.412,2.553 8.297,5.585 12.053,8.517 1.31,1.024 2.666,2.081 4.011,3.092 0.182,0.136 0.217,0.393 0.082,0.574 -0.134,0.182 -0.394,0.217 -0.572,0.082 -1.353,-1.016 -2.711,-2.076 -4.025,-3.101 -3.735,-2.915 -7.596,-5.93 -11.961,-8.455 -0.196,-0.113 -0.262,-0.364 -0.149,-0.56 0.077,-0.131 0.213,-0.204 0.354,-0.204"
         style="fill:#3c3a3e;fill-opacity:1;fill-rule:nonzero;stroke:none;stroke-width:0.1"
         id="path318" />
      <path
         d="m 410.313,404.214 c -0.124,-0.19 -0.069,-0.444 0.123,-0.566 0.066,-0.045 0.144,-0.066 0.222,-0.066 0.133,0 0.264,0.066 0.344,0.187 0.391,0.604 1.068,0.858 1.852,1.153 0.88,0.33 1.876,0.705 2.541,1.685 0.125,0.187 0.076,0.442 -0.112,0.569 -0.187,0.126 -0.441,0.078 -0.568,-0.11 -0.516,-0.763 -1.311,-1.061 -2.149,-1.377 -0.843,-0.316 -1.714,-0.644 -2.253,-1.475"
         style="fill:#3c3a3e;fill-opacity:1;fill-rule:nonzero;stroke:none;stroke-width:0.1"
         id="path320" />
      <path
         d="m 402.592,352.204 c -0.127,0.185 -0.383,0.232 -0.569,0.102 -0.187,-0.128 -0.232,-0.384 -0.103,-0.57 0.738,-1.068 1.484,-2.144 2.236,-3.226 0.08,-0.114 0.209,-0.177 0.336,-0.177 0.084,0 0.164,0.025 0.235,0.075 0.187,0.13 0.232,0.384 0.103,0.57 -0.752,1.082 -1.498,2.157 -2.238,3.226"
         style="fill:#3c3a3e;fill-opacity:1;fill-rule:nonzero;stroke:none;stroke-width:0.1"
         id="path322" />
      <path
         d="m 398.289,358.371 c -0.803,1.041 -1.631,2.117 -2.215,3.202 -0.107,0.198 -0.357,0.274 -0.554,0.167 -0.202,-0.109 -0.276,-0.356 -0.166,-0.556 0.615,-1.144 1.464,-2.247 2.287,-3.314 0.734,-0.954 1.496,-1.94 2.074,-2.939 0.074,-0.132 0.213,-0.205 0.353,-0.205 0.071,0 0.141,0.018 0.205,0.054 0.198,0.115 0.264,0.365 0.149,0.561 -0.606,1.046 -1.383,2.055 -2.133,3.03"
         style="fill:#3c3a3e;fill-opacity:1;fill-rule:nonzero;stroke:none;stroke-width:0.1"
         id="path324" />
      <path
         d="m 360.924,410.402 c 0.08,-0.113 0.207,-0.175 0.336,-0.175 0.082,0 0.162,0.024 0.234,0.074 0.186,0.129 0.231,0.385 0.104,0.57 -0.407,0.582 -0.813,1.167 -1.221,1.754 -0.129,0.186 -0.385,0.232 -0.57,0.102 -0.186,-0.128 -0.233,-0.383 -0.104,-0.569 0.408,-0.589 0.815,-1.173 1.221,-1.756"
         style="fill:#3c3a3e;fill-opacity:1;fill-rule:nonzero;stroke:none;stroke-width:0.1"
         id="path326" />
      <path
         d="m 358.086,414.488 c 0.078,-0.115 0.207,-0.176 0.336,-0.176 0.082,0 0.162,0.023 0.234,0.072 0.186,0.13 0.231,0.386 0.104,0.571 -0.424,0.608 -0.848,1.221 -1.274,1.838 -0.127,0.187 -0.382,0.234 -0.57,0.105 -0.186,-0.127 -0.232,-0.384 -0.103,-0.569 0.425,-0.619 0.849,-1.233 1.273,-1.841"
         style="fill:#3c3a3e;fill-opacity:1;fill-rule:nonzero;stroke:none;stroke-width:0.1"
         id="path328" />
      <path
         d="m 382.016,370.246 c 0.048,0.508 0.166,1.092 0.353,1.742 0.024,0.081 0.058,0.172 0.083,0.256 5.924,-0.212 10.272,-1.405 11.204,-2.568 0.18,-0.224 0.151,-0.356 0.139,-0.405 -0.1,-0.453 -0.707,-0.964 -1.764,-1.444 0.002,-0.005 0.004,-0.009 0.006,-0.014 -0.848,-0.302 -1.697,-0.586 -2.572,-0.797 -1.061,-0.258 -2.127,-0.456 -3.207,-0.623 -1.768,-0.274 -3.555,-0.338 -5.34,-0.379 1.74,0.135 3.486,0.284 5.197,0.644 1.069,0.225 2.123,0.472 3.168,0.789 0.648,0.198 1.277,0.436 1.903,0.686 -2.138,0.752 -5.486,1.277 -9.205,1.383 -0.002,0.223 0.007,0.464 0.035,0.73 z m -10.852,11.331 c -1.014,1.634 -2.141,3.45 -4.148,4.603 2.277,0.586 4.222,0.87 5.914,0.87 5.001,0 7.925,-2.576 8.923,-7.849 -0.116,0.065 -0.233,0.126 -0.347,0.194 -0.51,0.31 -0.988,0.666 -1.463,1.024 -1.016,0.769 -1.938,1.659 -2.924,2.464 -0.955,0.781 -2.017,1.453 -3.18,1.881 -0.96,0.353 -1.951,0.489 -2.964,0.581 0.998,-0.243 2.013,-0.493 2.92,-0.997 0.556,-0.31 1.085,-0.637 1.584,-1.035 0.511,-0.409 0.994,-0.847 1.459,-1.308 0.916,-0.904 1.771,-1.866 2.765,-2.686 0.476,-0.393 0.993,-0.719 1.529,-1.012 -1.711,-0.598 -3.165,-0.909 -4.384,-0.909 -3.088,0 -4.291,1.938 -5.684,4.179 z m 15.375,-35.573 1.283,9.125 -2.335,-9.454 0.587,6.146 -1.578,-6.431 c -1.061,-0.192 -2.36,-0.325 -3.9,-0.325 -4.448,0 -6.92,1.024 -7.067,1.602 0,0.006 -0.002,0.012 -0.004,0.018 l -0.176,0.764 c 0.036,-0.019 0.072,-0.042 0.108,-0.06 0.709,-0.357 1.481,-0.591 2.256,-0.759 1.42,-0.309 2.873,-0.379 4.322,-0.309 -1.347,0.1 -2.687,0.319 -3.971,0.748 -0.703,0.233 -1.398,0.523 -2.029,0.914 -0.404,0.246 -0.943,0.585 -1.056,1.077 -10e-4,0 -10e-4,-10e-4 -0.002,-10e-4 l -2.889,12.497 c 1.437,-0.443 2.928,-0.596 4.439,-0.672 -1.708,0.417 -3.392,0.902 -4.872,1.879 -0.003,0.001 -0.004,0.005 -0.007,0.007 -0.619,0.369 -0.986,0.776 -1.089,1.201 l -0.75,3.418 c 2.471,-1.56 7.737,-2.37 12.787,-2.37 4.469,0 9.11,0.635 11.834,1.863 -0.106,-0.079 -0.212,-0.157 -0.319,-0.228 -0.703,-0.465 -1.488,-0.811 -2.277,-1.102 -1.383,-0.511 -2.818,-0.851 -4.264,-1.125 1.659,0.133 3.325,0.35 4.93,0.811 0.462,0.133 0.968,0.297 1.461,0.503 -0.306,-0.201 -0.623,-0.386 -0.953,-0.546 -1.026,-0.497 -2.119,-0.85 -3.221,-1.138 -0.498,-0.129 -0.998,-0.243 -1.5,-0.345 -0.232,-0.048 -0.465,-0.091 -0.697,-0.133 -0.09,-0.015 -0.182,-0.031 -0.268,-0.048 -0.019,-0.004 -0.154,-0.047 -0.166,-0.044 0.096,-0.039 0.297,0.016 0.393,0.023 0.201,0.015 0.4,0.031 0.601,0.051 0.418,0.037 0.84,0.084 1.258,0.141 0.946,0.128 1.887,0.303 2.809,0.557 0.481,0.133 1.019,0.301 1.547,0.516 -0.371,-0.236 -0.758,-0.445 -1.157,-0.623 -1.044,-0.471 -2.148,-0.806 -3.259,-1.075 -0.502,-0.121 -1.004,-0.229 -1.51,-0.322 -0.246,-0.046 -0.494,-0.09 -0.74,-0.13 -0.106,-0.017 -0.373,-0.007 -0.463,-0.078 0.039,0.032 0.306,0.003 0.375,0.007 0.211,0.013 0.418,0.028 0.625,0.044 0.447,0.035 0.894,0.078 1.338,0.132 0.97,0.12 1.939,0.288 2.888,0.533 0.622,0.161 1.243,0.358 1.837,0.616 -0.096,-0.061 -0.194,-0.125 -0.29,-0.181 -0.828,-0.482 -1.738,-0.827 -2.652,-1.114 -1.543,-0.48 -3.133,-0.777 -4.733,-0.998 1.811,0.072 3.623,0.241 5.389,0.662 0.678,0.161 1.356,0.361 2.003,0.629 -1.608,-0.916 -3.461,-1.374 -5.261,-1.719 -1.836,-0.35 -3.695,-0.517 -5.558,-0.618 1.959,-0.069 3.906,-0.037 5.861,0.149 1.088,0.104 2.182,0.282 3.244,0.545 0.481,0.121 0.957,0.26 1.426,0.429 l -3.441,-14.895 2.142,13.167 z m -8.333,57.215 c 0.016,0.01 0.031,0.019 0.047,0.029 l 4.513,-5.796 -3.87,6.21 c 0.039,0.028 0.072,0.061 0.11,0.09 2.15,-1.252 5.548,-3.472 7.205,-5.845 0.482,-0.692 0.394,-2.277 -1.334,-3.482 -0.699,-0.489 -1.434,-0.749 -2.117,-0.749 -0.83,0 -1.385,0.376 -1.612,0.697 -1.537,2.204 -2.433,5.776 -2.901,8.238 -0.017,0.213 -0.03,0.416 -0.041,0.608 z m -0.98,-0.519 c -0.019,0.011 -0.037,0.02 -0.055,0.03 0.017,0.006 0.034,0.015 0.051,0.021 0.001,-0.017 0.003,-0.034 0.004,-0.051 z m 9.842,-2.821 c -1.772,1.862 -4.776,3.586 -7.022,4.613 1.08,0.18 2.156,0.106 3.233,-0.11 1.125,-0.225 2.233,-0.611 3.227,-1.185 -0.985,0.728 -2.104,1.243 -3.268,1.618 -0.904,0.29 -1.827,0.462 -2.766,0.474 0.121,0.178 0.249,0.355 0.346,0.538 1.001,0.236 2.146,0.411 3.325,0.411 2.195,0 3.974,-0.599 5.291,-1.778 0.009,-0.01 0.021,-0.02 0.033,-0.028 0.484,-0.365 0.863,-1.087 0.969,-1.839 0.072,-0.541 0.037,-1.339 -0.534,-2.08 -0.502,-0.652 -1.084,-0.984 -1.728,-0.984 -0.389,0 -0.791,0.128 -1.106,0.35 z m -6.947,9.129 c -0.744,0.618 -1.588,0.897 -2.56,0.836 -0.829,-0.053 -1.682,-0.354 -2.373,-0.821 -0.838,-0.567 -1.559,-1.287 -1.973,-2.225 -0.389,-0.883 -0.41,-1.77 -0.086,-2.672 -2.318,3.817 4.207,8.362 6.992,4.882 z m 8.912,1.633 c 0.01,-0.003 0.024,-0.003 0.035,-0.005 0.813,-0.063 1.727,-0.55 2.27,-1.214 0.396,-0.485 0.566,-1.01 0.5,-1.558 -0.213,-1.723 -1.899,-1.809 -2.234,-1.809 -0.053,0 -0.104,10e-4 -0.153,0.005 -0.222,0.047 -0.467,0.086 -0.705,0.126 -1.288,0.71 -2.827,1.074 -4.603,1.074 -1.038,0 -2.021,-0.124 -2.891,-0.295 0.043,0.168 0.092,0.336 0.115,0.503 0.022,-0.045 0.043,-0.09 0.065,-0.135 1.033,0.568 2.084,1.019 3.224,1.337 0.643,0.141 1.287,0.289 1.948,0.316 0.527,0.022 1.037,0.008 1.568,-0.027 -0.531,0.096 -1.045,0.17 -1.582,0.208 -0.682,0.049 -1.412,0.002 -2.088,-0.109 -1.08,-0.176 -2.097,-0.484 -3.108,-0.876 -0.006,0.139 -0.025,0.273 -0.046,0.407 1.743,1.154 3.967,2.147 6.394,2.147 0.432,0 0.865,-0.032 1.291,-0.095 z m 1.104,3.65 c 0.224,-1.318 -0.829,-2.219 -1.557,-2.595 -0.279,0.024 -0.558,0.061 -0.838,0.061 -2.279,0 -4.446,-0.828 -6.255,-1.894 1.677,1.791 3.789,3.125 6.22,3.614 -2.643,-0.254 -5.022,-1.503 -6.967,-3.264 1.48,2.042 3.594,4.156 6.289,5.081 0.012,0.004 0.022,0.008 0.032,0.012 0.349,0.147 0.767,0.226 1.181,0.226 0.395,0 1.696,-0.089 1.895,-1.241 z m -7.817,3.344 c 0.01,0.008 0.02,0.015 0.028,0.022 0.531,0.441 1.369,0.726 2.132,0.726 0.541,0 1.288,-0.137 1.786,-0.791 0.347,-0.46 0.456,-0.916 0.424,-1.334 -0.002,-10e-4 -0.005,-0.002 -0.008,-0.003 -2.916,-1.005 -5.203,-3.284 -6.802,-5.509 -0.108,0.064 -0.204,0.14 -0.319,0.193 0.285,0.784 0.626,1.538 1.048,2.275 0.358,0.55 0.715,1.11 1.164,1.591 0.364,0.386 0.737,0.733 1.139,1.081 -0.445,-0.304 -0.863,-0.613 -1.273,-0.962 -0.522,-0.442 -1.008,-0.987 -1.41,-1.54 -0.521,-0.71 -0.958,-1.447 -1.342,-2.224 -0.184,0.045 -0.379,0.067 -0.576,0.088 0.573,2.284 1.743,4.766 4.009,6.387 z m -6.613,-0.171 c 0.428,0.928 1.748,1.921 3.037,1.921 0.289,0 0.57,-0.051 0.834,-0.149 0.584,-0.217 0.973,-0.554 1.158,-0.999 0.063,-0.149 0.093,-0.315 0.11,-0.485 -1.991,-1.807 -3.048,-4.25 -3.575,-6.5 -0.259,-0.026 -0.516,-0.07 -0.776,-0.133 -0.023,0.829 0.011,1.662 0.183,2.475 0.131,0.618 0.261,1.244 0.498,1.831 0.199,0.491 0.424,0.951 0.672,1.418 -0.307,-0.443 -0.586,-0.882 -0.842,-1.354 -0.326,-0.603 -0.584,-1.286 -0.764,-1.946 -0.233,-0.875 -0.379,-1.745 -0.456,-2.634 -0.214,-0.079 -0.427,-0.165 -0.636,-0.267 -0.586,2.078 -0.715,4.54 0.538,6.788 0.005,0.011 0.013,0.023 0.019,0.034 z m -2.568,-1.316 c 0.234,-0.336 0.455,-0.703 0.665,-1.09 -0.236,-1.447 -0.108,-2.852 0.189,-4.105 l -2.616,3.18 2.096,-3.574 c -1.213,0.802 -2.701,1.498 -4.412,1.71 -0.181,0.221 -0.373,0.441 -0.528,0.664 -0.508,0.725 -0.508,2.248 1.08,3.356 0.606,0.421 1.219,0.634 1.83,0.634 0.852,0 1.448,-0.418 1.696,-0.775 z m -6.344,-4.925 c 0.398,0.062 0.799,0.094 1.197,0.094 2.081,0 3.915,-0.848 5.377,-1.908 -0.204,-0.194 -0.38,-0.403 -0.552,-0.612 -0.898,0.247 -1.803,0.419 -2.743,0.498 -0.697,0.021 -1.392,0.04 -2.086,-0.061 -0.508,-0.076 -0.992,-0.186 -1.49,-0.313 0.551,0.077 1.088,0.126 1.643,0.144 0.627,0.03 1.265,-0.088 1.884,-0.177 0.815,-0.164 1.586,-0.419 2.35,-0.714 -0.12,-0.189 -0.23,-0.378 -0.324,-0.572 -0.613,0.075 -1.26,0.125 -1.938,0.125 -2.029,0 -3.837,-0.42 -5.398,-1.238 -0.482,0.224 -0.949,0.693 -0.955,1.704 -0.008,1.674 1.799,2.93 2.998,3.025 0.012,10e-4 0.025,0.003 0.037,0.005 z m -3.799,-9.874 c -0.299,0.466 -0.375,1.01 -0.228,1.62 0.201,0.834 0.812,1.67 1.519,2.081 0.01,0.006 0.02,0.013 0.031,0.019 1.592,1.085 3.541,1.636 5.795,1.636 0.547,0 1.075,-0.035 1.583,-0.09 -0.044,-0.179 -0.094,-0.358 -0.115,-0.536 -0.875,-0.095 -1.732,-0.256 -2.591,-0.508 -0.656,-0.232 -1.312,-0.465 -1.922,-0.808 -0.445,-0.252 -0.861,-0.53 -1.277,-0.831 0.486,0.272 0.967,0.512 1.48,0.729 0.573,0.252 1.213,0.374 1.819,0.513 0.831,0.144 1.649,0.202 2.477,0.2 0.01,-0.138 0.04,-0.268 0.066,-0.401 -2.629,-0.731 -5.574,-2.083 -7.526,-4.473 -0.002,-0.002 -0.003,-0.004 -0.003,-0.006 -0.447,0.124 -0.819,0.407 -1.108,0.855 z m 1.098,-3.779 c -0.108,0.713 0.209,1.635 0.775,2.246 0.008,0.008 0.014,0.016 0.022,0.026 1.718,2.114 4.298,3.353 6.671,4.056 -2.076,-1.208 -3.831,-2.91 -4.882,-5.098 1.248,2.036 3.128,3.524 5.283,4.485 -1.967,-1.476 -3.879,-3.607 -4.64,-6.456 -0.428,-0.29 -0.964,-0.528 -1.534,-0.528 -0.361,0 -0.705,0.094 -1.027,0.278 -0.375,0.217 -0.6,0.55 -0.668,0.991 z m 6.254,-5.142 c -0.17,0 -0.348,0.022 -0.532,0.066 -0.537,0.126 -0.97,0.463 -1.289,1.005 -0.433,0.739 -0.578,1.764 -0.357,2.55 0.004,0.011 0.008,0.023 0.008,0.034 0.636,3.087 2.849,5.336 4.943,6.789 0.105,-0.061 0.2,-0.13 0.313,-0.179 -0.713,-0.783 -1.358,-1.598 -1.901,-2.518 -0.308,-0.595 -0.627,-1.194 -0.828,-1.835 -0.162,-0.513 -0.283,-1.021 -0.389,-1.547 0.172,0.529 0.358,1.034 0.584,1.541 0.246,0.576 0.631,1.104 0.979,1.62 0.704,0.93 1.503,1.732 2.396,2.476 0.1,-0.019 0.21,-0.018 0.315,-0.031 -1.043,-1.682 -2.242,-4.259 -2.007,-6.964 -0.1,-0.447 -0.187,-0.892 -0.247,-1.324 -0.199,-0.641 -0.82,-1.683 -1.988,-1.683 z m 7.222,-0.524 c -0.261,-0.082 -0.531,-0.124 -0.797,-0.124 -1.294,0 -2.457,0.974 -2.73,1.885 -0.004,0.014 -0.008,0.028 -0.016,0.042 -1.219,3.062 0.276,6.45 1.777,8.692 0.167,0.021 0.334,0.047 0.502,0.082 -0.358,-0.952 -0.534,-1.95 -0.568,-2.976 -0.064,-1.189 0.059,-2.408 0.395,-3.55 -0.199,1.153 -0.184,2.359 0.012,3.512 0.167,1.119 0.497,2.192 1.085,3.161 0.181,-2.472 0.761,-5.946 1.915,-8.28 0.181,-0.686 0.048,-1.934 -1.575,-2.444 z m 14.735,-6.911 c 0.879,-0.18 1.787,-0.37 2.752,-0.37 0.521,0 1.015,0.056 1.49,0.17 -2.106,-3.673 -4.248,-5.395 -6.682,-5.395 -1.197,0 -2.502,0.455 -3.875,1.307 0.56,0.238 1.119,0.479 1.707,0.642 1.041,0.292 2.11,0.247 3.172,0.385 0.871,0.114 1.635,0.438 2.399,0.862 -0.639,-0.219 -1.256,-0.389 -1.93,-0.449 -0.797,-0.044 -1.588,0.085 -2.385,0.109 -1.015,0.028 -2.086,-0.127 -3.076,-0.462 1.48,3.064 2.935,3.518 4.187,3.518 0.706,0 1.452,-0.154 2.241,-0.317 z m 1.326,-21.241 0.287,1.308 c 0.002,0.007 0.008,0.013 0.01,0.02 -0.002,0.001 -0.003,0.002 -0.005,0.002 l 0.872,3.97 c 0.066,0.302 0.059,0.766 -0.344,1.264 -1.373,1.713 -6.572,2.712 -11.659,2.938 0.104,0.284 0.208,0.569 0.327,0.871 0.305,0.773 0.652,1.6 0.994,2.481 0.338,0.885 0.678,1.82 0.951,2.804 0.051,0.185 0.089,0.378 0.136,0.566 1.633,-1.06 3.198,-1.601 4.665,-1.601 4.08,0 6.653,4.068 8.231,7.127 0.101,0.197 0.064,0.437 -0.092,0.594 -0.154,0.158 -0.397,0.197 -0.594,0.097 -0.726,-0.368 -1.494,-0.546 -2.353,-0.546 -0.86,0 -1.715,0.176 -2.547,0.348 -0.803,0.164 -1.635,0.337 -2.446,0.337 -1.764,0 -3.128,-0.836 -4.314,-2.671 0.006,0.124 0.023,0.246 0.025,0.371 l 0.008,0.368 c 0,0.125 -0.004,0.264 -0.004,0.393 0,0.267 -0.013,0.525 -0.025,0.78 -0.055,1.022 -0.199,2.024 -0.406,2.972 -0.353,1.621 -0.905,3.057 -1.44,4.292 0.527,0.154 1.051,0.398 1.555,0.75 2.324,1.62 2.326,3.844 1.588,4.905 -0.091,0.131 -0.197,0.258 -0.297,0.387 0.432,-0.236 0.93,-0.372 1.42,-0.372 0.672,0 1.658,0.239 2.541,1.382 0.613,0.797 0.873,1.806 0.732,2.841 -0.128,0.94 -0.586,1.813 -1.201,2.362 1.184,0.198 2.4,0.96 2.606,2.65 0.099,0.823 -0.153,1.629 -0.723,2.329 -0.529,0.644 -1.301,1.147 -2.105,1.405 0.787,0.729 1.326,1.77 1.119,2.987 -0.217,1.271 -1.358,2.092 -2.901,2.092 -0.181,0 -0.357,-0.028 -0.535,-0.05 -0.021,0.562 -0.203,1.143 -0.629,1.706 -0.582,0.77 -1.506,1.195 -2.598,1.195 -0.988,0 -2.04,-0.361 -2.754,-0.939 -0.018,0.053 -0.025,0.111 -0.046,0.162 -0.293,0.707 -0.895,1.25 -1.744,1.565 -0.379,0.142 -0.782,0.213 -1.192,0.213 -1.75,0 -3.379,-1.266 -3.959,-2.496 -0.266,-0.481 -0.469,-0.966 -0.633,-1.45 -0.058,0.09 -0.113,0.187 -0.173,0.273 -0.524,0.747 -1.495,1.212 -2.536,1.212 -0.81,0 -1.646,-0.283 -2.414,-0.817 -2.166,-1.513 -2.084,-3.706 -1.336,-4.782 0.007,-0.009 0.016,-0.019 0.023,-0.029 -0.354,-0.012 -0.71,-0.028 -1.06,-0.082 -1.65,-0.144 -3.929,-1.745 -3.92,-4.048 0.006,-1.059 0.413,-1.803 1,-2.279 -0.929,-0.556 -1.697,-1.609 -1.959,-2.699 -0.214,-0.879 -0.089,-1.713 0.36,-2.413 0.406,-0.633 0.897,-0.986 1.379,-1.183 -0.361,-0.705 -0.538,-1.501 -0.432,-2.197 0.113,-0.754 0.518,-1.35 1.168,-1.725 0.478,-0.274 0.996,-0.413 1.537,-0.413 0.447,0 0.876,0.096 1.269,0.249 -0.054,-0.869 0.151,-1.805 0.588,-2.548 0.458,-0.778 1.129,-1.291 1.938,-1.482 0.258,-0.061 0.516,-0.093 0.764,-0.093 1.32,0 2.269,0.872 2.751,1.874 0.421,-1.229 1.912,-2.522 3.674,-2.522 0.372,0 0.743,0.058 1.104,0.171 1.727,0.544 2.38,1.82 2.344,3.002 0.03,-0.046 0.058,-0.097 0.09,-0.142 0.391,-0.562 1.079,-0.94 1.861,-1.072 0.526,-1.327 1.067,-2.852 1.357,-4.532 0.147,-0.863 0.242,-1.764 0.244,-2.68 0.004,-0.23 0.004,-0.459 -0.003,-0.681 -0.006,-0.113 -0.006,-0.218 -0.014,-0.34 l -0.022,-0.366 c -0.029,-0.453 -0.088,-0.916 -0.156,-1.37 -0.146,-0.911 -0.383,-1.808 -0.668,-2.681 -0.037,-0.112 -0.082,-0.22 -0.121,-0.331 -1.16,5.529 -4.467,8.338 -9.859,8.338 -2.114,0 -4.582,-0.419 -7.543,-1.279 -0.211,-0.062 -0.362,-0.253 -0.367,-0.476 -0.008,-0.221 0.128,-0.422 0.337,-0.496 2.534,-0.908 3.754,-2.878 4.94,-4.784 1.422,-2.292 2.894,-4.66 6.551,-4.661 1.408,0 3.073,0.367 5.03,1.076 -0.358,-0.801 -0.728,-1.583 -1.073,-2.348 -0.276,-0.61 -0.523,-1.213 -0.745,-1.808 -10e-4,0 -0.002,0 -0.003,0 -0.354,-1.017 -0.629,-2.057 -0.748,-3.131 -0.069,-0.652 -0.121,-1.301 -0.116,-1.961 0.006,-0.519 0.049,-1.032 0.092,-1.552 -0.107,0.518 -0.213,1.03 -0.281,1.554 -0.059,0.434 -0.084,0.866 -0.102,1.3 -3.748,-0.132 -7.085,-0.689 -9.149,-1.47 0.281,0.152 0.572,0.285 0.872,0.407 0.84,0.34 1.721,0.592 2.602,0.803 1.541,0.371 3.103,0.612 4.679,0.804 -1.672,-0.033 -3.353,-0.102 -5.006,-0.36 -1.239,-0.18 -2.6,-0.403 -3.765,-0.96 0.295,0.165 0.606,0.304 0.881,0.419 0.9,0.379 1.847,0.654 2.797,0.881 1.673,0.403 3.378,0.657 5.089,0.842 -1.865,-0.027 -3.728,-0.128 -5.572,-0.421 -0.994,-0.157 -1.99,-0.362 -2.939,-0.698 -0.24,-0.084 -0.479,-0.184 -0.713,-0.295 0.28,0.16 0.569,0.305 0.867,0.429 0.978,0.409 2.008,0.696 3.039,0.937 1.773,0.414 3.578,0.666 5.387,0.849 -1.991,-0.024 -3.983,-0.133 -5.951,-0.445 -1.077,-0.172 -2.157,-0.395 -3.184,-0.77 -0.251,-0.092 -0.505,-0.201 -0.753,-0.323 1.595,1.021 5.666,1.96 10.95,2.118 0.05,0.344 0.112,0.686 0.182,1.027 -5.335,-0.15 -11.027,-1.16 -12.477,-2.965 -0.402,-0.498 -0.406,-0.962 -0.34,-1.264 l 1.165,-5.309 c 0.16,-0.661 0.619,-1.243 1.373,-1.734 l 3.595,-15.563 c 0.379,-1.66 4.323,-2.404 8.065,-2.404 3.611,0 7.674,0.751 8.064,2.401 l 3.639,15.757 c 0.756,0.468 1.203,0.99 1.332,1.552"
         style="fill:#3c3a3e;fill-opacity:1;fill-rule:nonzero;stroke:none;stroke-width:0.1"
         id="path330" />
    </g>
  </g>
</svg>
