<?xml version="1.0" encoding="UTF-8" standalone="no"?>
<!-- Created with Inkscape (http://www.inkscape.org/) -->

<svg
   width="120.17303mm"
   height="116.7456mm"
   viewBox="0 0 120.17303 116.7456"
   version="1.1"
   id="svg1876"
   inkscape:version="1.1 (c4e8f9ed74, 2021-05-24)"
   sodipodi:docname="drk.svg"
   xmlns:inkscape="http://www.inkscape.org/namespaces/inkscape"
   xmlns:sodipodi="http://sodipodi.sourceforge.net/DTD/sodipodi-0.dtd"
   xmlns="http://www.w3.org/2000/svg"
   xmlns:svg="http://www.w3.org/2000/svg">
  <sodipodi:namedview
     id="namedview1878"
     pagecolor="#ffffff"
     bordercolor="#666666"
     borderopacity="1.0"
     inkscape:pageshadow="2"
     inkscape:pageopacity="0.0"
     inkscape:pagecheckerboard="0"
     inkscape:document-units="mm"
     showgrid="false"
     inkscape:zoom="0.5"
     inkscape:cx="227"
     inkscape:cy="221"
     inkscape:window-width="1920"
     inkscape:window-height="1020"
     inkscape:window-x="0"
     inkscape:window-y="32"
     inkscape:window-maximized="1"
     inkscape:current-layer="layer1" />
  <defs
     id="defs1873" />
  <g
     inkscape:label="Layer 1"
     inkscape:groupmode="layer"
     id="layer1"
     transform="translate(-101.59068,-74.146963)">
    <g
       id="g1992"
       transform="matrix(1.0142795,0,0,-1.0142795,86.409993,520.4127)">
      <path
         d="m 74.7016,346.819 c 0.0019,0.24 -0.1895,0.436 -0.4297,0.437 H 74.268 c -0.2371,0 -0.4305,-0.191 -0.4336,-0.428 -0.0391,-4.193 -0.0547,-8.484 -0.0528,-12.749 0.2551,0.106 0.545,0.167 0.8672,0.18 -0.0019,4.203 0.0157,8.43 0.0528,12.56"
         style="fill:#3c3a3e;fill-opacity:1;fill-rule:nonzero;stroke:none;stroke-width:0.1"
         id="path24" />
      <path
         d="m 73.7934,331.837 c 0.0097,-2.203 0.0234,-4.387 0.0441,-6.527 8e-4,-0.238 0.1961,-0.429 0.4344,-0.429 h 0.0031 c 0.2391,0.002 0.4316,0.198 0.4297,0.437 -0.0207,2.08 -0.0344,4.203 -0.0442,6.341 -0.3222,0.012 -0.6113,0.074 -0.8671,0.178"
         style="fill:#3c3a3e;fill-opacity:1;fill-rule:nonzero;stroke:none;stroke-width:0.1"
         id="path26" />
      <path
         d="m 74.2348,349.143 c 0.0019,0 0.007,0 0.0078,0 0.2402,0.005 0.4297,0.202 0.4258,0.441 -0.0547,2.769 -0.0469,5.589 -0.0391,8.315 v 0.62 c 0,0.239 -0.1934,0.434 -0.4324,0.434 0,0 0,0 -0.0012,0 -0.2383,0 -0.4336,-0.193 -0.4336,-0.432 L 73.7602,357.9 c -0.0059,-2.73 -0.0118,-5.554 0.041,-8.331 0.0039,-0.238 0.1992,-0.426 0.4336,-0.426"
         style="fill:#3c3a3e;fill-opacity:1;fill-rule:nonzero;stroke:none;stroke-width:0.1"
         id="path28" />
      <path
         d="m 74.143,416.396 c 0.1133,0 0.2129,-0.019 0.3183,-0.032 -0.1679,4.025 -0.3172,8.165 -0.0078,12.233 0.0195,0.239 -0.1601,0.446 -0.3984,0.465 -0.2449,0.019 -0.4461,-0.161 -0.4649,-0.398 -0.3144,-4.113 -0.164,-8.276 0.0051,-12.322 0.1707,0.034 0.3524,0.054 0.5477,0.054"
         style="fill:#3c3a3e;fill-opacity:1;fill-rule:nonzero;stroke:none;stroke-width:0.1"
         id="path30" />
      <path
         d="m 73.7797,412.432 c 0.0508,-1.7 0.0773,-3.407 0.0449,-5.098 -0.0047,-0.24 0.1856,-0.438 0.4238,-0.443 h 0.009 c 0.2364,0 0.4285,0.19 0.4336,0.425 0.032,1.706 0.0059,3.423 -0.0441,5.13 -0.1602,-0.03 -0.3242,-0.05 -0.5039,-0.05 -0.1289,0 -0.2442,0.02 -0.3633,0.036"
         style="fill:#3c3a3e;fill-opacity:1;fill-rule:nonzero;stroke:none;stroke-width:0.1"
         id="path32" />
      <path
         d="m 74.0492,430.365 c 0.0059,0 0.0137,0 0.0196,0 0.2304,0 0.4218,0.181 0.4335,0.414 0.1172,2.51 0.127,5.34 0.136,8.079 l 8e-4,0.69 c 0,0.239 -0.1914,0.434 -0.4317,0.435 -8e-4,0 -8e-4,0 -8e-4,0 -0.2394,0 -0.4336,-0.194 -0.4347,-0.432 l -0.002,-0.69 c -0.0078,-2.729 -0.0176,-5.55 -0.1347,-8.042 -0.0106,-0.239 0.1738,-0.442 0.414,-0.454"
         style="fill:#3c3a3e;fill-opacity:1;fill-rule:nonzero;stroke:none;stroke-width:0.1"
         id="path34" />
      <path
         d="m 133,382.175 c -4.287,-0.121 -8.214,-0.123 -12.739,-0.009 -0.005,0 -0.008,0 -0.011,0 -0.236,0 -0.428,-0.186 -0.435,-0.423 -0.005,-0.237 0.185,-0.437 0.422,-0.444 2.213,-0.055 4.283,-0.083 6.32,-0.083 2.149,0 4.261,0.031 6.469,0.092 0.238,0.008 0.428,0.207 0.422,0.446 -0.008,0.24 -0.211,0.42 -0.448,0.421"
         style="fill:#3c3a3e;fill-opacity:1;fill-rule:nonzero;stroke:none;stroke-width:0.1"
         id="path36" />
      <path
         d="m 118.182,381.754 c -0.008,0.236 -0.2,0.42 -0.433,0.42 -0.006,0 -0.01,0 -0.014,0 -0.919,-0.029 -1.805,-0.053 -2.674,-0.066 -3.004,-0.063 -5.234,-0.04 -7.701,0.081 -0.237,0.018 -0.441,-0.173 -0.453,-0.412 -0.012,-0.24 0.172,-0.443 0.412,-0.454 1.603,-0.078 3.106,-0.116 4.781,-0.116 0.924,0 1.901,0.011 2.977,0.033 0.873,0.015 1.761,0.038 2.685,0.068 0.239,0.008 0.426,0.208 0.42,0.446"
         style="fill:#3c3a3e;fill-opacity:1;fill-rule:nonzero;stroke:none;stroke-width:0.1"
         id="path38" />
      <path
         d="m 94.525,382.115 c -0.2375,0 -0.4297,-0.19 -0.4348,-0.426 -0.0039,-0.24 0.1875,-0.438 0.4258,-0.442 1.0332,-0.019 2.0703,-0.029 3.125,-0.029 1.9258,0 3.9,0.032 5.969,0.095 0.239,0.009 0.428,0.208 0.42,0.448 -0.008,0.239 -0.203,0.413 -0.447,0.421 -3.186,-0.099 -6.1459,-0.122 -9.0514,-0.067 -0.0019,0 -0.0046,0 -0.0066,0"
         style="fill:#3c3a3e;fill-opacity:1;fill-rule:nonzero;stroke:none;stroke-width:0.1"
         id="path40" />
      <path
         d="m 30.7262,381.247 c 0.2383,0 0.4324,0.194 0.4324,0.434 0.0019,0.239 -0.1914,0.433 -0.4305,0.434 l -1.7961,0.005 c 0,0 -7e-4,0 -0.0019,0 -0.2383,0 -0.4317,-0.192 -0.4336,-0.431 0,-0.24 0.1933,-0.435 0.4336,-0.435 l 1.7949,-0.007 c 0,0 0,0 0.0012,0"
         style="fill:#3c3a3e;fill-opacity:1;fill-rule:nonzero;stroke:none;stroke-width:0.1"
         id="path42" />
      <path
         d="m 26.7133,382.127 c -4.1707,-0.08 -7.6543,-0.065 -11.2996,0.048 -0.252,0 -0.4395,-0.181 -0.4465,-0.419 -0.0078,-0.24 0.1797,-0.439 0.4199,-0.447 2.1301,-0.065 4.207,-0.1 6.3965,-0.1 1.5703,0 3.1992,0.018 4.9453,0.051 0.2402,0.004 0.4316,0.203 0.4258,0.442 -0.0039,0.239 -0.1953,0.415 -0.4414,0.425"
         style="fill:#3c3a3e;fill-opacity:1;fill-rule:nonzero;stroke:none;stroke-width:0.1"
         id="path44" />
      <path
         d="m 38.2738,346.143 c -1.4804,-1.11 -2.6543,-2.328 -3.8992,-3.614 -0.6496,-0.672 -1.3215,-1.366 -2.048,-2.054 -0.1739,-0.164 -0.1836,-0.439 -0.0176,-0.613 0.0851,-0.091 0.2004,-0.136 0.3156,-0.136 0.1074,0 0.2137,0.04 0.2977,0.12 0.7402,0.7 1.4179,1.402 2.0742,2.081 1.2207,1.262 2.373,2.454 3.7969,3.522 0.1914,0.144 0.2304,0.416 0.0859,0.608 -0.1426,0.191 -0.4141,0.23 -0.6055,0.086"
         style="fill:#3c3a3e;fill-opacity:1;fill-rule:nonzero;stroke:none;stroke-width:0.1"
         id="path46" />
      <path
         d="m 53.8785,360.75 c -0.1672,0.172 -0.4406,0.176 -0.6125,0.01 -1.5418,-1.488 -3.0156,-3.083 -4.4394,-4.628 -2.5,-2.708 -5.0848,-5.509 -8.1239,-7.814 -0.1925,-0.145 -0.2285,-0.417 -0.0851,-0.609 0.0859,-0.111 0.2148,-0.17 0.3469,-0.17 0.0906,0 0.1824,0.028 0.2605,0.087 3.1016,2.353 5.7148,5.182 8.2383,7.917 1.416,1.535 2.8808,3.123 4.4043,4.593 0.1719,0.167 0.1777,0.44 0.0109,0.614"
         style="fill:#3c3a3e;fill-opacity:1;fill-rule:nonzero;stroke:none;stroke-width:0.1"
         id="path48" />
      <path
         d="m 58.9848,366.977 c -0.5508,-0.701 -1.1563,-1.243 -1.7403,-1.768 -0.7851,-0.704 -1.5254,-1.369 -2.0332,-2.314 -0.1121,-0.212 -0.034,-0.475 0.1778,-0.587 0.0644,-0.037 0.1347,-0.052 0.2031,-0.052 0.1555,0 0.3047,0.082 0.3828,0.228 0.4355,0.811 1.0898,1.4 1.8477,2.08 0.6132,0.549 1.2461,1.118 1.8418,1.875 0.1484,0.19 0.1164,0.462 -0.0723,0.609 -0.1875,0.149 -0.459,0.116 -0.6074,-0.071"
         style="fill:#3c3a3e;fill-opacity:1;fill-rule:nonzero;stroke:none;stroke-width:0.1"
         id="path50" />
      <path
         d="m 93.0609,400.44 c 0.084,-0.085 0.1934,-0.125 0.3047,-0.125 0.1114,0 0.2246,0.044 0.3098,0.129 1.9922,2.017 3.9891,4.028 5.9891,6.04 1.4905,1.502 2.9815,3.002 4.4695,4.505 0.169,0.17 0.167,0.444 -0.003,0.612 -0.17,0.169 -0.445,0.167 -0.613,-0.003 -1.488,-1.502 -2.978,-3.002 -4.4688,-4.502 -1.9988,-2.014 -3.998,-4.025 -5.9922,-6.043 -0.1679,-0.171 -0.166,-0.444 0.0039,-0.613"
         style="fill:#3c3a3e;fill-opacity:1;fill-rule:nonzero;stroke:none;stroke-width:0.1"
         id="path52" />
      <path
         d="m 105.36,412.408 c 0.129,0 0.256,0.056 0.342,0.166 1.224,1.568 2.429,2.755 3.859,4.052 0.178,0.162 0.191,0.435 0.03,0.612 -0.161,0.179 -0.434,0.191 -0.612,0.031 -1.464,-1.327 -2.697,-2.542 -3.961,-4.162 -0.147,-0.187 -0.114,-0.46 0.074,-0.607 0.08,-0.062 0.175,-0.092 0.268,-0.092"
         style="fill:#3c3a3e;fill-opacity:1;fill-rule:nonzero;stroke:none;stroke-width:0.1"
         id="path54" />
      <path
         d="m 111.247,418.35 c 0.105,0 0.211,0.038 0.294,0.114 0.751,0.693 1.555,1.442 2.348,2.221 0.848,0.836 1.578,1.606 2.229,2.357 0.156,0.178 0.136,0.454 -0.043,0.61 -0.182,0.157 -0.455,0.138 -0.614,-0.043 -0.634,-0.733 -1.347,-1.486 -2.179,-2.306 -0.784,-0.771 -1.583,-1.513 -2.329,-2.201 -0.176,-0.162 -0.187,-0.437 -0.025,-0.613 0.085,-0.093 0.202,-0.139 0.319,-0.139"
         style="fill:#3c3a3e;fill-opacity:1;fill-rule:nonzero;stroke:none;stroke-width:0.1"
         id="path56" />
      <path
         d="m 111.428,345.111 c -0.169,0.169 -0.443,0.17 -0.613,0 -0.169,-0.17 -0.168,-0.444 0.002,-0.613 1.555,-1.551 3.109,-3.1 4.668,-4.646 0.083,-0.083 0.194,-0.126 0.305,-0.126 0.111,0 0.222,0.043 0.308,0.128 0.168,0.17 0.166,0.444 -0.003,0.613 -1.557,1.547 -3.113,3.095 -4.667,4.644"
         style="fill:#3c3a3e;fill-opacity:1;fill-rule:nonzero;stroke:none;stroke-width:0.1"
         id="path58" />
      <path
         d="m 107.228,349.216 c -2.583,2.45 -5.251,4.983 -7.3592,7.614 -0.1485,0.187 -0.4219,0.216 -0.6106,0.067 -0.1855,-0.149 -0.2168,-0.422 -0.0644,-0.609 2.1432,-2.678 4.8342,-5.231 7.4362,-7.701 0.692,-0.657 1.382,-1.311 2.055,-1.962 0.085,-0.082 0.192,-0.123 0.301,-0.123 0.114,0 0.226,0.045 0.311,0.133 0.166,0.172 0.162,0.447 -0.009,0.613 -0.676,0.653 -1.367,1.309 -2.06,1.968"
         style="fill:#3c3a3e;fill-opacity:1;fill-rule:nonzero;stroke:none;stroke-width:0.1"
         id="path60" />
      <path
         d="m 96.7328,358.798 c 0.084,-0.075 0.1856,-0.112 0.2891,-0.112 0.1191,0 0.2363,0.049 0.3222,0.144 0.1602,0.18 0.1446,0.453 -0.0332,0.614 -2.6054,2.329 -5.205,4.885 -7.7332,7.599 -0.1613,0.174 -0.4375,0.183 -0.6125,0.021 -0.1757,-0.163 -0.1855,-0.437 -0.0222,-0.614 2.5457,-2.732 5.1668,-5.305 7.7898,-7.652"
         style="fill:#3c3a3e;fill-opacity:1;fill-rule:nonzero;stroke:none;stroke-width:0.1"
         id="path62" />
      <path
         d="m 51.7406,403.611 c 0.086,-0.086 0.1973,-0.128 0.3078,-0.128 0.1102,0 0.2215,0.041 0.3055,0.126 0.1699,0.168 0.1711,0.442 0.002,0.612 l -1.4414,1.455 c -0.1688,0.17 -0.4434,0.17 -0.6133,0.002 -0.1699,-0.168 -0.1707,-0.442 -0.0028,-0.613 l 1.4422,-1.454"
         style="fill:#3c3a3e;fill-opacity:1;fill-rule:nonzero;stroke:none;stroke-width:0.1"
         id="path64" />
      <path
         d="m 43.4703,411.933 c 1.5516,-1.801 3.1563,-3.666 5.1406,-5.156 0.0782,-0.058 0.17,-0.087 0.2586,-0.087 0.1328,0 0.2637,0.06 0.3477,0.173 0.1445,0.192 0.1055,0.463 -0.0859,0.606 -1.909,1.435 -3.4825,3.262 -5.0028,5.029 -1.5402,1.789 -3.132,3.639 -5.0812,5.097 -0.1934,0.144 -0.4649,0.104 -0.6075,-0.087 -0.1445,-0.191 -0.1035,-0.463 0.0879,-0.606 1.8731,-1.402 3.4336,-3.216 4.9426,-4.969"
         style="fill:#3c3a3e;fill-opacity:1;fill-rule:nonzero;stroke:none;stroke-width:0.1"
         id="path66" />
      <path
         d="m 32.4234,422.957 c 0.9188,-0.573 1.7,-1.465 2.5282,-2.41 0.6152,-0.703 1.2539,-1.43 1.9961,-2.083 0.082,-0.073 0.1836,-0.109 0.2871,-0.109 0.1191,0 0.2394,0.05 0.3261,0.147 0.1563,0.18 0.1387,0.454 -0.041,0.613 -0.6992,0.617 -1.3183,1.321 -1.9168,2.004 -0.8711,0.993 -1.6933,1.931 -2.7199,2.572 -0.2031,0.128 -0.4715,0.066 -0.5977,-0.138 -0.1269,-0.202 -0.0652,-0.471 0.1379,-0.596"
         style="fill:#3c3a3e;fill-opacity:1;fill-rule:nonzero;stroke:none;stroke-width:0.1"
         id="path68" />
      <path
         d="m 58.0434,342.791 c -0.9305,-1.251 -1.3868,-2.719 -1.7871,-4.015 -0.1231,-0.396 -0.2422,-0.78 -0.3692,-1.134 -0.0801,-0.227 0.0371,-0.473 0.2617,-0.555 0.0489,-0.018 0.0977,-0.024 0.1457,-0.024 0.1785,0 0.3446,0.11 0.409,0.287 0.1309,0.365 0.2539,0.76 0.3809,1.169 0.3801,1.23 0.8125,2.623 1.6543,3.754 0.1445,0.192 0.1047,0.463 -0.0887,0.605 -0.1926,0.144 -0.4641,0.105 -0.6066,-0.087"
         style="fill:#3c3a3e;fill-opacity:1;fill-rule:nonzero;stroke:none;stroke-width:0.1"
         id="path70" />
      <path
         d="m 65.8773,361.17 c -0.2234,0.091 -0.4765,-0.015 -0.5652,-0.239 -0.4512,-1.105 -0.9035,-2.208 -1.3555,-3.311 -1.6652,-4.051 -3.3847,-8.239 -4.9211,-12.424 -0.082,-0.225 0.0333,-0.474 0.2579,-0.557 0.05,-0.017 0.0996,-0.027 0.1484,-0.027 0.1777,0 0.3437,0.11 0.4082,0.284 1.5293,4.171 3.2473,8.352 4.9082,12.394 0.4531,1.104 0.9063,2.208 1.3574,3.315 0.0899,0.221 -0.0176,0.474 -0.2383,0.565"
         style="fill:#3c3a3e;fill-opacity:1;fill-rule:nonzero;stroke:none;stroke-width:0.1"
         id="path72" />
      <path
         d="m 84.3637,406.912 c 0.0508,-0.019 0.1035,-0.029 0.1562,-0.029 0.1739,0 0.3371,0.104 0.4043,0.276 0.252,0.648 0.5078,1.294 0.7688,1.939 0.0879,0.222 -0.0196,0.475 -0.2395,0.564 -0.2246,0.089 -0.4746,-0.018 -0.5644,-0.24 -0.2618,-0.648 -0.5196,-1.298 -0.7735,-1.949 -0.0879,-0.221 0.0227,-0.473 0.2481,-0.561"
         style="fill:#3c3a3e;fill-opacity:1;fill-rule:nonzero;stroke:none;stroke-width:0.1"
         id="path74" />
      <path
         d="m 85.9652,411.061 c 0.0684,-0.039 0.1418,-0.057 0.2121,-0.057 0.1532,0 0.2989,0.08 0.3778,0.221 1.207,2.139 2.3469,4.857 3.5851,8.551 0.075,0.228 -0.0461,0.472 -0.2734,0.549 -0.2266,0.076 -0.4727,-0.046 -0.548,-0.272 -1.2032,-3.593 -2.3555,-6.34 -3.5184,-8.403 -0.1172,-0.208 -0.0441,-0.472 0.1648,-0.589"
         style="fill:#3c3a3e;fill-opacity:1;fill-rule:nonzero;stroke:none;stroke-width:0.1"
         id="path76" />
      <path
         d="m 90.4898,421.777 c 0.0536,-0.021 0.1075,-0.031 0.161,-0.031 0.173,0 0.3359,0.103 0.4023,0.273 0.5461,1.365 1.0274,2.612 1.4699,3.811 0.0829,0.225 -0.0324,0.474 -0.257,0.557 -0.2246,0.082 -0.4734,-0.032 -0.5586,-0.258 -0.4375,-1.19 -0.9168,-2.43 -1.459,-3.789 -0.0879,-0.222 0.0196,-0.474 0.2414,-0.563"
         style="fill:#3c3a3e;fill-opacity:1;fill-rule:nonzero;stroke:none;stroke-width:0.1"
         id="path78" />
      <path
         d="m 114.438,366.09 c -1.162,0.306 -2.258,0.596 -3.268,1.268 -0.199,0.133 -0.468,0.077 -0.601,-0.121 -0.133,-0.2 -0.078,-0.469 0.121,-0.601 1.129,-0.752 2.348,-1.073 3.527,-1.385 1.401,-0.369 2.722,-0.718 3.965,-1.732 0.08,-0.067 0.178,-0.099 0.274,-0.099 0.126,0 0.25,0.056 0.336,0.16 0.151,0.185 0.125,0.458 -0.063,0.61 -1.387,1.134 -2.863,1.523 -4.291,1.9"
         style="fill:#3c3a3e;fill-opacity:1;fill-rule:nonzero;stroke:none;stroke-width:0.1"
         id="path80" />
      <path
         d="m 108.43,367.584 c 0.183,0 0.353,0.117 0.412,0.299 0.075,0.228 -0.05,0.473 -0.277,0.546 -4.209,1.37 -8.354,3.148 -12.3615,4.866 l -1.7988,0.771 c -0.2168,0.093 -0.4746,-0.009 -0.5684,-0.23 -0.0937,-0.218 0.0078,-0.474 0.2285,-0.567 l 1.7981,-0.771 c 4.0242,-1.727 8.1881,-3.512 12.4321,-4.893 0.046,-0.014 0.091,-0.021 0.135,-0.021"
         style="fill:#3c3a3e;fill-opacity:1;fill-rule:nonzero;stroke:none;stroke-width:0.1"
         id="path82" />
      <path
         d="m 47.6059,392.986 c -0.2246,0.09 -0.4766,-0.019 -0.5645,-0.242 -0.0887,-0.221 0.0176,-0.473 0.2414,-0.563 l 2.1746,-0.871 c 0.0528,-0.021 0.1074,-0.031 0.1621,-0.031 0.1719,0 0.334,0.103 0.4004,0.272 0.0899,0.223 -0.0183,0.476 -0.241,0.563 l -2.173,0.872"
         style="fill:#3c3a3e;fill-opacity:1;fill-rule:nonzero;stroke:none;stroke-width:0.1"
         id="path84" />
      <path
         d="m 29.7426,399.281 c 1.664,-0.968 3.4355,-1.55 5.1515,-2.113 1.6082,-0.529 3.2723,-1.077 4.8153,-1.938 l 5.0363,-2.03 c 0.0527,-0.022 0.1082,-0.032 0.1629,-0.032 0.1699,0 0.332,0.103 0.4004,0.272 0.0898,0.222 -0.0176,0.475 -0.241,0.564 L 40.1078,396 c -1.6074,0.895 -3.3047,1.452 -4.9433,1.99 -1.6719,0.551 -3.4004,1.119 -4.9852,2.04 -0.2063,0.121 -0.4727,0.05 -0.593,-0.158 -0.1211,-0.206 -0.0488,-0.471 0.1563,-0.591"
         style="fill:#3c3a3e;fill-opacity:1;fill-rule:nonzero;stroke:none;stroke-width:0.1"
         id="path86" />
      <path
         d="m 36.2758,365.541 c -0.0508,0.235 -0.2813,0.385 -0.5156,0.332 -2.0653,-0.439 -4.0528,-1.267 -5.7442,-2.393 -0.1992,-0.133 -0.2539,-0.4 -0.1211,-0.601 0.0832,-0.125 0.2207,-0.193 0.3614,-0.193 0.0832,0 0.166,0.023 0.2394,0.073 1.6035,1.065 3.4852,1.849 5.4461,2.268 0.2336,0.049 0.384,0.28 0.334,0.514"
         style="fill:#3c3a3e;fill-opacity:1;fill-rule:nonzero;stroke:none;stroke-width:0.1"
         id="path88" />
      <path
         d="m 38.2738,366.396 c 0.0801,-0.14 0.2266,-0.218 0.377,-0.218 0.0734,0 0.1484,0.017 0.2148,0.057 1.2617,0.721 2.5899,1.185 3.9961,1.673 1.6028,0.56 3.2598,1.138 4.8379,2.133 0.2024,0.127 0.2637,0.397 0.1348,0.598 -0.127,0.203 -0.3946,0.263 -0.5957,0.136 -1.4961,-0.943 -3.1055,-1.504 -4.6629,-2.048 -1.382,-0.481 -2.8078,-0.979 -4.1399,-1.739 -0.207,-0.118 -0.2812,-0.383 -0.1621,-0.592"
         style="fill:#3c3a3e;fill-opacity:1;fill-rule:nonzero;stroke:none;stroke-width:0.1"
         id="path90" />
      <path
         d="m 49.9711,371.078 c 0.0578,0 0.1164,0.013 0.1738,0.036 0.5,0.221 1.002,0.44 1.5039,0.659 0.2188,0.095 0.3203,0.35 0.2246,0.57 -0.0957,0.219 -0.3504,0.319 -0.5711,0.225 -0.5019,-0.22 -1.005,-0.439 -1.507,-0.659 -0.2176,-0.097 -0.3183,-0.352 -0.2207,-0.572 0.0703,-0.163 0.2285,-0.259 0.3965,-0.259"
         style="fill:#3c3a3e;fill-opacity:1;fill-rule:nonzero;stroke:none;stroke-width:0.1"
         id="path92" />
      <path
         d="m 93.734,390.028 c 0.075,-0.156 0.2305,-0.247 0.3914,-0.247 0.0625,0 0.125,0.012 0.1836,0.041 0.8086,0.378 1.6094,0.775 2.4101,1.172 2.5969,1.288 5.2829,2.619 8.1449,3.277 0.234,0.054 0.381,0.286 0.328,0.518 -0.055,0.234 -0.288,0.38 -0.522,0.326 -2.962,-0.68 -5.695,-2.034 -8.3356,-3.344 -0.7969,-0.394 -1.5918,-0.789 -2.3926,-1.164 -0.2168,-0.104 -0.3105,-0.361 -0.2078,-0.579"
         style="fill:#3c3a3e;fill-opacity:1;fill-rule:nonzero;stroke:none;stroke-width:0.1"
         id="path94" />
      <path
         d="m 111.178,397.898 c -1.492,-0.582 -2.902,-1.129 -4.322,-1.847 -0.213,-0.108 -0.299,-0.369 -0.19,-0.583 0.075,-0.15 0.228,-0.238 0.386,-0.238 0.066,0 0.134,0.016 0.197,0.047 1.38,0.699 2.771,1.24 4.244,1.812 1.32,0.513 2.686,1.043 4.062,1.7 l 2.774,1.174 c 0.22,0.094 0.323,0.348 0.23,0.569 -0.094,0.22 -0.349,0.322 -0.568,0.23 L 115.2,399.58 c -1.366,-0.651 -2.716,-1.176 -4.022,-1.682"
         style="fill:#3c3a3e;fill-opacity:1;fill-rule:nonzero;stroke:none;stroke-width:0.1"
         id="path96" />
      <path
         d="m 91.4164,342.156 c -0.4375,1.129 -0.8887,2.298 -1.4101,3.384 -0.1024,0.216 -0.3614,0.307 -0.577,0.201 -0.218,-0.102 -0.3078,-0.361 -0.2051,-0.576 0.5067,-1.056 0.9539,-2.209 1.3856,-3.324 0.5527,-1.428 1.125,-2.906 1.8476,-4.256 0.0781,-0.145 0.2266,-0.23 0.3821,-0.23 0.0703,0 0.1394,0.017 0.2039,0.052 0.2109,0.114 0.2929,0.375 0.1796,0.588 -0.6992,1.303 -1.2597,2.755 -1.8066,4.161"
         style="fill:#3c3a3e;fill-opacity:1;fill-rule:nonzero;stroke:none;stroke-width:0.1"
         id="path98" />
      <path
         d="m 87.3578,351.662 c -1.1074,2.431 -2.1523,4.727 -2.7676,7.496 l -0.0371,0.099 c -0.164,0.331 -0.3816,0.709 -0.6113,1.107 -0.3555,0.614 -0.7578,1.312 -0.8855,1.726 -0.0696,0.229 -0.3137,0.361 -0.5422,0.288 -0.2286,-0.069 -0.3575,-0.312 -0.286,-0.542 0.1551,-0.508 0.5653,-1.219 0.9617,-1.906 0.2129,-0.367 0.4141,-0.716 0.5645,-1.014 0.6379,-2.834 1.7441,-5.264 2.8145,-7.614 0.4171,-0.915 0.8468,-1.86 1.2492,-2.823 0.0691,-0.168 0.2304,-0.267 0.3992,-0.267 0.0566,0 0.1133,0.01 0.168,0.032 0.2207,0.092 0.3242,0.347 0.2336,0.568 -0.4075,0.978 -0.8411,1.928 -1.261,2.85"
         style="fill:#3c3a3e;fill-opacity:1;fill-rule:nonzero;stroke:none;stroke-width:0.1"
         id="path100" />
      <path
         d="m 61.6656,410.03 c 0.0731,-0.159 0.2293,-0.253 0.3934,-0.253 0.0617,0 0.1223,0.014 0.1797,0.039 0.2187,0.1 0.3144,0.359 0.214,0.577 -0.2492,0.544 -0.4953,1.091 -0.7394,1.638 -0.0957,0.219 -0.3516,0.318 -0.5703,0.221 -0.2196,-0.096 -0.3184,-0.353 -0.2207,-0.572 0.2422,-0.551 0.4922,-1.101 0.7433,-1.65"
         style="fill:#3c3a3e;fill-opacity:1;fill-rule:nonzero;stroke:none;stroke-width:0.1"
         id="path102" />
      <path
         d="m 56.7465,421.316 c 0.834,-2.408 1.6973,-4.896 3.1398,-7.22 0.0821,-0.132 0.2235,-0.205 0.3692,-0.205 0.0789,0 0.157,0.022 0.2285,0.064 0.2031,0.127 0.2656,0.396 0.1394,0.598 -1.3933,2.242 -2.2019,4.576 -3.0566,7.047 -0.4844,1.402 -0.9863,2.852 -1.6035,4.267 -0.0938,0.221 -0.3485,0.321 -0.5684,0.225 -0.2207,-0.096 -0.3203,-0.351 -0.2254,-0.571 0.6024,-1.386 1.0985,-2.818 1.577,-4.205"
         style="fill:#3c3a3e;fill-opacity:1;fill-rule:nonzero;stroke:none;stroke-width:0.1"
         id="path104" />
      <path
         d="m 58.5863,356.814 c -0.2129,0.112 -0.4746,0.034 -0.5867,-0.178 -1.4289,-2.66 -3.0656,-5.036 -4.7961,-7.551 -0.6055,-0.877 -1.2156,-1.762 -1.8222,-2.669 -0.1336,-0.198 -0.079,-0.468 0.1203,-0.602 0.073,-0.048 0.157,-0.074 0.2402,-0.074 0.1406,0 0.2762,0.069 0.3613,0.194 0.6035,0.904 1.2098,1.786 1.8133,2.661 1.7461,2.535 3.3945,4.928 4.8469,7.631 0.1133,0.212 0.034,0.473 -0.177,0.588"
         style="fill:#3c3a3e;fill-opacity:1;fill-rule:nonzero;stroke:none;stroke-width:0.1"
         id="path106" />
      <path
         d="m 59.8402,358.887 c 0.0703,-0.04 0.1465,-0.06 0.2227,-0.06 0.1465,0 0.291,0.076 0.373,0.212 0.8399,1.413 1.6817,2.818 2.5332,4.217 0.1231,0.205 0.0586,0.471 -0.1453,0.596 -0.2082,0.125 -0.4718,0.06 -0.5968,-0.145 -0.8516,-1.4 -1.6954,-2.811 -2.5372,-4.225 -0.121,-0.205 -0.0546,-0.472 0.1504,-0.595"
         style="fill:#3c3a3e;fill-opacity:1;fill-rule:nonzero;stroke:none;stroke-width:0.1"
         id="path108" />
      <path
         d="m 89.9574,407.054 c -0.4832,-0.757 -0.9648,-1.515 -1.4414,-2.277 -0.1269,-0.202 -0.0664,-0.47 0.1367,-0.597 0.0723,-0.045 0.1516,-0.066 0.2297,-0.066 0.1453,0 0.286,0.072 0.368,0.203 0.4758,0.758 0.9551,1.515 1.4375,2.269 0.1301,0.202 0.0703,0.47 -0.1309,0.6 -0.2031,0.129 -0.4695,0.07 -0.5996,-0.132"
         style="fill:#3c3a3e;fill-opacity:1;fill-rule:nonzero;stroke:none;stroke-width:0.1"
         id="path110" />
      <path
         d="m 91.35,408.495 c 0.0813,-0.063 0.177,-0.094 0.2715,-0.094 0.1262,0 0.2539,0.054 0.3379,0.162 1.6113,2.01 2.9687,4.251 4.4062,6.626 0.291,0.476 0.5801,0.957 0.877,1.441 0.125,0.204 0.0605,0.47 -0.1434,0.595 -0.2043,0.126 -0.4707,0.061 -0.5957,-0.142 -0.2969,-0.486 -0.589,-0.969 -0.8769,-1.445 -1.425,-2.349 -2.7688,-4.568 -4.3438,-6.533 -0.1484,-0.186 -0.1183,-0.459 0.0672,-0.61"
         style="fill:#3c3a3e;fill-opacity:1;fill-rule:nonzero;stroke:none;stroke-width:0.1"
         id="path112" />
      <path
         d="m 98.6586,366.629 c -0.2117,0.111 -0.4727,0.03 -0.584,-0.181 -0.1133,-0.212 -0.0312,-0.475 0.1797,-0.586 3.4357,-1.817 6.9257,-4.074 10.9867,-7.104 0.078,-0.058 0.168,-0.086 0.259,-0.086 0.131,0 0.262,0.06 0.348,0.175 0.143,0.191 0.104,0.464 -0.089,0.607 -4.097,3.055 -7.624,5.333 -11.1004,7.175"
         style="fill:#3c3a3e;fill-opacity:1;fill-rule:nonzero;stroke:none;stroke-width:0.1"
         id="path114" />
      <path
         d="m 91.7398,370.404 c -0.132,-0.199 -0.0773,-0.468 0.1219,-0.6 0.511,-0.338 1.043,-0.649 1.5586,-0.949 0.7481,-0.437 1.5235,-0.889 2.2141,-1.416 0.0801,-0.061 0.1707,-0.09 0.2636,-0.09 0.1297,0 0.2606,0.06 0.3446,0.172 0.1445,0.19 0.1094,0.461 -0.0821,0.607 -0.7343,0.561 -1.5332,1.025 -2.3035,1.477 -0.505,0.293 -1.0273,0.599 -1.5168,0.922 -0.1992,0.133 -0.4695,0.078 -0.6004,-0.123"
         style="fill:#3c3a3e;fill-opacity:1;fill-rule:nonzero;stroke:none;stroke-width:0.1"
         id="path116" />
      <path
         d="m 51.0688,396.232 c 0.1437,0 0.2832,0.069 0.3664,0.198 0.1289,0.202 0.0711,0.47 -0.1301,0.599 -2.1942,1.416 -4.3867,2.834 -6.5781,4.253 -0.2,0.131 -0.4688,0.073 -0.5997,-0.128 -0.1308,-0.201 -0.0722,-0.47 0.129,-0.6 2.1914,-1.419 4.3847,-2.838 6.5792,-4.253 0.0723,-0.047 0.1532,-0.069 0.2333,-0.069"
         style="fill:#3c3a3e;fill-opacity:1;fill-rule:nonzero;stroke:none;stroke-width:0.1"
         id="path118" />
      <path
         d="m 39.2309,404.839 c -0.2,0.13 -0.4688,0.073 -0.5996,-0.128 -0.129,-0.202 -0.0723,-0.47 0.13,-0.599 l 3.2051,-2.076 c 0.0731,-0.047 0.1551,-0.069 0.2363,-0.069 0.1414,0 0.2813,0.069 0.3641,0.197 0.1301,0.201 0.0742,0.47 -0.1289,0.6 l -3.207,2.075"
         style="fill:#3c3a3e;fill-opacity:1;fill-rule:nonzero;stroke:none;stroke-width:0.1"
         id="path120" />
      <path
         d="m 33.2094,372.46 c 0.0371,0 0.0734,0.003 0.1094,0.013 1.0527,0.273 2.1535,0.534 3.3632,0.795 0.2336,0.05 0.3821,0.281 0.3321,0.515 -0.0508,0.234 -0.2832,0.385 -0.5157,0.332 -1.2226,-0.264 -2.332,-0.526 -3.3972,-0.801 -0.2317,-0.061 -0.3703,-0.297 -0.3106,-0.529 0.0496,-0.196 0.2274,-0.325 0.4188,-0.325"
         style="fill:#3c3a3e;fill-opacity:1;fill-rule:nonzero;stroke:none;stroke-width:0.1"
         id="path122" />
      <path
         d="m 39.2875,373.802 c 1.3242,0.257 2.6504,0.502 3.9766,0.744 0.8203,0.151 1.6406,0.302 2.4629,0.456 0.2343,0.045 0.3906,0.271 0.3457,0.506 -0.045,0.237 -0.2723,0.391 -0.5059,0.347 -0.8203,-0.155 -1.6395,-0.305 -2.459,-0.456 -1.3301,-0.243 -2.659,-0.487 -3.9863,-0.745 -0.2344,-0.048 -0.3875,-0.275 -0.3418,-0.51 0.0402,-0.206 0.2226,-0.351 0.4258,-0.351 0.0273,0 0.0547,0.003 0.082,0.009"
         style="fill:#3c3a3e;fill-opacity:1;fill-rule:nonzero;stroke:none;stroke-width:0.1"
         id="path124" />
      <path
         d="m 95.141,385.781 c 0.0285,0 0.0586,0.002 0.0871,0.01 0.868,0.175 1.7352,0.355 2.6004,0.536 0.2344,0.048 0.3828,0.279 0.3352,0.514 -0.05,0.234 -0.2805,0.384 -0.5129,0.334 -0.866,-0.181 -1.7305,-0.359 -2.5965,-0.536 -0.2336,-0.047 -0.3859,-0.276 -0.3371,-0.511 0.041,-0.207 0.2226,-0.347 0.4238,-0.347"
         style="fill:#3c3a3e;fill-opacity:1;fill-rule:nonzero;stroke:none;stroke-width:0.1"
         id="path126" />
      <path
         d="m 115.204,390.214 c 0.234,0.053 0.38,0.284 0.327,0.517 -0.051,0.233 -0.282,0.382 -0.517,0.329 -1.708,-0.384 -3.384,-0.774 -5.066,-1.167 -3.184,-0.741 -6.477,-1.509 -9.971,-2.222 -0.2344,-0.048 -0.3848,-0.276 -0.3368,-0.51 0.0418,-0.206 0.2227,-0.347 0.4248,-0.347 0.029,0 0.058,0.002 0.087,0.008 3.504,0.714 6.803,1.484 9.993,2.227 1.68,0.39 3.355,0.783 5.059,1.165"
         style="fill:#3c3a3e;fill-opacity:1;fill-rule:nonzero;stroke:none;stroke-width:0.1"
         id="path128" />
      <path
         d="m 80.6324,354.748 c -0.0363,0.238 -0.2578,0.402 -0.4941,0.365 -0.2363,-0.036 -0.3996,-0.258 -0.3645,-0.494 0.3086,-2.029 0.8594,-4.094 1.3946,-6.094 0.6914,-2.584 1.4062,-5.259 1.5664,-7.804 0.0156,-0.23 0.205,-0.406 0.4336,-0.406 0.0078,0 0.0175,0 0.0273,10e-4 0.2395,0.015 0.4199,0.221 0.4055,0.46 -0.166,2.632 -0.8938,5.348 -1.5949,7.974 -0.5293,1.975 -1.0743,4.018 -1.3739,5.998"
         style="fill:#3c3a3e;fill-opacity:1;fill-rule:nonzero;stroke:none;stroke-width:0.1"
         id="path130" />
      <path
         d="m 80.0473,357.439 c -0.2246,1.034 -0.4532,2.068 -0.6805,3.102 -0.0527,0.236 -0.2805,0.381 -0.5168,0.33 -0.2344,-0.05 -0.3816,-0.283 -0.3309,-0.517 0.2293,-1.033 0.4559,-2.066 0.6825,-3.099 0.0429,-0.202 0.2226,-0.342 0.4218,-0.342 0.0313,0 0.0625,0.003 0.093,0.01 0.2332,0.052 0.3836,0.282 0.3309,0.516"
         style="fill:#3c3a3e;fill-opacity:1;fill-rule:nonzero;stroke:none;stroke-width:0.1"
         id="path132" />
      <path
         d="m 66.2758,414.934 c 0.6387,-2.448 1.2129,-4.73 1.7539,-6.976 0.048,-0.199 0.2246,-0.333 0.4211,-0.333 0.0332,0 0.0683,0.004 0.1015,0.013 0.2332,0.055 0.3758,0.29 0.3204,0.523 -0.5422,2.253 -1.1172,4.54 -1.759,6.992 -0.0606,0.232 -0.2969,0.372 -0.5293,0.31 -0.2305,-0.061 -0.3711,-0.298 -0.3086,-0.529"
         style="fill:#3c3a3e;fill-opacity:1;fill-rule:nonzero;stroke:none;stroke-width:0.1"
         id="path134" />
      <path
         d="m 65.2738,419.865 c 0.0742,-0.871 0.1504,-1.773 0.4629,-2.64 0.0656,-0.176 0.2305,-0.285 0.4082,-0.285 0.0489,0 0.0989,0.008 0.1485,0.025 0.2246,0.083 0.3418,0.331 0.2597,0.556 -0.2754,0.758 -0.3437,1.565 -0.414,2.417 -0.084,1 -0.1719,2.035 -0.6239,2.987 -0.1047,0.215 -0.3613,0.309 -0.5773,0.205 -0.2168,-0.103 -0.3086,-0.361 -0.2059,-0.578 0.3848,-0.808 0.4618,-1.722 0.5418,-2.687"
         style="fill:#3c3a3e;fill-opacity:1;fill-rule:nonzero;stroke:none;stroke-width:0.1"
         id="path136" />
      <path
         d="m 69.0629,355.277 c -0.2344,0.053 -0.4656,-0.094 -0.5184,-0.327 -0.5175,-2.293 -0.884,-4.594 -1.2375,-6.819 -0.3894,-2.451 -0.7929,-4.985 -1.3965,-7.467 -0.0554,-0.232 0.0872,-0.467 0.3204,-0.523 0.0351,-0.009 0.0683,-0.013 0.1015,-0.013 0.1953,0 0.3731,0.134 0.4211,0.332 0.6102,2.515 1.0164,5.067 1.409,7.536 0.3516,2.211 0.7168,4.498 1.2285,6.763 0.052,0.233 -0.0937,0.466 -0.3281,0.518"
         style="fill:#3c3a3e;fill-opacity:1;fill-rule:nonzero;stroke:none;stroke-width:0.1"
         id="path138" />
      <path
         d="m 69.8871,359.709 c -0.2351,0.045 -0.4609,-0.108 -0.5058,-0.344 l -0.2774,-1.462 c -0.0449,-0.236 0.1106,-0.461 0.3449,-0.507 0.0282,-0.005 0.0547,-0.007 0.0809,-0.007 0.2043,0 0.3867,0.145 0.4258,0.353 l 0.2765,1.462 c 0.0469,0.233 -0.1086,0.461 -0.3449,0.505"
         style="fill:#3c3a3e;fill-opacity:1;fill-rule:nonzero;stroke:none;stroke-width:0.1"
         id="path140" />
      <path
         d="m 79.1566,407.388 c 0.0274,-0.006 0.0567,-0.008 0.0821,-0.008 0.2043,0 0.3867,0.144 0.4258,0.351 0.1496,0.781 0.291,1.562 0.4289,2.344 0.0398,0.235 -0.1164,0.46 -0.3528,0.502 -0.2351,0.042 -0.4609,-0.116 -0.5019,-0.352 -0.1367,-0.778 -0.2774,-1.555 -0.4266,-2.33 -0.043,-0.235 0.1102,-0.463 0.3445,-0.507"
         style="fill:#3c3a3e;fill-opacity:1;fill-rule:nonzero;stroke:none;stroke-width:0.1"
         id="path142" />
      <path
         d="m 79.9594,412.057 c 0.0351,-0.009 0.0683,-0.014 0.1015,-0.014 0.1954,0 0.3731,0.133 0.4211,0.332 0.3672,1.51 0.5789,3.045 0.7832,4.529 0.2684,1.951 0.5457,3.969 1.1786,5.883 0.0761,0.227 -0.0477,0.471 -0.2743,0.547 -0.2277,0.076 -0.4718,-0.048 -0.548,-0.274 -0.6582,-1.991 -0.9414,-4.048 -1.2168,-6.037 -0.2012,-1.464 -0.409,-2.976 -0.7656,-4.443 -0.0555,-0.233 0.0871,-0.468 0.3203,-0.523"
         style="fill:#3c3a3e;fill-opacity:1;fill-rule:nonzero;stroke:none;stroke-width:0.1"
         id="path144" />
      <path
         d="m 115.264,373.472 c 0.158,0 0.313,0.088 0.389,0.238 0.107,0.213 0.021,0.475 -0.193,0.583 -2.479,1.243 -5.118,1.543 -7.913,1.86 -2.156,0.245 -4.384,0.497 -6.529,1.226 -0.226,0.076 -0.474,-0.045 -0.551,-0.272 -0.077,-0.226 0.045,-0.472 0.272,-0.549 2.233,-0.759 4.51,-1.017 6.709,-1.266 2.717,-0.308 5.282,-0.599 7.623,-1.775 0.062,-0.031 0.129,-0.045 0.193,-0.045"
         style="fill:#3c3a3e;fill-opacity:1;fill-rule:nonzero;stroke:none;stroke-width:0.1"
         id="path146" />
      <path
         d="m 93.223,378.039 c -0.0417,-0.236 0.1153,-0.461 0.3497,-0.503 0.9062,-0.162 1.8281,-0.249 2.7207,-0.333 0.7304,-0.071 1.4863,-0.143 2.2187,-0.254 0.0215,-0.003 0.0449,-0.005 0.0656,-0.005 0.2098,0 0.3953,0.154 0.4286,0.369 0.0351,0.235 -0.127,0.457 -0.3633,0.493 -0.7559,0.115 -1.5254,0.189 -2.2676,0.259 -0.8738,0.083 -1.7793,0.169 -2.6504,0.324 -0.2402,0.044 -0.4609,-0.116 -0.502,-0.35"
         style="fill:#3c3a3e;fill-opacity:1;fill-rule:nonzero;stroke:none;stroke-width:0.1"
         id="path148" />
      <path
         d="m 31.1527,390.666 c -0.2363,0.043 -0.4617,-0.112 -0.5039,-0.348 -0.0437,-0.236 0.1125,-0.462 0.3489,-0.505 l 2.075,-0.379 c 0.0265,-0.006 0.0539,-0.008 0.0793,-0.008 0.2039,0 0.3875,0.146 0.4265,0.355 0.041,0.236 -0.1133,0.461 -0.3496,0.506 l -2.0762,0.379"
         style="fill:#3c3a3e;fill-opacity:1;fill-rule:nonzero;stroke:none;stroke-width:0.1"
         id="path150" />
      <path
         d="m 45.9203,361.418 c 0.2063,0.12 0.2774,0.384 0.1582,0.593 -0.1199,0.207 -0.3847,0.278 -0.5937,0.159 -0.9785,-0.565 -1.952,-1.238 -2.9805,-1.95 -0.9648,-0.666 -1.9617,-1.356 -2.9695,-1.952 -0.2063,-0.121 -0.2754,-0.388 -0.1535,-0.593 0.0812,-0.137 0.2246,-0.214 0.375,-0.214 0.0734,0 0.1484,0.02 0.2187,0.06 1.0352,0.612 2.0461,1.311 3.0227,1.986 1.0144,0.703 1.9734,1.364 2.9226,1.911"
         style="fill:#3c3a3e;fill-opacity:1;fill-rule:nonzero;stroke:none;stroke-width:0.1"
         id="path152" />
      <path
         d="m 47.5531,363.153 c 0.0801,-0.141 0.2285,-0.22 0.3789,-0.22 0.0723,0 0.1446,0.017 0.2121,0.055 1.4012,0.79 2.5829,1.81 3.7254,2.798 1.3457,1.161 2.6153,2.259 4.1739,2.954 0.2187,0.098 0.3183,0.354 0.2207,0.571 -0.0977,0.22 -0.3555,0.32 -0.5723,0.22 -1.6777,-0.746 -3.0566,-1.937 -4.3895,-3.091 -1.1093,-0.958 -2.2578,-1.949 -3.5832,-2.695 -0.2089,-0.118 -0.2832,-0.384 -0.166,-0.592"
         style="fill:#3c3a3e;fill-opacity:1;fill-rule:nonzero;stroke:none;stroke-width:0.1"
         id="path154" />
      <path
         d="m 94.1664,394.541 c 0.0977,0 0.1992,0.033 0.2805,0.104 l 0.1961,0.166 c 0.584,0.5 1.1386,0.973 1.7968,1.257 0.2207,0.095 0.3204,0.349 0.2266,0.569 -0.0957,0.22 -0.3496,0.32 -0.5703,0.228 -0.7781,-0.338 -1.4082,-0.874 -2.0164,-1.395 l -0.1926,-0.164 c -0.1836,-0.155 -0.207,-0.429 -0.0527,-0.612 0.0859,-0.101 0.209,-0.153 0.332,-0.153"
         style="fill:#3c3a3e;fill-opacity:1;fill-rule:nonzero;stroke:none;stroke-width:0.1"
         id="path156" />
      <path
         d="m 98.768,397.602 c 1.776,1.611 3.749,2.82 5.656,3.99 1.697,1.041 3.299,2.022 4.771,3.263 0.182,0.154 0.206,0.427 0.052,0.61 -0.153,0.183 -0.428,0.208 -0.612,0.053 -1.422,-1.199 -2.996,-2.163 -4.664,-3.186 -1.941,-1.191 -3.949,-2.422 -5.787,-4.088 -0.1758,-0.162 -0.1895,-0.435 -0.0293,-0.612 0.0859,-0.095 0.2031,-0.143 0.3203,-0.143 0.1055,0 0.2102,0.038 0.293,0.113"
         style="fill:#3c3a3e;fill-opacity:1;fill-rule:nonzero;stroke:none;stroke-width:0.1"
         id="path158" />
      <path
         d="m 91.2055,357.618 -1.086,1.58 c -0.1347,0.198 -0.4043,0.248 -0.6015,0.113 -0.1973,-0.135 -0.2489,-0.405 -0.1133,-0.602 l 1.0859,-1.582 c 2.2715,-3.305 4.6211,-6.721 6.8489,-10.34 0.0808,-0.134 0.2234,-0.206 0.3691,-0.206 0.0769,0 0.1551,0.021 0.2254,0.064 0.2043,0.126 0.2676,0.394 0.1437,0.597 -2.2375,3.637 -4.5929,7.062 -6.8722,10.376"
         style="fill:#3c3a3e;fill-opacity:1;fill-rule:nonzero;stroke:none;stroke-width:0.1"
         id="path160" />
      <path
         d="m 86.602,363.984 c -0.1153,0.206 -0.3797,0.28 -0.5899,0.162 -0.207,-0.118 -0.2812,-0.382 -0.1629,-0.592 0.5184,-0.909 1.1492,-1.941 2.1102,-2.677 0.0793,-0.06 0.1719,-0.089 0.2636,-0.089 0.1309,0 0.2598,0.057 0.3438,0.169 0.1465,0.191 0.1113,0.463 -0.0801,0.607 -0.832,0.638 -1.4082,1.584 -1.8847,2.42"
         style="fill:#3c3a3e;fill-opacity:1;fill-rule:nonzero;stroke:none;stroke-width:0.1"
         id="path162" />
      <path
         d="m 55.3336,408.996 c 0.082,-0.134 0.2254,-0.208 0.3711,-0.208 0.0769,0 0.1551,0.02 0.2234,0.062 0.2063,0.124 0.2707,0.39 0.1477,0.596 -0.7129,1.176 -1.4504,2.394 -2.2981,3.523 -0.1445,0.191 -0.414,0.229 -0.6062,0.086 -0.1926,-0.144 -0.2317,-0.416 -0.0871,-0.607 0.8222,-1.094 1.5469,-2.293 2.2492,-3.452"
         style="fill:#3c3a3e;fill-opacity:1;fill-rule:nonzero;stroke:none;stroke-width:0.1"
         id="path164" />
      <path
         d="m 51.6449,414.569 c 0.0852,-0.119 0.2188,-0.183 0.3555,-0.183 0.0859,0 0.1738,0.026 0.2492,0.08 0.1961,0.139 0.241,0.408 0.1043,0.604 -0.416,0.587 -0.8348,1.151 -1.2422,1.676 -0.1465,0.189 -0.4199,0.223 -0.6082,0.077 -0.1887,-0.149 -0.2238,-0.421 -0.0754,-0.609 0.3996,-0.514 0.8086,-1.068 1.2168,-1.645"
         style="fill:#3c3a3e;fill-opacity:1;fill-rule:nonzero;stroke:none;stroke-width:0.1"
         id="path166" />
      <path
         d="m 45.9293,386.331 7.1609,-1.028 c 0.0207,-0.003 0.0411,-0.006 0.0606,-0.006 0.2129,0 0.3984,0.157 0.4297,0.373 0.0343,0.237 -0.1309,0.457 -0.3672,0.49 l -7.1602,1.029 c -0.2383,0.034 -0.457,-0.13 -0.4902,-0.367 -0.034,-0.238 0.1301,-0.458 0.3664,-0.491"
         style="fill:#3c3a3e;fill-opacity:1;fill-rule:nonzero;stroke:none;stroke-width:0.1"
         id="path168" />
      <path
         d="m 76.602,402.6 c 0.0578,-0.105 0.096,-0.222 0.121,-0.347 0.0067,-0.032 0.0051,-0.068 0.0094,-0.102 0.0125,-0.098 0.0211,-0.199 0.0149,-0.307 -0.0016,-0.034 -0.009,-0.072 -0.0125,-0.108 -0.0125,-0.118 -0.0317,-0.24 -0.0649,-0.368 -0.0062,-0.025 -0.0144,-0.051 -0.0215,-0.076 -0.0433,-0.153 -0.0964,-0.31 -0.1671,-0.474 -0.0012,-0.003 -0.0024,-0.006 -0.004,-0.009 -0.2527,-0.588 -0.6851,-1.255 -1.2699,-1.965 -0.057,-0.058 -0.1136,-0.118 -0.1777,-0.153 -0.3223,-0.174 -0.709,-0.038 -0.9668,0.34 -0.0508,0.075 -0.1086,0.155 -0.1609,0.232 0.7882,0.964 1.1125,1.779 0.823,2.309 -0.3297,0.606 -1.4086,0.739 -2.9418,0.481 -0.3062,0.364 -0.6227,0.727 -0.9551,1.085 3.043,0.702 5.2199,0.481 5.7739,-0.538 z m 7.4882,1.851 c -2.7117,0.863 -5.3886,0.311 -6.705,-0.406 -0.1832,-0.099 -0.3442,-0.204 -0.4868,-0.312 -0.3238,0.263 -0.7312,0.464 -1.2238,0.599 3.3125,1.363 6.1926,1.198 8.4156,0.119 z m 5.1602,-23.012 -2.5352,4.654 0.0028,10e-4 -9.1883,16.877 c 0.0957,0.07 0.2047,0.14 0.3281,0.207 1.4867,0.81 4.4445,1.17 7.1395,-0.204 4.4285,-5.11 3.605,-9.386 2.798,-13.519 -0.2215,-1.145 -0.4348,-2.257 -0.543,-3.365 z m -0.2871,-6.894 c -0.9727,1.353 -1.7988,2.817 -2.6074,4.27 -0.8633,1.56 -1.6914,3.169 -2.3496,4.828 -0.004,0.008 -0.004,0.014 -0.0086,0.022 0.9851,-1.372 1.8171,-2.854 2.6355,-4.329 0.8574,-1.539 1.6738,-3.129 2.3223,-4.769 0.0019,-0.008 0.0039,-0.016 0.0078,-0.022 z m -2.4395,7.205 c -1.0625,1.832 -2.1152,3.673 -3.114,5.539 -1.7403,3.234 -3.4524,6.484 -4.9778,9.825 2.0938,-3.273 4.0215,-6.661 5.8633,-10.084 1.6738,-3.114 3.3555,-6.245 4.7891,-9.479 -0.9004,1.369 -1.7364,2.781 -2.5606,4.199 z m -27.7742,16.783 c -0.0254,-0.016 -0.0445,-0.027 -0.0793,-0.051 -0.2578,-0.186 -0.5371,-0.241 -0.7527,-0.153 -0.166,0.069 -0.2922,0.225 -0.3625,0.451 -0.9121,2.971 -0.5789,5.268 0.9543,6.661 2.6039,0.74 5.0386,-0.739 7.1636,-3.008 -1.0207,-0.443 -2.0539,-0.941 -3.0828,-1.502 -1.3722,-0.747 -2.6609,-1.558 -3.8406,-2.398 z m 4.3133,1.53 c 1.1359,0.619 2.2398,1.143 3.3023,1.592 0.2809,-0.332 0.5571,-0.671 0.8258,-1.023 -1.1894,-0.493 -2.4488,-1.091 -3.7324,-1.789 -0.8898,-0.484 -1.7203,-0.988 -2.5078,-1.493 l -0.0051,0.007 c 0,0 -0.1191,-0.077 -0.3262,-0.212 -0.0375,-0.025 -0.0918,-0.061 -0.1347,-0.09 -0.0184,-0.012 -0.0399,-0.025 -0.0586,-0.037 -0.0082,-0.006 -0.0129,-0.011 -0.0207,-0.016 -0.1813,-0.122 -0.3867,-0.262 -0.6325,-0.44 -0.6886,-0.494 -1.58,-1.197 -2.3957,-1.984 -0.8066,-0.789 -1.5515,-1.668 -1.8945,-2.45 -0.0879,-0.195 -0.1406,-0.382 -0.1719,-0.553 -0.0312,-0.169 -0.0175,-0.323 0.0079,-0.444 0.0292,-0.119 0.0742,-0.209 0.1113,-0.261 0.0383,-0.055 0.0586,-0.084 0.0586,-0.084 0,0 -0.0157,0.031 -0.0469,0.091 -0.0273,0.059 -0.0566,0.153 -0.0613,0.269 -0.0051,0.117 0.0027,0.259 0.0574,0.41 0.0508,0.152 0.1281,0.317 0.2383,0.488 0.1086,0.169 0.2422,0.343 0.3926,0.519 0.1523,0.178 0.3203,0.358 0.5058,0.536 0.1848,0.177 0.3828,0.356 0.5918,0.527 0.2063,0.174 0.427,0.337 0.6426,0.508 0.4367,0.333 0.8906,0.643 1.3254,0.921 0.4324,0.279 0.8496,0.518 1.2058,0.72 0.0852,0.049 0.152,0.093 0.2282,0.14 0.0539,-0.007 0.1004,-0.018 0.1605,-0.021 l 7.6992,-0.456 c 0.4824,-0.03 1.2063,0.166 1.6074,0.447 0.0637,0.044 0.1227,0.088 0.1852,0.133 0.0102,-0.018 0.0215,-0.036 0.0316,-0.054 0.3239,-0.553 0.1493,-1.335 -0.364,-1.693 -0.0598,-0.04 -0.1164,-0.08 -0.1766,-0.119 -0.2914,-0.19 -0.5894,-0.375 -0.8902,-0.56 -0.1246,-0.076 -0.2438,-0.153 -0.3707,-0.229 -0.4356,-0.26 -0.8778,-0.514 -1.3254,-0.758 -6.7832,-3.693 -12.5801,-4.301 -13.5399,-2.538 -0.9601,1.764 2.6961,6.303 9.4774,9.996 z M 42.6371,382.264 c 0.1836,0.384 0.2906,0.736 0.3285,1.058 l 16.7489,-6.329 c 0.0156,-0.005 0.0351,-0.011 0.0515,-0.017 1.2012,-0.307 4.207,-1.411 6.1504,-4.978 0.1598,-0.295 0.4254,-0.835 0.609,-1.463 l -14.1188,6.211 14.3157,-7.551 c -0.0043,-0.19 -0.0282,-0.377 -0.0696,-0.56 L 45.9918,379.45 66.1211,367.627 c -0.1117,-0.119 -0.2356,-0.233 -0.3863,-0.336 l -23.718,14.051 c 0.2234,0.223 0.425,0.517 0.6203,0.922 z m -3.9531,8.968 c 0.2656,0.147 0.6191,0.276 0.7871,0.076 0.8359,-0.985 0.3652,-3.597 -1.2578,-6.982 -1.2324,-2.577 -2.5625,-4.349 -3.7442,-4.993 -0.3125,-0.169 -0.6093,-0.259 -0.8867,-0.266 -0.0469,0 -0.1347,-0.004 -0.2363,0.157 -0.4824,0.76 -0.3574,3.416 1.423,6.942 1.5098,2.986 3.0106,4.574 3.9149,5.066 z m 34.1406,-28.794 c -2.4609,-0.233 -4.3035,0.2 -4.8086,1.126 l -1.632,2.999 c 0.0344,0.026 0.0738,0.048 0.107,0.075 l 2.2809,-3.376 -1.6965,3.972 c 0.0437,0.059 0.0855,0.12 0.1254,0.182 l 2.7246,-4.236 -2.3426,5.159 c 0.0258,0.099 0.0559,0.194 0.0727,0.297 l 3.4699,-5.691 -3.5168,7.286 c -0.134,0.704 -0.3961,1.453 -0.825,2.239 -1.4801,2.718 -3.5297,4.131 -5.0895,4.856 l -2.6664,4.051 1.5973,-3.623 c -0.1465,0.05 -0.2781,0.089 -0.402,0.124 l -2.2097,4.059 c 0.3008,-0.081 0.6211,-0.144 0.9676,-0.17 0.4531,-0.038 0.9394,-0.028 1.4445,0.01 0.5027,0.042 1.0223,0.12 1.5566,0.233 0.5321,0.107 1.0703,0.245 1.6102,0.407 0.543,0.157 1.084,0.34 1.6203,0.538 0.5359,0.195 1.0613,0.409 1.577,0.629 0.5117,0.224 1.0109,0.457 1.4863,0.696 0.4765,0.236 0.9308,0.476 1.3574,0.709 0.2109,0.118 0.418,0.234 0.6172,0.346 0.1973,0.117 0.3867,0.228 0.5695,0.337 0.3582,0.226 0.6864,0.435 0.9793,0.619 0.293,0.179 0.5332,0.354 0.7383,0.493 0.4063,0.28 0.6367,0.441 0.6367,0.441 0,0 -0.248,-0.134 -0.6816,-0.368 -0.2188,-0.117 -0.4754,-0.269 -0.7832,-0.419 -0.3055,-0.152 -0.6492,-0.326 -1.0235,-0.517 -0.1933,-0.087 -0.3925,-0.182 -0.5957,-0.281 -0.207,-0.092 -0.4187,-0.191 -0.6367,-0.29 -0.4402,-0.197 -0.9043,-0.398 -1.3926,-0.592 -0.4863,-0.194 -0.9929,-0.382 -1.5117,-0.565 -0.5156,-0.184 -1.0437,-0.361 -1.5762,-0.518 -0.5332,-0.156 -1.0691,-0.3 -1.5996,-0.418 -0.5293,-0.121 -1.0527,-0.223 -1.5613,-0.292 -0.507,-0.071 -0.9973,-0.131 -1.459,-0.147 -0.4582,-0.025 -0.8898,-0.015 -1.2785,0.016 -0.3887,0.034 -0.7305,0.102 -1.0066,0.191 -0.2766,0.092 -0.4934,0.195 -0.6457,0.303 -0.0399,0.026 -0.0684,0.058 -0.1024,0.082 -0.0304,0.025 -0.0617,0.046 -0.0832,0.074 -0.0429,0.054 -0.0926,0.088 -0.1152,0.129 -0.0512,0.075 -0.0817,0.112 -0.0828,0.114 l -0.1223,0.224 c 0.1621,-0.041 0.3293,-0.076 0.5039,-0.103 0.3867,-0.057 0.8027,-0.084 1.2356,-0.064 0.4336,0.012 0.8816,0.052 1.3386,0.128 0.4563,0.07 0.9211,0.165 1.3887,0.281 0.4668,0.109 0.9316,0.246 1.3965,0.389 0.459,0.148 0.918,0.3 1.3613,0.473 0.4434,0.168 0.8731,0.349 1.2871,0.529 0.8242,0.363 1.5821,0.729 2.2141,1.069 0.6355,0.337 1.1512,0.638 1.5125,0.853 0.3555,0.218 0.5586,0.344 0.5586,0.344 0,0 -0.2168,-0.099 -0.5965,-0.273 -0.3801,-0.171 -0.925,-0.415 -1.5891,-0.68 -0.6609,-0.266 -1.4343,-0.57 -2.2773,-0.847 -0.4227,-0.139 -0.8594,-0.278 -1.3066,-0.404 -0.4442,-0.131 -0.9024,-0.248 -1.3594,-0.359 -0.4571,-0.103 -0.916,-0.203 -1.3699,-0.275 -0.4543,-0.078 -0.8997,-0.133 -1.3332,-0.167 -0.4297,-0.039 -0.8418,-0.05 -1.2305,-0.041 -0.3867,0.007 -0.7461,0.036 -1.0653,0.092 -0.1601,0.022 -0.3066,0.063 -0.4445,0.093 -0.1347,0.046 -0.2617,0.079 -0.373,0.126 -0.116,0.04 -0.2051,0.099 -0.2969,0.142 -0.0762,0.054 -0.1621,0.093 -0.2168,0.147 -0.0293,0.023 -0.0586,0.047 -0.0828,0.068 -0.0266,0.021 -0.0442,0.047 -0.0637,0.067 -0.041,0.043 -0.0762,0.076 -0.0965,0.111 -0.048,0.063 -0.0715,0.097 -0.0715,0.097 l -7e-4,-0.001 -1.3996,2.572 c 0.1199,-0.032 0.2585,-0.048 0.3875,-0.073 l 1.7953,-2.514 -0.9571,2.415 c 0.7504,-0.045 1.6016,-0.001 2.5672,0.156 2.7383,0.454 6.0285,1.67 9.2656,3.434 0.9719,0.529 1.92,1.098 2.8165,1.689 0.9804,0.65 1.291,2.011 0.6914,3.038 -2.5059,4.301 -6.1758,9.664 -10.5899,10.138 5.3008,1.788 10.6582,-5.069 12.7297,-8.124 0.5488,-0.811 1.4754,-1.081 2.2547,-0.656 0.2031,0.111 0.3867,0.265 0.543,0.459 0.755,0.925 1.2636,1.788 1.5156,2.563 l 0.0449,-0.082 c -0.0476,-1.052 -0.5359,-2.444 -1.9535,-4.234 l 5.7203,-11.666 -6.3871,10.623 c -0.009,-0.017 -0.0148,-0.036 -0.0234,-0.053 l 8.5871,-17.095 -9.1332,15.525 c -0.0043,-0.021 -0.0114,-0.04 -0.0157,-0.061 l 10.6664,-21.134 -9.8753,16.868 8.7503,-17.479 -0.014,0.024 c 0.6949,-1.277 1.289,-2.368 1.7109,-3.143 1.043,0.72 2.0742,1.466 2.9477,2.384 0.625,0.654 1.2187,1.317 1.7472,2.054 0.4286,0.599 0.7762,1.228 1.0926,1.895 -0.2519,-0.7 -0.5379,-1.362 -0.9101,-2.007 -0.4551,-0.781 -0.9766,-1.5 -1.5352,-2.214 -0.8457,-1.079 -1.8805,-1.993 -2.9262,-2.876 0.002,-0.004 0.0047,-0.008 0.0071,-0.012 -0.0727,-0.058 -0.1489,-0.113 -0.2219,-0.171 -0.0086,-0.008 -0.0176,-0.016 -0.027,-0.023 -4e-4,10e-4 -4e-4,10e-4 -7e-4,0.002 -1.1817,-0.929 -2.4872,-1.795 -3.8809,-2.554 -3.0324,-1.65 -6.2668,-2.708 -9.1047,-2.976 z m 19.0781,14.133 -1.0613,1.95 c -0.6105,3.648 -0.2351,6.485 0.1316,9.227 0.5196,3.883 1.0071,7.552 -1.6953,12.533 v 0 c -0.1367,0.29 -0.2254,0.451 -0.3418,0.66 -0.0546,0.094 -0.1113,0.195 -0.1824,0.328 -1.2062,2.208 -3.2519,3.892 -5.6183,4.617 -2.8149,0.863 -6.0375,0.394 -9.3325,-1.339 -0.5925,-0.008 -1.2418,-0.066 -1.9468,-0.182 -0.5856,-0.096 -1.2012,-0.236 -1.8317,-0.4 -2.807,2.758 -6.3461,4.862 -10.0062,3.51 -0.2735,-0.102 -0.5848,-0.244 -0.9012,-0.417 -0.0461,-0.025 -0.084,-0.052 -0.1289,-0.078 l -0.0031,0.006 -2.1602,-1.175 0.0074,-0.013 c -2.8816,-1.656 -3.925,-5.364 -2.6402,-9.514 0.2207,-0.715 0.0391,-1.754 -0.4109,-2.364 -0.0297,-0.041 -0.0696,-0.097 -0.1075,-0.162 -1.1789,-1.66 -1.5289,-3.11 -0.957,-4.164 l 6.1004,-11.203 -16.0402,6.06 -1.4828,4.678 c -0.1493,-0.774 -0.3922,-1.531 -0.7016,-2.25 -0.4942,-1.221 -1.1211,-2.383 -1.8262,-3.493 0.586,1.12 1.0977,2.28 1.4797,3.485 0.3981,1.247 0.7031,2.547 0.5402,3.859 l -0.005,0.017 c -0.0438,0.207 -0.1067,0.401 -0.1856,0.585 l -0.0129,0.04 c -0.0031,0.012 -0.0148,0.017 -0.0199,0.029 -0.0906,0.196 -0.1977,0.383 -0.3363,0.546 -0.2168,0.258 -0.8508,0.789 -2.0149,0.155 -1.3398,-0.73 -2.957,-2.782 -4.3261,-5.491 -1.668,-3.304 -2.2344,-6.559 -1.375,-7.915 0.2597,-0.411 0.6515,-0.631 1.0988,-0.618 0.159,0.004 0.3219,0.042 0.4844,0.077 0.0222,0.005 0.0453,-0.003 0.0671,0.005 l 0.0282,0.01 c 0.2054,0.053 0.4121,0.136 0.6195,0.238 l 6.2023,2.379 24.359,-14.43 1.7785,-3.265 c 1.5047,-2.766 8.7782,-2.073 15.2559,1.453 6.4754,3.526 11.0039,9.259 9.4988,12.026"
         style="fill:#3c3a3e;fill-opacity:1;fill-rule:nonzero;stroke:none;stroke-width:0.1"
         id="path170" />
      <path
         d="m 36.7652,385.131 c 0.2059,0.429 0.2489,0.698 0.1434,0.894 -0.0781,0.145 -0.4969,-0.201 -0.7031,-0.629 -0.2059,-0.429 -0.2059,-0.928 -0.043,-0.925 0.1855,0.007 0.3977,0.232 0.6027,0.66"
         style="fill:#3c3a3e;fill-opacity:1;fill-rule:nonzero;stroke:none;stroke-width:0.1"
         id="path172" />
      <path
         d="m 36.8082,383.861 c -0.0773,0.143 -0.4973,-0.202 -0.7012,-0.63 -0.2062,-0.429 -0.2062,-0.928 -0.0402,-0.923 0.1816,0.005 0.3945,0.23 0.5996,0.659 0.207,0.428 0.25,0.697 0.1418,0.894"
         style="fill:#3c3a3e;fill-opacity:1;fill-rule:nonzero;stroke:none;stroke-width:0.1"
         id="path174" />
      <path
         d="m 37.9156,386.131 c 0.1824,0.006 0.3965,0.231 0.6024,0.658 0.207,0.43 0.248,0.699 0.1406,0.896 -0.0781,0.143 -0.4949,-0.202 -0.6992,-0.629 -0.2071,-0.43 -0.209,-0.928 -0.0438,-0.925"
         style="fill:#3c3a3e;fill-opacity:1;fill-rule:nonzero;stroke:none;stroke-width:0.1"
         id="path176" />
      <path
         d="m 34.3676,382.99 c 0.1836,0.006 0.3965,0.231 0.6027,0.661 0.2059,0.427 0.2488,0.697 0.1414,0.893 -0.0781,0.145 -0.4961,-0.202 -0.7012,-0.628 -0.207,-0.429 -0.207,-0.928 -0.0429,-0.926"
         style="fill:#3c3a3e;fill-opacity:1;fill-rule:nonzero;stroke:none;stroke-width:0.1"
         id="path178" />
      <path
         d="m 36.1156,386.76 c 0.1856,0.005 0.4004,0.231 0.6055,0.659 0.2031,0.428 0.248,0.699 0.1387,0.895 -0.0762,0.145 -0.4942,-0.201 -0.7,-0.629 -0.2063,-0.43 -0.2063,-0.929 -0.0442,-0.925"
         style="fill:#3c3a3e;fill-opacity:1;fill-rule:nonzero;stroke:none;stroke-width:0.1"
         id="path180" />
      <path
         d="m 34.857,381.275 c 0.2039,0.429 0.2489,0.697 0.1426,0.895 -0.0801,0.143 -0.4973,-0.201 -0.7031,-0.63 -0.2043,-0.429 -0.2051,-0.927 -0.0422,-0.923 0.1836,0.004 0.3984,0.23 0.6027,0.658"
         style="fill:#3c3a3e;fill-opacity:1;fill-rule:nonzero;stroke:none;stroke-width:0.1"
         id="path182" />
      <path
         d="m 38.0102,388.519 c 0.1836,0.003 0.3964,0.229 0.6015,0.659 0.2082,0.429 0.25,0.697 0.1426,0.894 -0.0781,0.144 -0.4961,-0.202 -0.7031,-0.629 -0.2039,-0.43 -0.2051,-0.928 -0.041,-0.924"
         style="fill:#3c3a3e;fill-opacity:1;fill-rule:nonzero;stroke:none;stroke-width:0.1"
         id="path184" />
      <path
         d="m 79.1547,379.314 c -0.8574,1.481 -1.7363,2.963 -2.7031,4.377 0.7531,-1.795 1.6367,-3.537 2.5293,-5.265 1.8078,-3.494 3.7257,-6.956 5.9101,-10.233 -0.8203,1.883 -1.7383,3.717 -2.6765,5.543 -0.9719,1.886 -1.9973,3.744 -3.0598,5.578"
         style="fill:#3c3a3e;fill-opacity:1;fill-rule:nonzero;stroke:none;stroke-width:0.1"
         id="path186" />
      <path
         d="m 80.4898,374.066 c -0.88,1.557 -1.7882,3.128 -2.8546,4.568 0.1601,-0.424 0.3418,-0.84 0.5246,-1.255 0.8308,-1.885 1.782,-3.722 2.7968,-5.516 0.8789,-1.558 1.7879,-3.127 2.8536,-4.57 -0.1594,0.423 -0.3399,0.841 -0.5247,1.258 -0.8339,1.885 -1.7832,3.722 -2.7957,5.515"
         style="fill:#3c3a3e;fill-opacity:1;fill-rule:nonzero;stroke:none;stroke-width:0.1"
         id="path188" />
      <path
         d="m 79.1559,373.196 c 0.3972,-1.187 0.9902,-2.32 1.58,-3.418 0.6121,-1.09 1.2313,-2.203 2.0137,-3.181 -0.3965,1.187 -0.9953,2.314 -1.5793,3.417 -0.6015,1.092 -1.2305,2.205 -2.0144,3.182"
         style="fill:#3c3a3e;fill-opacity:1;fill-rule:nonzero;stroke:none;stroke-width:0.1"
         id="path190" />
      <path
         d="m 64.3363,380.584 c 0.4141,-1.218 1.0293,-2.37 1.6289,-3.504 0.6231,-1.119 1.261,-2.258 2.0586,-3.269 -0.4109,1.221 -1.0234,2.374 -1.625,3.505 -0.6269,1.12 -1.2625,2.26 -2.0625,3.268"
         style="fill:#3c3a3e;fill-opacity:1;fill-rule:nonzero;stroke:none;stroke-width:0.1"
         id="path192" />
      <path
         d="m 73.7203,369.474 c -0.9758,1.858 -1.9699,3.709 -3.0246,5.528 -0.4988,0.864 -1.0059,1.723 -1.5293,2.573 -0.0398,0.064 -0.7305,1.196 -0.7519,1.186 -0.0262,-0.015 0.6894,-1.486 0.7296,-1.57 0.4891,-1.011 0.995,-2.016 1.5164,-3.013 0.9747,-1.861 1.9786,-3.707 3.0266,-5.529 0.4871,-0.846 0.9852,-1.688 1.4988,-2.52 0.0411,-0.062 0.7305,-1.197 0.7532,-1.186 0.0254,0.016 -0.6907,1.487 -0.7305,1.571 -0.4797,0.994 -0.9746,1.982 -1.4883,2.96"
         style="fill:#3c3a3e;fill-opacity:1;fill-rule:nonzero;stroke:none;stroke-width:0.1"
         id="path194" />
    </g>
  </g>
</svg>
