<?xml version="1.0" encoding="UTF-8" standalone="no"?>
<!-- Created with Inkscape (http://www.inkscape.org/) -->

<svg
   width="72.655266mm"
   height="126.91415mm"
   viewBox="0 0 72.655268 126.91416"
   version="1.1"
   id="svg1876"
   inkscape:version="1.1 (c4e8f9ed74, 2021-05-24)"
   sodipodi:docname="drl.svg"
   xmlns:inkscape="http://www.inkscape.org/namespaces/inkscape"
   xmlns:sodipodi="http://sodipodi.sourceforge.net/DTD/sodipodi-0.dtd"
   xmlns="http://www.w3.org/2000/svg"
   xmlns:svg="http://www.w3.org/2000/svg">
  <sodipodi:namedview
     id="namedview1878"
     pagecolor="#ffffff"
     bordercolor="#666666"
     borderopacity="1.0"
     inkscape:pageshadow="2"
     inkscape:pageopacity="0.0"
     inkscape:pagecheckerboard="0"
     inkscape:document-units="mm"
     showgrid="false"
     inkscape:zoom="0.5"
     inkscape:cx="135"
     inkscape:cy="231"
     inkscape:window-width="1920"
     inkscape:window-height="1020"
     inkscape:window-x="0"
     inkscape:window-y="32"
     inkscape:window-maximized="1"
     inkscape:current-layer="layer1" />
  <defs
     id="defs1873" />
  <g
     inkscape:label="Layer 1"
     inkscape:groupmode="layer"
     id="layer1"
     transform="translate(-125.95125,-71.528811)">
    <path
       d="m 170.60766,126.02134 c -0.74144,-0.0849 -1.43209,-0.45072 -2.17227,-0.51672 -0.7681,-0.0965 -1.40291,0.0108 -2.16341,0.1256 1.50194,-0.9547 2.91244,-0.43672 4.33568,0.39105 z m -5.09364,69.84681 c 0.29331,-0.24004 0.62847,-0.51672 1.00426,-0.80618 0.34801,-0.31238 0.7224,-0.65513 1.12615,-1.01441 0.19434,-0.18678 0.38213,-0.39105 0.5764,-0.58909 0.19038,-0.20946 0.41135,-0.39487 0.59543,-0.62591 0.38086,-0.44184 0.77951,-0.89382 1.1363,-1.3915 0.3872,-0.47735 0.70714,-1.00678 1.04867,-1.52606 0.30842,-0.53702 0.63862,-1.06771 0.88363,-1.62506 0.27927,-0.54595 0.49894,-1.10708 0.71987,-1.64288 0.18031,-0.55861 0.3885,-1.08549 0.51925,-1.60602 0.15619,-0.51165 0.25911,-1.01186 0.3682,-1.47021 0.0839,-0.46083 0.17382,-0.88618 0.226,-1.26449 0.0471,-0.37835 0.10401,-0.70844 0.13316,-0.98396 0.0572,-0.5548 0.0889,-0.87219 0.0889,-0.87219 0,0 0.018,0.31994 0.0482,0.87219 0.0108,0.55609 0,1.35849 -0.10545,2.31449 -0.0713,0.47102 -0.1256,0.99026 -0.26272,1.52732 -0.099,0.54591 -0.27315,1.102 -0.44309,1.67966 -0.21341,0.56498 -0.40627,1.16041 -0.68939,1.72665 -0.25264,0.58658 -0.58528,1.13883 -0.90015,1.70636 -0.35664,0.53577 -0.70206,1.08042 -1.10582,1.57173 -0.37072,0.51547 -0.81762,0.95096 -1.22134,1.40039 -0.4215,0.43164 -0.86714,0.81381 -1.27212,1.18071 -0.43802,0.34153 -0.84429,0.66528 -1.22898,0.94711 -0.39994,0.26416 -0.77317,0.5015 -1.09311,0.71099 -0.33002,0.21341 -0.63988,0.35161 -0.88111,0.49132 -0.49513,0.25515 -0.77573,0.40249 -0.77573,0.40249 0,0 0.25408,-0.1893 0.70084,-0.52183 0.22097,-0.16519 0.50146,-0.34657 0.80362,-0.59162 z m -3.42154,-37.42894 V 101.5613 h 2.26242 v 56.87791 z m -0.0407,-63.470905 c -0.001,0.31598 -0.007,0.62843 -0.0144,0.93948 0,0.31094 -0.0216,0.61576 -0.0324,0.91285 -0.0216,0.59036 -0.0939,1.14264 -0.12452,1.61491 -0.0367,0.47232 -0.11552,0.86589 -0.14863,1.14264 -0.0382,0.27567 -0.0763,0.431685 -0.0763,0.431685 0,0 -0.0108,-0.156195 -0.0288,-0.431685 -0.0144,-0.27675 -0.0533,-0.67032 -0.0673,-1.14264 -0.018,-0.47227 -0.0482,-1.02455 -0.0507,-1.61491 -0.007,-0.59291 -0.018,-1.2239 -0.0252,-1.85233 0.007,-0.63225 0.0144,-1.25946 0.0252,-1.85233 0.004,-0.59039 0.0324,-1.14264 0.0507,-1.61621 0.018,-0.47483 0.0533,-0.86585 0.0673,-1.14264 0.018,-0.27531 0.0288,-0.4342 0.0288,-0.4342 0,0 0.0382,0.15871 0.0763,0.4342 0.0324,0.27676 0.10904,0.66781 0.14215,1.14264 0.0367,0.47357 0.10401,1.02582 0.12812,1.61621 0.0144,0.29439 0.036,0.59924 0.036,0.91155 0.004,0.30843 0.0144,0.62592 0.0144,0.94078 z m -3.13338,-11.20546 c -1.24927,-1.44607 -2.04786,-3.01148 -2.6014,-4.78129 -0.27423,-0.87983 -0.44435,-1.79648 -0.5675,-2.709321 -0.0583,-0.434202 0.28071,-0.787149 0.7478,-0.787149 h 13.41707 c 0.46594,0 0.81,0.35294 0.74525,0.787149 -0.11804,0.912841 -0.28935,1.829491 -0.56495,2.709321 -0.55228,1.76981 -1.34705,3.33522 -2.59887,4.78129 -0.85063,0.98013 -1.879,1.879 -2.57855,2.97086 -0.31741,0.49895 -0.57005,0.99917 -0.78588,1.5197 -0.16375,0.40627 -0.56498,0.74779 -0.92807,0.74779 -0.35917,0 -0.75795,-0.34153 -0.92555,-0.74779 -0.21449,-0.52053 -0.46721,-1.02075 -0.78333,-1.5197 -0.69321,-1.09186 -1.7254,-1.99073 -2.57602,-2.97086 z m -1.98056,-11.183863 c 0.36946,-0.01511 0.90014,-0.05585 1.54002,-0.07237 0.63225,-0.01907 1.37624,-0.05078 2.16845,-0.06222 0.79478,-0.01763 1.64288,-0.02015 2.48843,-0.02267 0.85063,0.0025 1.69618,0.005 2.49221,0.02267 0.79095,0.01152 1.53495,0.04315 2.17227,0.06222 0.6348,0.01656 1.16678,0.05711 1.53113,0.07237 0.37453,0.02303 0.58402,0.03808 0.58402,0.03808 0,0 -0.20945,0.01512 -0.58402,0.03808 -0.36435,0.01655 -0.89633,0.05585 -1.53113,0.07363 -0.63732,0.01655 -1.38132,0.05204 -2.17227,0.06348 -0.79603,0.01512 -1.64158,0.01763 -2.49221,0.02267 -0.84555,-0.005 -1.69365,-0.0076 -2.48843,-0.02267 -0.79221,-0.0126 -1.5362,-0.04826 -2.16845,-0.06348 -0.63988,-0.01763 -1.17056,-0.05711 -1.54002,-0.07363 -0.36946,-0.02267 -0.58021,-0.03808 -0.58021,-0.03808 0,0 0.2109,-0.01512 0.58021,-0.03808 z m -3.44187,65.828538 c 0.84299,-0.4545 1.83836,-0.58273 2.66614,-1.0563 0.87984,-0.46594 1.46513,-1.05123 2.18119,-1.72792 -0.8697,2.10627 -2.73218,2.60014 -4.84733,2.78422 z m -19.00713,-4.9946 c 0.83158,-0.24616 1.7381,-0.16626 2.5595,-0.43038 0.8697,-0.24617 1.50195,-0.65384 2.25864,-1.12231 -1.16804,1.70633 -2.90992,1.78885 -4.81814,1.55269 z m 7.59729,-7.44491 c -0.98904,-1.66318 -0.3898,-3.19683 0.55735,-4.74955 -0.11696,0.82018 -0.53832,1.5781 -0.62591,2.39572 -0.12308,0.83796 -0.0216,1.53621 0.0875,2.36401 -0.007,-0.004 -0.0144,-0.007 -0.018,-0.0108 z m -8.47966,-5.75 c 0.62721,0.4355 1.07663,1.10456 1.71269,1.52099 0.64877,0.45961 1.27594,0.6678 2.01612,0.92933 -1.81426,0.14359 -2.835,-1.00678 -3.72881,-2.45032 z m 15.59952,2.81726 c 0.003,-0.53324 0.0108,-0.98267 -0.13316,-1.50195 -0.12308,-0.5015 -0.44816,-0.94203 -0.58528,-1.44224 0.72114,0.89759 1.22264,1.81551 0.71858,2.94419 z m 6.22483,1.53113 c -0.43165,0.7211 -1.12738,1.26579 -1.53621,1.99452 -0.45705,0.74651 -0.63732,1.44987 -0.86966,2.28653 -0.29439,-1.98181 0.89252,-3.19175 2.40587,-4.28105 z M 143.97783,96.192205 c 0.46846,1.26197 0.69191,2.46302 -0.28179,3.53199 0.19685,-0.59288 0.37071,-1.08675 0.3999,-1.71774 0.0472,-0.60306 -0.14971,-1.20867 -0.11804,-1.81425 z m -8.50503,3.958595 c 0.66273,-0.290785 1.42068,-0.322455 2.06815,-0.624655 0.69447,-0.29691 1.17186,-0.69829 1.74951,-1.16293 -0.7808,1.52983 -2.21545,1.781215 -3.81766,1.787585 z m -5.68907,-11.369235 c 0.75159,0.83665 1.16805,1.93865 1.93233,2.74994 0.77318,0.87604 1.60095,1.38257 2.56966,2.00978 -2.64077,-0.41264 -3.71229,-2.39953 -4.50199,-4.75972 z m 16.91357,-0.777 c 0.4672,0.82143 0.60558,1.8041 1.08675,2.60902 0.47357,0.85825 1.06267,1.42576 1.74062,2.11641 -2.09101,-0.81888 -2.60521,-2.64454 -2.82737,-4.72543 z m 31.62054,5.94678 c 0.0547,0.76302 -0.18138,1.52861 -0.10797,2.28656 0.0471,0.79222 0.27819,1.4118 0.54087,2.15449 -1.25182,-1.3242 -0.99411,-2.84136 -0.43294,-4.44105 z m 12.48518,13.850045 c -0.56243,-0.42661 -0.95219,-1.05759 -1.52476,-1.46894 -0.58277,-0.44691 -1.15408,-0.66525 -1.82948,-0.93441 1.68221,-0.0623 2.58488,1.03978 3.35424,2.40335 z m -0.57258,-8.295545 c -0.17022,-0.44564 -0.52435,-0.81003 -0.70717,-1.25438 0.76303,0.74144 1.33945,1.52099 1.01189,2.616665 -0.0673,-0.4888 -0.11193,-0.902705 -0.30483,-1.362285 z m 6.73396,-7.78263 c -0.4812,0.51417 -1.15534,0.83285 -1.62384,1.35594 -0.51035,0.53195 -0.7884,1.07534 -1.12738,1.71774 0.12057,-1.6784 1.31276,-2.45665 2.75122,-3.07368 z m -21.427,25.341125 c 0.20046,-0.43291 0.22097,-0.93696 0.41772,-1.37624 -0.007,1.06393 -0.17383,2.01485 -1.19342,2.53539 0.30986,-0.38216 0.58021,-0.7008 0.7757,-1.15915 z m 7.97308,-0.13568 c -0.79603,0.24112 -1.66443,0.17382 -2.44524,0.43165 -0.82525,0.24112 -1.42831,0.63354 -2.15071,1.08422 1.1033,-1.63395 2.76773,-1.72917 4.59595,-1.51587 z m -9.66418,2.44776 c 1.6581,-0.18282 3.27305,-0.17886 4.84352,-0.55735 2.93022,3.06608 6.66029,-0.22097 7.86641,-3.5904 -3.17524,1.76981 -6.51429,-2.59762 -7.9959,3.31872 -1.21627,0.0788 -2.42365,-0.0633 -3.64881,-0.16519 3.1562,-0.51165 1.02201,-2.66869 2.23068,-4.32805 -2.02882,0.46213 -4.19857,2.39316 -2.59125,4.30264 -0.48246,-0.036 -0.96744,-0.0633 -1.45879,-0.0623 -1.1096,0.003 -2.14686,0.17275 -3.13968,0.46469 0.0443,-0.0597 0.0749,-0.11805 0.11409,-0.17527 2.11386,-3.08767 5.09104,-5.47832 8.18761,-7.51473 2.88959,-1.89933 6.11056,-3.35557 8.80337,-5.52784 -0.53069,3.46728 3.55106,4.35854 6.44572,3.5041 -2.71058,-1.24927 -1.57809,-5.46562 -5.82107,-4.01445 0.44309,-0.39105 0.87348,-0.80114 1.27846,-1.24549 2.35512,-2.58869 3.83292,-5.485925 5.11901,-8.648485 3.56376,1.15786 4.95904,-2.92641 4.41187,-5.96712 -1.59969,2.66996 -5.9633,0.82526 -4.48295,5.92015 -0.51928,1.11723 -1.05123,2.2205 -1.69618,3.27935 -0.34261,0.56243 -0.70843,1.0893 -1.08552,1.60225 0.59291,-1.7584 -1.74695,-1.94885 -2.05926,-3.70596 -1.05252,1.75203 -1.15153,4.561665 1.19849,4.815565 -0.53958,0.65639 -1.10708,1.29501 -1.71651,1.92981 -3.09145,2.97593 -7.17828,4.54258 -10.94264,6.47621 -0.11696,0.0673 -0.22601,0.13316 -0.33649,0.20046 0.65636,-1.40798 1.25179,-2.85404 1.52224,-4.33947 0.46339,-2.30049 0.40498,-4.37376 0.0216,-6.598105 3.54725,-1.98689 1.31657,-6.09149 -1.50828,-7.88289 0.95219,3.22475 -3.69706,5.34879 1.41943,7.89052 0.13208,2.277645 -0.0252,4.467735 -0.90652,6.645075 -0.87474,2.14815 -2.15956,4.09316 -3.38472,6.0509 -0.85444,0.57513 -1.6911,1.17819 -2.51635,1.82184 -1.67459,1.36357 -3.08512,2.93026 -4.46899,4.57055 -0.77699,0.97126 -1.48161,1.9793 -2.15956,3.00259 v -19.28765 h 0.1166 c 0.39612,0 0.72243,-0.35665 0.72243,-0.79222 V 89.588805 c 0.18786,-0.77953 0.43798,-1.48416 0.88237,-2.18751 0.65128,-1.02964 1.49432,-1.94121 2.18368,-2.94927 1.22264,-1.78759 1.99837,-3.83799 2.26749,-5.94679 0.12812,-1.00171 0.20693,-2.01104 0.21449,-3.020366 0,0 0.003,-0.989015 0.003,-1.978031 0,-1.091852 -0.94204,-1.978027 -2.10501,-1.978027 h -12.88764 c -1.16549,0 -2.11134,0.776993 -2.12278,1.734266 -0.0108,0.759218 -0.018,1.523514 -0.0252,1.734266 -0.0288,1.171837 0.0648,2.344942 0.21449,3.507892 0.26919,2.1088 1.04233,4.1592 2.26497,5.94679 0.68936,1.00806 1.52858,1.91963 2.18242,2.94927 0.47991,0.75541 0.74144,1.51209 0.92681,2.364 v 11.003575 c 0,0.43546 0.3275,0.79222 0.72492,0.79222 h 0.10653 v 6.82663 c -0.13964,-0.10401 -0.27928,-0.20586 -0.42406,-0.31238 -0.43168,-0.3149 -0.88236,-0.64244 -1.34197,-0.97889 -0.96741,-0.56495 -1.96404,-1.21627 -3.04701,-1.72155 -0.90903,-0.4672 -1.85363,-0.89763 -2.80963,-1.31405 -0.20693,-0.30734 -0.50531,-0.75284 -0.87347,-1.30642 -0.16771,-0.26272 -0.26776,-0.55861 -0.4215,-0.86585 -0.14719,-0.30986 -0.30086,-0.63606 -0.45961,-0.97633 -0.20585,-0.73507 -0.53195,-1.498105 -0.67288,-2.318275 -0.18282,-0.80874 -0.3185,-1.63525 -0.42787,-2.41602 -0.13855,-0.78081 -0.20837,-1.51465 -0.37453,-2.1342 -0.0763,-0.30986 -0.14611,-0.59417 -0.20585,-0.84555 -0.0288,-0.0723 -0.0533,-0.12056 -0.0813,-0.18678 2.86037,-4.0716 -1.78125,-7.45507 -5.86429,-7.96291 2.7601,3.08893 -1.2899,7.90069 5.72081,8.04795 0.0144,0.0547 0.0252,0.0928 0.0392,0.15116 0.0216,0.25515 0.0443,0.53831 0.0698,0.85318 0.0659,0.61195 0.0252,1.35594 0.0392,2.14434 -0.007,0.79603 -0.003,1.64921 0.0633,2.52398 0.0144,0.87348 0.22853,1.749485 0.33901,2.584885 0.12704,0.42405 0.25264,0.83159 0.36564,1.21882 0.0432,0.12704 0.0799,0.25768 0.11805,0.38468 -0.44309,-0.1803 -0.88618,-0.35916 -1.32802,-0.53957 -1.13756,-0.4761 -2.27638,-0.95093 -3.39872,-1.41943 -0.76936,-0.36434 -1.5362,-0.71095 -2.28145,-1.072785 3.74784,-2.05167 0.15619,-3.66025 0.85569,-6.19564 -1.94374,1.28482 -3.51043,3.984 -1.93103,5.65732 -0.45198,-0.23752 -0.90522,-0.46468 -1.33435,-0.70717 -0.47102,-0.28827 -0.93441,-0.56876 -1.38387,-0.84174 -0.9217,-0.51672 -1.67713,-1.16549 -2.43635,-1.6911 -0.75414,-0.53324 -1.34194,-1.14897 -1.91963,-1.63269 -0.31994,-0.26164 -0.58402,-0.52817 -0.82396,-0.78336 2.22561,-5.44275 -4.02081,-8.16603 -8.877,-7.70263 3.99793,2.87564 0.5421,9.50418 8.71448,7.87786 0.21197,0.27531 0.45072,0.56368 0.74147,0.85188 0.53321,0.53706 1.07278,1.22264 1.78503,1.83203 0.24257,0.20298 0.49387,0.4342 0.74274,0.66018 -2.29672,-0.44687 -4.34965,2.18626 -4.91971,4.683555 2.49984,-1.81426 5.74618,1.41053 6.51684,-3.372065 0.42787,0.31994 0.86585,0.64625 1.31531,0.98141 0.46465,0.3239 0.95726,0.627175 1.44606,0.952185 0.98014,0.66529 2.05167,1.23153 3.11811,1.86378 1.08297,0.57513 2.1799,1.16167 3.28572,1.74951 2.20149,1.15404 4.39791,2.27005 6.29087,3.48632 0.97885,0.57257 1.80537,1.24164 2.63058,1.82821 0.37072,0.32894 0.73003,0.65129 1.08171,0.95852 0.17275,0.15475 0.34153,0.30735 0.51039,0.4558 0.14359,0.16626 0.28683,0.33001 0.42909,0.48879 0.27927,0.31598 0.54976,0.61829 0.80496,0.90648 0.25156,0.28683 0.39483,0.58403 0.58272,0.84303 0.0108,0.018 0.018,0.0288 0.0288,0.0457 v 21.86624 c -0.24256,-0.22205 -0.49516,-0.44435 -0.77573,-0.64243 -0.32138,-0.2512 -0.65384,-0.51035 -1.0017,-0.77699 -0.36946,-0.23105 -0.74907,-0.46721 -1.13883,-0.71477 -0.61831,-0.41898 -1.31404,-0.74525 -2.01866,-1.10201 -0.0418,-0.0417 -0.0813,-0.0874 -0.13316,-0.14107 -0.25408,-0.25156 -0.62973,-0.60688 -1.05123,-0.99282 -0.43038,-0.39231 -0.93444,-0.83792 -1.45876,-1.32546 3.95097,-0.0144 4.42706,-4.83081 3.06479,-8.07971 -1.0893,3.27301 -5.97727,2.6141 -4.1719,6.99675 -0.15367,-0.15619 -0.30842,-0.31094 -0.45832,-0.47228 -0.26019,-0.27171 -0.49513,-0.56372 -0.73888,-0.84429 -0.22097,-0.29187 -0.46342,-0.57132 -0.65513,-0.86715 -0.41135,-0.57383 -0.72873,-1.15404 -0.97122,-1.66698 -0.13316,-0.25156 -0.20946,-0.50147 -0.30087,-0.71603 -0.0572,-0.13316 -0.0824,-0.23753 -0.11804,-0.35161 0.0324,0.004 0.0572,0.018 0.0889,0.0216 2.76011,-2.80581 -0.72366,-3.11815 -0.84174,-5.40342 -1.37116,1.74188 -1.88533,4.78003 0.64244,5.35516 0.0216,0.13208 0.0367,0.2602 0.0799,0.4215 0.0608,0.22709 0.10401,0.49387 0.20837,0.76684 0.17383,0.55354 0.42024,1.19468 0.76303,1.84093 0.15223,0.33505 0.36183,0.65002 0.55228,0.99026 0.20694,0.31849 0.40754,0.65639 0.63732,0.97125 0.5231,0.74907 1.08553,1.44988 1.61114,2.08342 -0.0144,-0.004 -0.0324,-0.0108 -0.0443,-0.018 -0.95474,-0.37708 -1.92596,-0.71732 -2.89466,-1.06519 -0.43295,-0.15619 -2.37798,-0.85192 -2.8693,-1.04233 -0.9484,-0.34009 -1.84855,-0.7351 -2.72962,-1.10201 -0.43294,-0.19685 -0.84555,-0.41135 -1.25945,-0.61069 -0.15476,-0.0723 -0.28827,-0.16015 -0.43676,-0.23608 3.63995,-1.50828 2.21419,-6.0839 -0.27927,-8.51644 0.25911,3.2362 -3.99034,4.55277 -1.47147,7.5211 -0.0288,-0.018 -0.0583,-0.036 -0.0864,-0.0522 -0.33901,-0.22709 -0.64876,-0.47228 -0.95855,-0.69699 -0.29979,-0.23357 -0.61703,-0.42531 -0.86841,-0.66402 -0.25516,-0.24005 -0.49642,-0.46465 -0.72114,-0.67796 -0.18534,-0.17274 -0.35664,-0.33145 -0.52435,-0.48624 0.60436,-3.94337 -3.95222,-4.76481 -7.09701,-3.6958 3.09908,1.27723 1.84852,6.21342 7.00942,3.85829 0.14215,0.15619 0.28574,0.31238 0.44435,0.48498 0.21449,0.23249 0.44438,0.48121 0.6805,0.74018 0.23861,0.26523 0.54088,0.48372 0.83033,0.74399 0.29691,0.2512 0.59543,0.52687 0.92681,0.78588 0.34513,0.24256 0.69825,0.49135 1.0639,0.74907 0.35916,0.26775 0.7478,0.51039 1.15915,0.73891 0.4012,0.23501 0.81129,0.4888 1.23786,0.7224 0.86585,0.44054 1.75711,0.91281 2.68266,1.32924 0.0914,0.0432 0.18282,0.0824 0.2692,0.1256 -0.0144,0.004 -0.036,0.0108 -0.0558,0.018 -1.03855,0.35053 -2.38049,0.90522 -3.70977,1.40924 -0.66399,0.25264 -1.3356,0.47609 -1.97804,0.63225 -0.55479,0.14467 -1.07789,0.20441 -1.5578,0.22709 -3.05211,-3.39236 -7.04245,0.0583 -8.34376,3.60439 3.31746,-1.81555 6.76567,2.72581 8.36662,-3.34161 0.49005,0.0367 1.03218,0.0432 1.61747,-0.0288 0.68306,-0.0788 1.39909,-0.21701 2.10752,-0.38594 1.4118,-0.33901 2.78933,-0.70973 3.82655,-0.91792 0.51165,-0.0979 0.93319,-0.17886 1.25183,-0.22349 0.31094,-0.0497 0.48628,-0.0774 0.48628,-0.0774 v -0.007 c 0.17526,0.0763 0.35053,0.15367 0.52305,0.23212 0.93445,0.42024 1.87648,0.82781 2.77155,1.26579 0.91282,0.41265 1.75585,0.89126 2.59377,1.32546 0.77066,0.49517 1.56413,0.90903 2.21545,1.42705 -3.37968,-0.95603 -6.0966,3.01656 -6.60317,6.60822 3.11941,-2.69533 7.80422,1.26834 8.2422,-5.29802 0.0723,0.0659 0.15115,0.13712 0.22205,0.2019 0.57258,0.4685 0.95981,0.9687 1.33053,1.38894 0.18282,0.21341 0.35917,0.39868 0.51799,0.59417 0.10796,0.16123 0.20333,0.3059 0.29834,0.44946 v 20.11292 c -0.22709,0.10148 -0.38724,0.348 -0.38724,0.63735 v 7.88797 0.018 c -0.001,0.0979 -0.007,0.94075 -0.007,2.34239 -0.003,1.48161 -0.0144,3.45458 0.09,5.4161 0.0252,0.49261 0.0633,0.97759 0.104,1.46005 0.0443,0.48117 0.0939,0.95345 0.16123,1.40924 0.0533,0.46087 0.14216,0.89507 0.20946,1.30894 0.0954,0.40883 0.16266,0.80747 0.26523,1.15915 0.0954,0.35917 0.17778,0.68559 0.28071,0.97123 0.0979,0.28179 0.16879,0.5345 0.25912,0.73258 0.15979,0.40116 0.25516,0.63225 0.25516,0.63225 0,0 -0.11948,-0.21953 -0.3239,-0.6018 -0.10796,-0.1893 -0.20693,-0.43421 -0.33505,-0.7097 -0.13208,-0.27531 -0.24868,-0.59417 -0.3885,-0.94203 -0.14359,-0.34657 -0.25264,-0.73892 -0.39231,-1.14264 -0.11408,-0.41516 -0.25408,-0.85063 -0.35665,-1.30642 -0.11804,-0.4545 -0.21701,-0.92933 -0.31346,-1.41053 -0.0979,-0.48499 -0.1893,-0.97504 -0.26415,-1.47017 -0.29835,-1.81552 -0.48498,-3.61962 -0.63732,-5.04794 -0.0749,0.0216 -0.15619,0.0407 -0.2476,0.0648 -0.14864,0.0382 -0.3149,0.0623 -0.49769,0.095 -0.18282,0.0216 -0.38216,0.0522 -0.59543,0.0572 -0.21089,0.0144 -0.43802,0.007 -0.6691,-0.0144 -0.46087,-0.0392 -0.94837,-0.16375 -1.39146,-0.36183 -0.21845,-0.0965 -0.43039,-0.21341 -0.62717,-0.33397 -0.10149,-0.0608 -0.19542,-0.12452 -0.28683,-0.18534 -0.0824,-0.0608 -0.18534,-0.12812 -0.27027,-0.17527 -0.34657,-0.19937 -0.7237,-0.33001 -1.05123,-0.4012 -0.3275,-0.0748 -0.61195,-0.10292 -0.80747,-0.11444 -0.20046,-0.0144 -0.31994,-0.0144 -0.31994,-0.0144 0,0 0.11696,-0.018 0.31742,-0.0288 0.19793,-0.0144 0.48879,-0.0324 0.83669,0 0.34909,0.0288 0.75033,0.10041 1.17564,0.27316 0.11049,0.0432 0.19686,0.0849 0.30842,0.13819 0.0965,0.0468 0.19182,0.0914 0.29475,0.1382 0.19938,0.0864 0.40372,0.16267 0.60939,0.21953 0.41769,0.12056 0.84174,0.16375 1.23405,0.14071 0.19542,-0.007 0.38724,-0.036 0.56117,-0.0684 0.17778,-0.0324 0.34297,-0.0799 0.49261,-0.11948 0.15367,-0.0522 0.29439,-0.0914 0.41005,-0.14107 0.11805,-0.0507 0.21342,-0.0813 0.30843,-0.12956 0.0468,-0.0216 0.0723,-0.0324 0.10904,-0.0482 -0.0407,-0.37327 -0.0749,-0.69702 -0.10401,-0.96744 -0.75032,0.22205 -1.55272,0.35809 -1.96659,0.35809 -0.49517,0 -0.94078,-0.19434 -1.24423,-0.50021 -0.40117,-0.40883 -0.85696,-0.58276 -1.42576,-0.58276 h -1.95644 c -0.95345,0 -1.72537,0.42531 -1.72537,1.37372 V 180.449 c 0,6.73645 4.35598,15.25673 12.1475,17.94317 0.18282,0.0608 0.47484,0.0673 0.66018,0.018 7.72422,-2.23323 12.13735,-11.1712 12.13735,-17.96224 v -11.94182 c 0,-0.94841 -0.76811,-1.37372 -1.71777,-1.37372 h -1.959 c -0.57006,0 -1.02456,0.17382 -1.42576,0.58276 -0.29834,0.3059 -0.74651,0.50021 -1.24164,0.50021 -0.80366,0 -3.08004,-0.5091 -3.57391,-1.17183 v -7.91719 c 0,-0.28934 -0.16123,-0.53579 -0.38724,-0.63735 v -31.62943 c 0.17778,-0.36438 0.34801,-0.73762 0.52943,-1.09819 1.27467,3.70214 5.59384,2.31572 7.81181,-0.0547 -3.20571,0.31993 -4.40931,-4.32935 -7.65058,-0.28071 0.59543,-1.16931 1.215,-2.31702 1.87136,-3.44947 1.76477,-1.39783 3.60566,-2.34876 5.89601,-2.60269"
       style="fill:#3c3a3e;fill-opacity:1;fill-rule:nonzero;stroke:none;stroke-width:0.12696"
       id="path16" />
  </g>
</svg>
