<?xml version="1.0" encoding="UTF-8" standalone="no"?>
<!-- Created with Inkscape (http://www.inkscape.org/) -->

<svg
   width="66.509125mm"
   height="86.783333mm"
   viewBox="0 0 66.509125 86.783333"
   version="1.1"
   id="svg1833"
   inkscape:version="1.1 (c4e8f9ed74, 2021-05-24)"
   sodipodi:docname="drp.svg"
   xmlns:inkscape="http://www.inkscape.org/namespaces/inkscape"
   xmlns:sodipodi="http://sodipodi.sourceforge.net/DTD/sodipodi-0.dtd"
   xmlns="http://www.w3.org/2000/svg"
   xmlns:svg="http://www.w3.org/2000/svg">
  <sodipodi:namedview
     id="namedview1835"
     pagecolor="#ffffff"
     bordercolor="#666666"
     borderopacity="1.0"
     inkscape:pageshadow="2"
     inkscape:pageopacity="0.0"
     inkscape:pagecheckerboard="0"
     inkscape:document-units="mm"
     showgrid="false"
     inkscape:zoom="0.71713664"
     inkscape:cx="-13.247127"
     inkscape:cy="109.4631"
     inkscape:window-width="1920"
     inkscape:window-height="1020"
     inkscape:window-x="0"
     inkscape:window-y="32"
     inkscape:window-maximized="1"
     inkscape:current-layer="layer1" />
  <defs
     id="defs1830" />
  <g
     inkscape:label="Layer 1"
     inkscape:groupmode="layer"
     id="layer1"
     transform="translate(-108.41997,-119.68162)">
    <g
       id="g1778"
       transform="matrix(0.35277777,0,0,-0.35277777,92.22406,175.3556)">
      <path
         d="M 153.584,99.3801 C 102.139,106.772 54.2699,70.9371 46.8762,19.491 39.482,-31.9531 75.3199,-79.8219 126.765,-87.2168 c 4.527,-0.65 9.024,-0.9672 13.471,-0.9672 46.083,0 86.493,33.9391 93.237,80.85587 C 240.867,44.116 205.029,91.9852 153.584,99.3801"
         style="fill:#165d44;fill-opacity:1;fill-rule:nonzero;stroke:none;stroke-width:0.1"
         id="path14" />
      <path
         d="m 101.898,7.82227 c 0,0 1.518,-3.39336 0.019,-5.68516 -1.5,-2.291016 -5.9916,-2.1480475 -6.5107,-6.91992 -0.5184,-4.77305 0.5562,-6.59919 2.7289,-10.08629 2.1728,-3.4879 0.5332,-5.593 2.9658,-7.2789 2.431,-1.6872 8.139,-2.675 7.013,-7.0258 -1.127,-4.35 -3.123,-12.4211 -2.072,-14.4114 1.051,-1.9886 -0.282,-1.9648 -0.635,-4.4207 -0.353,-2.457 3.131,-4.9629 2.847,-8.098 -0.283,-3.1352 -3.398,-6.1981 -1.365,-9.4981 2.033,-3.3 2.549,-2.0378 3.459,-5.0101 0.91,-2.9719 1.564,-4.2367 3.178,-4.6348 1.614,-0.3992 4.234,-0.7761 5.192,-2.2511 0.958,-1.475 3.347,1.1902 1.734,2.7601 -1.614,1.568 -3.696,1.032 -3.085,4.1199 0.611,3.0879 2.413,3.9989 -0.042,5.5211 -2.456,1.5239 -2.033,3.3008 -1.027,3.325 1.006,0.0219 3.324,1.0258 1.383,2.6418 -1.941,1.6153 -2.549,2.0371 -1.052,1.9891 1.498,-0.0469 6.129,-1.5488 10.204,2.3781 4.074,3.927 7.751,8.5801 7.751,8.5801 0,0 1.22,2.666 0.777,5.4047 -0.442,2.7371 1.664,3.4371 5.291,3.0843 3.626,-0.355 3.206,1.377 3.206,1.377 0,0 3.203,-3.3023 4.29,10.0809 0,0 -0.185,2.1988 3.935,4.114 4.119,1.9149 0.637,6.7621 -1.703,6.7641 0,0 -0.909,2.9707 -2.851,3.418 -1.942,0.4457 -6.364,-0.0883 -8.164,1.3398 -1.801,1.42891 -4.303,2.62422 -4.303,2.62422 0,0 2.208,9.54375 -7.151,9.55195 0,0 -1.351,6.87969 -6.055,6.72071 -4.703,-0.15977 -5.265,-0.58086 -5.942,0.51914 -0.678,1.10117 -1.563,5.40698 -4.863,4.54298 -3.3,-0.8621 -4.075,-5.09611 -7.28,-4.134 -3.205,0.9621 -7.2522,0.7082 -6.2901,3.9129 0.9621,3.2043 1.5031,6.9703 -3.5039,7.0211 0,0 -1.2625,0.516 0.821,2.223 2.0836,1.7059 1.1266,4.35 -0.0667,4.1871 -1.193,-0.1621 -4.7286,-2.6628 -6.4129,-2.755 -1.6852,-0.0922 -7.0657,0.8488 -4.1118,7.4441 2.9536,6.5957 17.0864,7.2379 18.1124,3.9148 1.027,-3.323 -0.167,-4.655 3.131,-4.9628 3.299,-0.3071 2.298,5.5199 2.298,5.5199 l 8.989,5.5609 c 0,0 0.937,0.7012 1.593,1.7762 0.656,1.0769 11.61,6.3547 13.977,10.0258 2.366,3.6722 3.163,5.73 6.274,4.1129 3.11,-1.6168 4.397,-1.97 5.193,0.089 0.798,2.059 4.888,-3.2097 6.551,-0.941 1.663,2.2672 0.893,5.0524 -2.546,5.5461 -3.439,0.4949 1.056,3.8609 -0.323,4.727 -1.38,0.8671 -3.979,-2.1028 -5.312,-0.9079 -1.332,1.195 1.479,5.6372 -3.013,5.7821 -4.492,0.1449 -5.054,-0.2762 -6.439,-5.259 -1.385,-4.982 -3.346,-0.0203 -6.882,-3.691 -3.536,-3.6703 -2.715,-1.4481 -3.064,0.775 -0.35,2.223 -2.781,3.909 -5.261,4.0988 -2.48,0.1891 -1.493,4.727 2.158,5.707 3.65,0.9789 8.074,2.6832 8.074,2.6832 0,0 0.395,-3.0652 3.016,-2.2711 2.621,0.793 3.513,3.5059 3.513,3.5059 l 2.62,-0.3758 c 0,0 1.78,1.9168 2.294,2.0098 0.515,0.093 5.896,-0.8469 5.896,-0.8469 0,0 3.042,0.2301 0.162,-1.1941 -2.879,-1.4239 -4.632,0.332 -4.003,-2.266 0.63,-2.5981 0.842,-1.1239 2.759,-2.9028 1.917,-1.7812 4.983,-1.3851 5.663,1.0238 0,0 3.953,-1.571 4.821,0.979 0.867,2.5492 -1.191,3.346 -1.191,3.346 0,0 -0.348,3.393 -3.879,5.5731 -3.531,2.1777 -12.467,3.9641 -13.314,-0.7609 -0.846,-4.7262 -4.423,-1.7039 -4.423,-1.7039 0,0 2.153,1.0269 2.53,3.6468 0.377,2.6199 -6.641,3.7961 -6.807,1.4801 -0.166,-2.316 1.518,-3.3941 -0.378,-3.7902 -1.895,-0.3961 -3.651,-0.9801 -6.014,-1.141 -2.363,-0.1618 -2.618,2.716 -2.618,2.716 0,0 1.801,-0.259 4.399,0.3711 2.597,0.6289 4.12,3.0851 1.243,3.9988 -2.877,0.9152 0.185,-2.1988 -6.201,-1.2809 0,0 -0.795,0.2809 -1.495,2.3871 -0.701,2.1071 -6.572,3.118 -8.68,1.2481 -2.107,-1.8703 -0.985,-3.3692 0.769,-3.9551 1.754,-0.5871 -0.75,-1.7301 2.01,-2.2949 2.76,-0.5633 3.883,-0.8922 3.111,-1.6172 -0.773,-0.7238 -14.5743,3.2652 -14.2903,6.4012 0,0 -27.7129,-12.5653 -38.7785,-38.386 0,0 0.2793,-1.5441 2.057,-1.9672 1.7777,-0.423 2.9242,-0.5871 2.266,-4.0031 -0.6582,-3.4148 -1.6937,-10.6199 2.8684,-11.4429 4.5617,-0.8231 2.2719,3.016 1.1972,4.8421 -1.0746,1.8258 -1.7718,7.4418 0.8707,6.059 2.643,-1.3832 -1.2414,-1.6601 2.7067,-9.0801 3.9476,-7.421 -2.1582,-6.8769 2.5863,-12.239 4.7449,-5.3629 7.3942,0.2742 8.9598,-1.6219 1.566,-1.8969 0.0676,-3.0191 3.1789,-3.466 3.1117,-0.4469 1.8027,0.9109 3.2035,-2.132 1.4016,-3.043 2.3789,-9.03324 11.5523,-6.84183"
         style="fill:#83a981;fill-opacity:1;fill-rule:nonzero;stroke:none;stroke-width:0.1"
         id="path16" />
      <path
         d="m 133.592,51.5711 c 0,0 -2.481,-0.9801 -1.336,-2.3152 1.146,-1.334 4.258,-0.611 1.336,2.3152"
         style="fill:#83a981;fill-opacity:1;fill-rule:nonzero;stroke:none;stroke-width:0.1"
         id="path18" />
      <path
         d="m 137.246,56.0609 c 0,0 -1.451,0.375 -1.686,-1.2617 -0.235,-1.6383 2.478,-2.5293 3.321,-1.314 0.844,1.216 -1.635,2.5757 -1.635,2.5757"
         style="fill:#83a981;fill-opacity:1;fill-rule:nonzero;stroke:none;stroke-width:0.1"
         id="path20" />
      <path
         d="m 141.314,52.9691 c 0,0 -1.218,-1.4972 -2.575,-1.6359 -1.357,-0.1402 -3.135,0.2828 -2.155,-2.1973 0.981,-2.482 3.183,0.0442 3.183,0.0442 0,0 4.844,1.1422 1.547,3.789"
         style="fill:#83a981;fill-opacity:1;fill-rule:nonzero;stroke:none;stroke-width:0.1"
         id="path22" />
      <path
         d="m 146.51,55.3969 c 0,0 -4.281,0.4492 -2.412,-2.8289 0,0 1.239,-0.6789 2.408,-1.85 1.169,-1.1711 4.117,-1.595 4.376,0.207 0.259,1.802 -0.441,3.907 -4.372,4.4719"
         style="fill:#83a981;fill-opacity:1;fill-rule:nonzero;stroke:none;stroke-width:0.1"
         id="path24" />
      <path
         d="m 189.938,30.7699 c 0,0 -7.672,2.4403 -10.203,-2.3777 -2.531,-4.818 -1.456,-5.4742 -8.593,-7.4563 -7.138,-1.9828 -1.737,-6.2687 -1.737,-6.2687 0,0 2.291,-1.5 -0.447,-3.1109 -2.739,-1.61333 -3.913,-6.29107 -2.652,-9.14732 1.261,-2.855074 5.022,-9.24609 7.689,-10.46484 2.666,-1.21797 10.386,-2.16094 12.002,-0.21992 1.616,1.93984 2.997,2.24297 5.054,0.27578 2.057,-1.9668 8.914,-0.78008 8.14,-2.675 -0.774,-1.8938 -4.38,-6.0551 -1.601,-11.1348 2.781,-5.08 4.719,-9.0363 1.488,-11.7472 -3.231,-2.711 -3.071,-6.2438 -0.172,-9.3348 0,0 -2.275,-6.5262 -0.172,-9.3363 2.103,-2.809 1.726,-6.5989 0.953,-8.4938 -0.774,-1.8941 0.045,-0.841 0.045,-0.841 0,0 -0.587,-2.9242 0.982,-1.3121 1.569,1.6129 36.012,31.9301 30.228,81.232 0,0 -8.306,-0.8109 -9.123,1.6461 -0.817,2.4578 -3.53,3.35 -9.006,2.4649 -5.476,-0.8848 -3.321,1.3121 -5.216,2.0871 -1.894,0.773 -3.953,0.4008 -3.953,0.4008 0,0 5.6,9.8921 -13.706,5.814"
         style="fill:#83a981;fill-opacity:1;fill-rule:nonzero;stroke:none;stroke-width:0.1"
         id="path26" />
      <path
         d="m 192.85,42.8871 c 0,0 1.003,-3.4871 -1.383,-2.643 -2.386,0.845 -8.584,3.0719 -8.917,-2.7289 -0.332,-5.8031 4.862,-5.7132 9.355,-4.6882 4.493,1.0261 6.767,6.382 6.767,6.382 0,0 4.514,-2.3199 6.271,0.6031 0,0 1.89,-5.4539 4.627,-6.1812 0,0 -2.573,-0.4661 -2.108,-3.0399 0.466,-2.5738 8.001,-1.3168 6.367,3.5969 -1.633,4.916 -9.262,4.173 -4.697,6.8601 4.565,2.6872 6.641,-4.966 6.686,-6.9781 0.045,-2.0117 -1.644,-6.784 2.288,-5.0078 3.933,1.7738 3.095,7.577 4.333,4.5578 1.237,-3.0187 -1.082,-6.3629 2.544,-6.7179 3.627,-0.3528 4.586,-0.6579 4.586,-0.6579 0,0 -6.227,24.127 -19.597,39.2528 0,0 -0.095,-1.8239 -3.464,-2.009 -3.37,-0.184 -5.456,-4.2297 -3.141,-6.7348 2.314,-2.5062 5.848,-1.175 5.753,-3 -0.096,-1.825 -0.728,-2.7371 -3.394,-1.5179 -2.666,1.2187 -4.374,0.9628 -5.055,-1.4461 -0.681,-2.4102 -1.782,-4.2571 -3.653,-3.3192 -1.871,0.9371 -6.271,-0.6039 -4.168,-4.5828"
         style="fill:#83a981;fill-opacity:1;fill-rule:nonzero;stroke:none;stroke-width:0.1"
         id="path28" />
      <path
         d="m 186.965,56.6031 c 0,0 -3.792,-1.9621 -0.73,-5.0769 3.063,-3.1141 3.888,3.7867 5.478,3.2238 1.591,-0.5629 1.519,-2.2238 0.442,-2.7371 -1.076,-0.5137 -3.184,-2.384 -1.102,-3.018 2.082,-0.634 7.112,-1.6898 7.044,1.3281 -0.068,3.018 -2.361,3.3481 -2.361,3.3481 0,0 -2.29,2.6691 -0.627,4.9371 0,0 0.142,2.1527 -2.361,2.1777 -2.504,0.0262 -2.437,-4.1629 -2.952,-4.2558 -0.515,-0.093 -2.831,0.073 -2.831,0.073"
         style="fill:#83a981;fill-opacity:1;fill-rule:nonzero;stroke:none;stroke-width:0.1"
         id="path30" />
      <path
         d="m 131.418,157.816 c 0,0 -0.818,-8.127 11.48,-12.265 0,0 1.549,9.852 -11.48,12.265"
         style="fill:#527e63;fill-opacity:1;fill-rule:nonzero;stroke:none;stroke-width:0.1"
         id="path32" />
      <path
         d="m 130.534,146.557 c 0,0 -0.82,-8.127 11.48,-12.266 0,0 1.549,9.853 -11.48,12.266"
         style="fill:#527e63;fill-opacity:1;fill-rule:nonzero;stroke:none;stroke-width:0.1"
         id="path34" />
      <path
         d="m 130.544,134.621 c 0,0 -0.818,-8.127 11.48,-12.266 0,0 1.549,9.853 -11.48,12.266"
         style="fill:#527e63;fill-opacity:1;fill-rule:nonzero;stroke:none;stroke-width:0.1"
         id="path36" />
      <path
         d="m 130.455,123.271 c 0,0 -0.819,-8.126 11.48,-12.265 0,0 1.548,9.852 -11.48,12.265"
         style="fill:#527e63;fill-opacity:1;fill-rule:nonzero;stroke:none;stroke-width:0.1"
         id="path38" />
      <path
         d="m 142.602,145.165 c 4.111,1.165 8.377,3.214 10.6,7.055 0.776,1.341 1.42,3.042 1.313,4.624 -0.01,0.151 -0.383,0.196 -0.558,0.137 -4.263,-0.585 -8.74,-2.271 -10.811,-6.319 -0.813,-1.59 -1.313,-3.564 -1.091,-5.362 0.024,-0.189 0.423,-0.17 0.547,-0.135"
         style="fill:#165d44;fill-opacity:1;fill-rule:nonzero;stroke:none;stroke-width:0.1"
         id="path40" />
      <path
         d="m 154.034,145.739 c -0.004,0 -0.01,0.002 -0.014,0.001 -0.006,0 -0.012,-0.002 -0.018,-0.002 -0.005,-0.001 -0.01,-0.002 -0.015,-0.003 -4.278,-0.579 -8.743,-2.258 -10.821,-6.319 -0.813,-1.589 -1.299,-3.567 -1.076,-5.364 0.022,-0.175 0.425,-0.249 0.557,-0.211 4.112,1.165 8.353,3.213 10.575,7.053 0.778,1.344 1.404,3.04 1.298,4.627 -0.008,0.121 -0.307,0.23 -0.486,0.218"
         style="fill:#165d44;fill-opacity:1;fill-rule:nonzero;stroke:none;stroke-width:0.1"
         id="path42" />
      <path
         d="m 153.636,133.769 c -4.263,-0.585 -8.742,-2.276 -10.814,-6.324 -0.813,-1.589 -1.312,-3.564 -1.089,-5.362 0.023,-0.189 0.427,-0.159 0.549,-0.125 4.11,1.165 8.377,3.216 10.599,7.057 0.775,1.339 1.418,3.043 1.312,4.624 -0.009,0.149 -0.38,0.19 -0.557,0.13"
         style="fill:#165d44;fill-opacity:1;fill-rule:nonzero;stroke:none;stroke-width:0.1"
         id="path44" />
      <path
         d="m 153.407,122.428 c -4.264,-0.587 -8.734,-2.268 -10.807,-6.316 -0.814,-1.589 -1.315,-3.563 -1.092,-5.361 0.023,-0.187 0.416,-0.184 0.543,-0.147 4.112,1.164 8.379,3.21 10.602,7.051 0.776,1.342 1.42,3.041 1.314,4.624 -0.01,0.154 -0.387,0.204 -0.56,0.149"
         style="fill:#165d44;fill-opacity:1;fill-rule:nonzero;stroke:none;stroke-width:0.1"
         id="path46" />
      <path
         d="m 141.98,154.495 c -0.138,-7.538 -0.275,-15.077 -0.413,-22.615 -0.22,-12.06 -0.44,-24.119 -0.66,-36.1788 -0.051,-2.7582 -0.101,-5.516 -0.151,-8.2742 -0.007,-0.377 1.292,-0.4372 1.299,-0.075 0.137,7.539 0.275,15.077 0.412,22.615 0.221,12.059 0.44,24.119 0.66,36.179 0.051,2.757 0.101,5.516 0.151,8.274 0.007,0.377 -1.292,0.436 -1.298,0.075"
         style="fill:#165d44;fill-opacity:1;fill-rule:nonzero;stroke:none;stroke-width:0.1"
         id="path48" />
    </g>
  </g>
</svg>
