<?xml version="1.0" encoding="UTF-8" standalone="no"?>
<!-- Created with Inkscape (http://www.inkscape.org/) -->

<svg
   width="100mm"
   height="100mm"
   viewBox="0 0 100 100"
   version="1.1"
   id="svg1051"
   inkscape:version="1.1 (c4e8f9ed74, 2021-05-24)"
   sodipodi:docname="earth-hands.svg"
   xmlns:inkscape="http://www.inkscape.org/namespaces/inkscape"
   xmlns:sodipodi="http://sodipodi.sourceforge.net/DTD/sodipodi-0.dtd"
   xmlns="http://www.w3.org/2000/svg"
   xmlns:svg="http://www.w3.org/2000/svg">
  <sodipodi:namedview
     id="namedview1053"
     pagecolor="#ffffff"
     bordercolor="#666666"
     borderopacity="1.0"
     inkscape:pageshadow="2"
     inkscape:pageopacity="0.0"
     inkscape:pagecheckerboard="0"
     inkscape:document-units="mm"
     showgrid="false"
     width="100mm"
     inkscape:zoom="0.5"
     inkscape:cx="-171"
     inkscape:cy="245"
     inkscape:window-width="1920"
     inkscape:window-height="1020"
     inkscape:window-x="0"
     inkscape:window-y="32"
     inkscape:window-maximized="1"
     inkscape:current-layer="layer1" />
  <defs
     id="defs1048" />
  <g
     inkscape:label="Layer 1"
     inkscape:groupmode="layer"
     id="layer1"
     transform="translate(-86.977611,-83.386179)">
    <g
       id="g1026"
       transform="matrix(0.35277777,0,0,-0.35277777,-5.2220792,280.18301)">
      <path
         d="m 384.438,436.234 -0.116,-1.52 2.168,0.18 0.228,1.529 -1.298,1.024 z m 117.326,31.866 0.338,0.359 c 0.147,-0.559 0.274,-1.161 0.421,-1.773 z m -133.227,-30.653 0.955,0.981 1.593,-0.981 -1.272,-1.055 z m 3.049,-2.775 v -2.037 h -3.303 l -0.907,1.32 v 1.878 h 0.27 z m -5.829,-0.717 v -2.027 l -1.484,-1.477 h -3.329 l 0.529,2.259 1.566,0.137 0.322,0.77 z m -0.982,62.561 v 2.459 l 2.148,-1.931 z m 1.757,-58.415 v -2.068 l -1.556,-1.002 -1.953,-0.359 v 3.429 z m -2.849,60.557 v -2.142 h -6.242 l -2.326,0.633 0.591,1.509 2.986,1.224 h 4.079 v -1.224 z m -14.472,7.787 2.712,1.309 2.464,-0.602 -0.839,-3.302 -2.67,-0.845 z m -5.967,11.945 c 0,0 2.258,0.38 2.459,0.38 0.185,0 0,-2.269 0,-2.269 l -5.123,-0.327 -0.981,1.161 z m -3.645,5.054 v 0.18 h 2.279 l 0.179,0.78 h 3.735 v -1.614 l -1.07,-1.414 h -5.123 z m 136.862,-12.599 0.02,5.086 c 1.773,-1.888 3.503,-3.862 5.15,-5.856 l -2.068,-3.06 -7.133,0.063 -0.444,1.488 z m 16.397,-19.805 0.655,0.759 c 0.865,-1.688 1.667,-3.397 2.447,-5.107 l -1.076,0.021 -2.026,-0.274 z m -187.901,-5.762 0.026,-5.919 4.311,-2.079 v -8.252 l 4.146,-7.059 3.393,-0.527 0.433,2.417 -3.989,6.162 -0.775,5.962 h 2.326 l 0.982,-6.152 5.76,-8.389 -1.503,-2.712 3.667,-5.603 9.095,-2.226 v 1.456 l 3.625,-0.528 -0.343,-2.574 2.87,-0.528 4.395,-1.203 6.226,-7.112 7.977,-0.591 0.205,-1.72 h 3.16 l -2.711,-3.798 0.121,-0.971 -1.609,-1.129 -0.195,-0.275 -0.111,0.064 -3.535,-2.469 -0.253,-5.793 -0.797,-3.546 7.888,-9.866 0.617,-3.376 c 0,0 2.849,-0.77 3.187,-0.77 0.343,0 6.399,-4.58 6.399,-4.58 v -17.843 l 2.169,-0.601 -1.482,-8.22 3.645,-4.854 -0.66,-8.135 4.785,-8.453 6.179,-5.371 6.193,-0.115 0.591,1.973 -4.526,3.851 0.248,1.889 0.817,2.354 0.164,2.373 -3.081,0.085 -1.546,1.93 2.548,2.49 0.343,1.848 -2.849,0.812 0.164,1.741 4.073,0.612 6.199,2.965 2.073,3.81 6.49,8.314 -1.477,6.489 1.983,3.472 5.962,-0.19 4.031,3.166 1.308,12.535 4.432,5.666 0.802,3.63 -4.073,1.319 -2.68,4.4 -9.159,0.095 -7.27,2.754 -0.349,5.192 -2.273,3.956 -1.098,-0.084 -0.295,-1.435 -1.139,-0.707 -1.847,-0.158 c -0.048,0.433 -0.085,0.749 -0.085,0.749 h -0.712 v 1.551 h 2.98 l 0.16,0.391 -4.691,0.073 -3.799,5.973 -3.381,1.656 -0.18,-1.825 -6.131,-0.359 -2.252,3.124 -6.405,1.287 -5.281,-6.078 -8.299,1.393 -0.618,9.359 -6.056,1.045 2.431,4.58 -0.707,2.648 -7.95,-5.329 -5.007,0.623 -1.778,3.914 1.071,4.031 2.776,5.097 6.357,3.218 h 12.282 l -0.043,-3.735 4.416,-2.079 -0.336,6.405 3.165,3.218 6.425,4.21 0.45,2.966 6.41,6.679 6.79,3.756 -0.591,0.507 4.605,4.326 1.683,-0.443 0.776,-0.971 1.751,1.941 0.439,0.201 -1.921,0.275 -1.957,0.632 v 1.868 l 1.044,0.844 h 2.259 l 1.049,-0.453 0.913,-1.826 1.092,0.18 v 0.168 l 0.317,-0.116 3.191,0.475 0.454,1.572 1.831,-0.453 v -1.71 l -1.694,-1.16 0.248,-1.847 5.767,-1.783 0.021,-0.064 1.329,0.116 0.085,2.512 -4.574,2.068 -0.248,1.203 3.799,1.297 0.158,3.651 -3.983,2.417 -0.248,6.131 -5.451,-2.67 h -1.983 l 0.501,4.675 -7.402,1.751 -3.081,-2.321 v -7.091 l -5.513,-1.731 -2.211,-4.632 -2.416,-0.38 v 5.909 l -5.171,0.728 -2.596,1.688 -1.05,3.82 9.276,5.424 4.557,1.393 0.459,-3.06 2.523,0.116 0.184,1.551 2.649,0.359 0.037,0.559 -1.135,0.475 -0.248,1.614 3.256,0.274 1.962,2.048 0.111,0.137 h 0.022 l 0.596,0.623 6.837,0.854 3.029,-2.564 -7.93,-4.221 10.066,-2.384 1.325,3.365 h 4.399 l 1.563,2.934 -3.114,0.812 v 3.704 l -9.776,4.326 -6.742,-0.77 -3.804,-2.005 0.248,-4.833 -3.989,0.592 -0.612,2.69 3.825,3.461 -6.927,0.348 -1.979,-0.612 -0.87,-2.332 2.596,-0.432 -0.518,-2.596 -4.42,-0.275 -0.687,-1.709 -6.404,-0.179 c 0,0 -0.158,3.619 -0.433,3.619 -0.248,0 5.012,0.095 5.012,0.095 l 3.825,3.736 -2.089,1.023 -2.76,-2.691 -4.605,0.274 -2.754,3.81 h -5.878 l -6.157,-4.58 h 5.635 l 0.522,-1.667 -1.456,-1.34 6.221,-0.19 0.955,-2.247 -7.018,0.274 -0.343,1.72 -4.394,0.97 -2.354,1.288 -5.233,-0.042 c 17.173,12.514 38.298,19.911 61.158,19.911 26.337,0 50.374,-9.834 68.735,-26 l -1.224,-2.205 -4.813,-1.889 -2.025,-2.184 0.464,-2.575 2.47,-0.348 1.498,-3.735 4.284,1.73 0.696,-4.991 h -1.266 l -3.525,0.528 -3.883,-0.665 -3.777,-5.328 -5.402,-0.845 -0.76,-4.6 2.279,-0.549 -0.654,-2.965 -5.36,1.076 -4.897,-1.076 -1.034,-2.712 0.845,-5.74 2.87,-1.34 4.833,0.021 3.249,0.296 1.013,2.595 5.107,6.616 3.355,-0.696 3.293,2.997 0.612,-2.332 8.125,-5.498 -0.993,-1.308 -3.671,0.179 1.414,-1.984 2.257,-0.506 2.639,1.097 -0.042,3.197 1.16,0.581 -0.928,1.013 -5.424,3.007 -1.435,4.031 h 4.517 l 1.434,-1.435 3.883,-3.345 0.169,-4.042 4.01,-4.284 1.498,5.857 2.786,1.53 0.527,-4.812 2.723,-2.986 5.424,0.095 c 1.055,-2.691 1.983,-5.445 2.807,-8.252 l -0.571,-0.527 h -8.293 l -5.044,3.767 -5.34,-0.507 v -3.26 h -1.687 l -1.815,1.308 -9.223,2.342 v 5.973 l -11.691,-0.918 -3.609,-1.952 h -4.643 l -2.3,0.253 -5.614,-3.155 v -5.877 l -11.501,-8.283 0.95,-3.567 h 2.342 l -0.612,-3.366 -1.645,-0.612 -0.085,-8.821 9.94,-11.354 h 4.347 l 0.254,0.718 h 7.787 l 2.236,2.068 h 4.411 l 2.427,-2.417 6.584,-0.707 -0.865,-8.726 7.302,-12.894 -3.841,-7.365 0.254,-3.461 3.017,-3.007 v -8.347 l 3.968,-5.329 v -6.922 h 3.439 c -19.077,-23.477 -48.179,-38.514 -80.742,-38.514 -57.429,0 -104.114,46.713 -104.114,104.136 0,14.446 2.959,28.237 8.288,40.74 v 0"
         style="fill:#54b236;fill-opacity:1;fill-rule:evenodd;stroke:none;stroke-width:0.1"
         id="path16" />
      <path
         d="m 371.476,354.647 c -1.109,0.844 -9.867,7.47 -34.167,9.086 -1.335,0.115 -2.686,1.065 -3.872,1.857 -1.509,1.002 -3.082,2.057 -4.227,3.418 -1.856,2.226 -3.957,4.094 -5.724,6.563 -11.813,16.472 -23.393,19.764 -25.124,20.429 -2.3,1.108 -11.137,-0.254 -6.89,-6.152 0.263,-0.042 13.507,-18.645 14.366,-20.122 1.519,-2.628 3.239,-3.704 4.854,-5.55 1.483,-1.689 3.113,-3.229 4.621,-4.886 0,0.011 -8.467,5.023 -10.493,7.206 -0.908,0.992 -1.341,2.406 -2.063,3.568 -0.833,1.35 -1.715,2.659 -2.617,3.967 -1.134,1.614 -2.269,3.218 -3.477,4.79 -1.53,1.995 -3.118,3.957 -4.7,5.919 -0.987,1.214 -2.095,2.397 -2.902,3.673 -4.01,6.331 0.564,10.109 4.917,10.583 -0.206,0.729 -2.21,19.859 -2.57,23.067 -0.991,9.222 -1.983,16.06 -7.264,17.917 -1.367,0.485 -2.332,0.327 -3.334,-0.749 -1.209,-1.267 -1.921,-7.967 -2.264,-12.199 0,0 -1.842,-18.022 -1.847,-29.46 -0.005,-1.404 0.027,-2.713 0.085,-3.862 0.3,-5.687 17.964,-44.804 23.039,-50.86 5.066,-6.025 44.772,-28.922 44.772,-28.922 1.324,-1.098 8.678,-6.753 8.678,-14.182 v -16.112 l 42.798,-0.042 0.037,14.783 c 0.096,2.733 0.565,5.444 0.887,8.156 0.929,3.113 0.19,8.991 -0.243,11.27 -4.981,22.189 -23.287,35.295 -25.276,36.846 v 0"
         style="fill:#fabd60;fill-opacity:1;fill-rule:evenodd;stroke:none;stroke-width:0.1"
         id="path18" />
      <path
         d="m 527.721,427.032 c -0.337,4.232 -1.055,10.932 -2.258,12.199 -1.013,1.076 -1.984,1.234 -3.356,0.749 -5.275,-1.857 -6.267,-8.695 -7.259,-17.907 -0.359,-3.218 -2.342,-22.348 -2.553,-23.077 4.347,-0.474 8.927,-4.252 4.917,-10.583 -0.823,-1.276 -1.921,-2.448 -2.913,-3.673 -1.582,-1.962 -3.165,-3.924 -4.706,-5.919 -1.202,-1.551 -2.342,-3.176 -3.461,-4.79 -0.907,-1.308 -1.793,-2.617 -2.638,-3.967 -0.696,-1.162 -1.14,-2.576 -2.047,-3.568 -2.026,-2.183 -10.488,-7.206 -10.488,-7.206 1.498,1.667 3.123,3.197 4.621,4.896 1.605,1.836 3.314,2.912 4.833,5.54 0.887,1.477 14.118,20.08 14.393,20.122 4.22,5.898 -4.601,7.26 -6.901,6.152 -1.73,-0.654 -13.316,-3.957 -25.134,-20.429 -1.773,-2.469 -3.863,-4.337 -5.719,-6.563 -1.14,-1.361 -2.723,-2.416 -4.221,-3.418 -1.203,-0.792 -2.533,-1.742 -3.884,-1.857 -24.29,-1.604 -33.048,-8.231 -34.145,-9.086 -2.005,-1.551 -20.323,-14.657 -25.282,-36.836 -0.443,-2.28 -1.182,-8.157 -0.253,-11.258 0.337,-2.734 0.801,-5.445 0.886,-8.178 l 0.042,-14.783 42.798,0.042 v 16.123 c 0,7.418 7.345,13.084 8.674,14.171 0,0 39.696,22.897 44.782,28.933 5.065,6.045 22.729,45.172 23.024,50.86 v 8.515 c -0.359,11.079 -1.752,24.796 -1.752,24.796 v 0"
         style="fill:#fabd60;fill-opacity:1;fill-rule:evenodd;stroke:none;stroke-width:0.1"
         id="path20" />
    </g>
  </g>
</svg>
