<?xml version="1.0" encoding="UTF-8" standalone="no"?>
<!-- Created with Inkscape (http://www.inkscape.org/) -->

<svg
   width="120"
   height="120"
   viewBox="0 0 31.75 31.750002"
   version="1.1"
   id="svg2024"
   inkscape:version="1.1 (c4e8f9ed74, 2021-05-24)"
   sodipodi:docname="factory-smoke.svg"
   xmlns:inkscape="http://www.inkscape.org/namespaces/inkscape"
   xmlns:sodipodi="http://sodipodi.sourceforge.net/DTD/sodipodi-0.dtd"
   xmlns="http://www.w3.org/2000/svg"
   xmlns:svg="http://www.w3.org/2000/svg">
  <sodipodi:namedview
     id="namedview2026"
     pagecolor="#ffffff"
     bordercolor="#666666"
     borderopacity="1.0"
     inkscape:pageshadow="2"
     inkscape:pageopacity="0.0"
     inkscape:pagecheckerboard="0"
     inkscape:document-units="mm"
     showgrid="false"
     width="27.60486mm"
     units="px"
     inkscape:zoom="0.71713664"
     inkscape:cx="-151.29613"
     inkscape:cy="101.09649"
     inkscape:window-width="1920"
     inkscape:window-height="1020"
     inkscape:window-x="0"
     inkscape:window-y="32"
     inkscape:window-maximized="1"
     inkscape:current-layer="layer1" />
  <defs
     id="defs2021" />
  <g
     inkscape:label="Layer 1"
     inkscape:groupmode="layer"
     id="layer1"
     transform="translate(-100.93918,-121.81318)">
    <g
       id="g1855"
       transform="matrix(0.35277777,0,0,-0.35277777,36.010432,218.13421)">
      <path
         d="m 238.723,246.258 c 0,-5.036 -5.041,-9.119 -11.258,-9.119 -6.218,0 -11.258,4.083 -11.258,9.119 0,5.037 5.04,9.12 11.258,9.12 6.217,0 11.258,-4.083 11.258,-9.12"
         style="fill:#5d6d90;fill-opacity:1;fill-rule:nonzero;stroke:none;stroke-width:0.1"
         id="path14" />
      <path
         d="m 220.784,249.707 c 0,-4.141 -4.143,-7.497 -9.254,-7.497 -5.11,0 -9.253,3.356 -9.253,7.497 0,4.14 4.143,7.496 9.253,7.496 5.111,0 9.254,-3.356 9.254,-7.496"
         style="fill:#5d6d90;fill-opacity:1;fill-rule:nonzero;stroke:none;stroke-width:0.1"
         id="path16" />
      <path
         d="m 228.351,258.395 c 0,-3.763 -3.766,-6.813 -8.41,-6.813 -4.645,0 -8.411,3.05 -8.411,6.813 0,3.763 3.766,6.813 8.411,6.813 4.644,0 8.41,-3.05 8.41,-6.813"
         style="fill:#5d6d90;fill-opacity:1;fill-rule:nonzero;stroke:none;stroke-width:0.1"
         id="path18" />
      <path
         d="m 216.207,256.491 c 0,-2.502 -2.503,-4.53 -5.591,-4.53 -3.089,0 -5.592,2.028 -5.592,4.53 0,2.501 2.503,4.53 5.592,4.53 3.088,0 5.591,-2.029 5.591,-4.53"
         style="fill:#5d6d90;fill-opacity:1;fill-rule:nonzero;stroke:none;stroke-width:0.1"
         id="path20" />
      <path
         d="m 239.213,264.001 c 0,-3.096 -3.099,-5.606 -6.921,-5.606 -3.822,0 -6.92,2.51 -6.92,5.606 0,3.097 3.098,5.607 6.92,5.607 3.822,0 6.921,-2.51 6.921,-5.607"
         style="fill:#5d6d90;fill-opacity:1;fill-rule:nonzero;stroke:none;stroke-width:0.1"
         id="path22" />
      <path
         d="m 254.622,259.602 c 0,-3.097 -3.099,-5.607 -6.921,-5.607 -3.822,0 -6.921,2.51 -6.921,5.607 0,3.096 3.099,5.606 6.921,5.606 3.822,0 6.921,-2.51 6.921,-5.606"
         style="fill:#5d6d90;fill-opacity:1;fill-rule:nonzero;stroke:none;stroke-width:0.1"
         id="path24" />
      <path
         d="m 245.721,251.582 c 0,-5.287 -5.289,-9.571 -11.814,-9.571 -6.525,0 -11.814,4.284 -11.814,9.571 0,5.285 5.289,9.57 11.814,9.57 6.525,0 11.814,-4.285 11.814,-9.57"
         style="fill:#5d6d90;fill-opacity:1;fill-rule:nonzero;stroke:none;stroke-width:0.1"
         id="path26" />
      <path
         d="m 244.106,242.21 c 0,-5.286 -5.289,-9.571 -11.814,-9.571 -6.524,0 -11.814,4.285 -11.814,9.571 0,5.286 5.29,9.571 11.814,9.571 6.525,0 11.814,-4.285 11.814,-9.571"
         style="fill:#364a76;fill-opacity:1;fill-rule:nonzero;stroke:none;stroke-width:0.1"
         id="path28" />
      <path
         d="m 259.756,243.322 c 0,-5.128 -5.132,-9.285 -11.463,-9.285 -6.33,0 -11.462,4.157 -11.462,9.285 0,5.129 5.132,9.286 11.462,9.286 6.331,0 11.463,-4.157 11.463,-9.286"
         style="fill:#5d6d90;fill-opacity:1;fill-rule:nonzero;stroke:none;stroke-width:0.1"
         id="path30" />
      <path
         d="m 256.861,234.722 c 0,-4.75 -4.753,-8.601 -10.616,-8.601 -5.863,0 -10.617,3.851 -10.617,8.601 0,4.75 4.754,8.6 10.617,8.6 5.863,0 10.616,-3.85 10.616,-8.6"
         style="fill:#364a76;fill-opacity:1;fill-rule:nonzero;stroke:none;stroke-width:0.1"
         id="path32" />
      <path
         d="m 263.709,238.125 c 0,-4.654 -4.656,-8.426 -10.399,-8.426 -5.745,0 -10.401,3.772 -10.401,8.426 0,4.652 4.656,8.425 10.401,8.425 5.743,0 10.399,-3.773 10.399,-8.425"
         style="fill:#364a76;fill-opacity:1;fill-rule:nonzero;stroke:none;stroke-width:0.1"
         id="path34" />
      <path
         d="m 248.184,240.678 c 0,-4.58 -4.582,-8.292 -10.236,-8.292 -5.652,0 -10.235,3.712 -10.235,8.292 0,4.579 4.583,8.292 10.235,8.292 5.654,0 10.236,-3.713 10.236,-8.292"
         style="fill:#364a76;fill-opacity:1;fill-rule:nonzero;stroke:none;stroke-width:0.1"
         id="path36" />
      <path
         d="m 258.057,253.995 c 0,-4.216 -4.219,-7.633 -9.422,-7.633 -5.203,0 -9.422,3.417 -9.422,7.633 0,4.215 4.219,7.633 9.422,7.633 5.203,0 9.422,-3.418 9.422,-7.633"
         style="fill:#46507b;fill-opacity:1;fill-rule:nonzero;stroke:none;stroke-width:0.1"
         id="path38" />
      <path
         d="m 260.664,261.152 c 0,-4.215 -4.218,-7.632 -9.422,-7.632 -5.203,0 -9.422,3.417 -9.422,7.632 0,4.216 4.219,7.633 9.422,7.633 5.204,0 9.422,-3.417 9.422,-7.633"
         style="fill:#5d6d90;fill-opacity:1;fill-rule:nonzero;stroke:none;stroke-width:0.1"
         id="path40" />
      <path
         d="m 249.724,266.266 c 0,-3.049 -3.051,-5.52 -6.815,-5.52 -3.763,0 -6.813,2.471 -6.813,5.52 0,3.049 3.05,5.52 6.813,5.52 3.764,0 6.815,-2.471 6.815,-5.52"
         style="fill:#5d6d90;fill-opacity:1;fill-rule:nonzero;stroke:none;stroke-width:0.1"
         id="path42" />
      <path
         d="m 234.395,184.286 h -44.47 v 13.344 c 2.488,2.488 3.882,4.086 6.369,6.573 h 38.101 v -3.851 -16.066"
         style="fill:#46507b;fill-opacity:1;fill-rule:nonzero;stroke:none;stroke-width:0.1"
         id="path44" />
      <path
         d="m 247.258,212.178 -12.863,-9.986 h 12.863 z"
         style="fill:#364a76;fill-opacity:1;fill-rule:nonzero;stroke:none;stroke-width:0.1"
         id="path46" />
      <path
         d="m 194.065,243.322 h 2.568 c 0,0 1.645,2.633 3.7,3.04 2.054,0.407 6.363,-3.04 6.363,-3.04 l 0.917,13.169 c 0,0 -5.336,-1.113 -9.097,-4.909 -2.241,-2.264 -4.622,-7.44 -4.451,-8.26"
         style="fill:#5d6d90;fill-opacity:1;fill-rule:nonzero;stroke:none;stroke-width:0.1"
         id="path48" />
      <path
         d="m 207.613,227.501 h 3.003 c 0,0 -0.971,9.241 4.507,9.638 5.478,0.396 10.191,-1.851 13.228,0.986 3.036,2.836 -4.668,11.582 -4.668,11.582 0,0 -12.582,-4.762 -14.851,-11.103 -2.269,-6.341 -1.219,-11.103 -1.219,-11.103"
         style="fill:#46507b;fill-opacity:1;fill-rule:nonzero;stroke:none;stroke-width:0.1"
         id="path50" />
      <path
         d="m 223.793,227.501 h 3.003 c 0,0 -0.972,9.241 4.507,9.638 5.478,0.396 10.192,-1.851 13.228,0.986 3.036,2.836 -4.668,11.582 -4.668,11.582 0,0 -12.582,-4.762 -14.851,-11.103 -2.269,-6.341 -1.219,-11.103 -1.219,-11.103"
         style="fill:#364a76;fill-opacity:1;fill-rule:nonzero;stroke:none;stroke-width:0.1"
         id="path52" />
      <path
         d="m 195.292,220.617 h -4.47 v -0.007 h 4.47 v 0.007"
         style="fill:#ef3043;fill-opacity:1;fill-rule:nonzero;stroke:none;stroke-width:0.1"
         id="path54" />
      <path
         d="m 195.292,225.706 h -4.271 v -0.007 h 4.271 v 0.007"
         style="fill:#ef3043;fill-opacity:1;fill-rule:nonzero;stroke:none;stroke-width:0.1"
         id="path56" />
      <path
         d="m 195.292,215.529 h -4.668 v -0.008 h 4.668 v 0.008"
         style="fill:#ef3043;fill-opacity:1;fill-rule:nonzero;stroke:none;stroke-width:0.1"
         id="path58" />
      <path
         d="m 195.292,210.44 h -4.867 v -0.006 h 4.867 v 0.006"
         style="fill:#ef3043;fill-opacity:1;fill-rule:nonzero;stroke:none;stroke-width:0.1"
         id="path60" />
      <path
         d="m 195.292,205.352 h -5.065 l -0.001,-0.007 h 5.066 v 0.007"
         style="fill:#ef3043;fill-opacity:1;fill-rule:nonzero;stroke:none;stroke-width:0.1"
         id="path62" />
      <path
         d="m 190.028,200.264 -0.103,-2.634 h 5.367 v 2.634 h -5.264"
         style="fill:#ef3043;fill-opacity:1;fill-rule:nonzero;stroke:none;stroke-width:0.1"
         id="path64" />
      <path
         d="m 195.292,230.794 h -4.072 l -0.001,-0.006 h 4.073 v 0.006"
         style="fill:#ef3043;fill-opacity:1;fill-rule:nonzero;stroke:none;stroke-width:0.1"
         id="path66" />
      <path
         d="m 195.292,235.883 h -3.874 v -0.007 h 3.874 v 0.007"
         style="fill:#ef3043;fill-opacity:1;fill-rule:nonzero;stroke:none;stroke-width:0.1"
         id="path68" />
      <path
         d="m 195.292,205.345 h 5.065 v 0.007 h -5.065 v -0.007"
         style="fill:#b01a4a;fill-opacity:1;fill-rule:nonzero;stroke:none;stroke-width:0.1"
         id="path70" />
      <path
         d="m 195.292,197.63 h 5.367 l -0.103,2.634 h -5.264 v -2.634"
         style="fill:#b01a4a;fill-opacity:1;fill-rule:nonzero;stroke:none;stroke-width:0.1"
         id="path72" />
      <path
         d="m 195.292,230.788 h 4.072 v 0.006 h -4.072 v -0.006"
         style="fill:#b01a4a;fill-opacity:1;fill-rule:nonzero;stroke:none;stroke-width:0.1"
         id="path74" />
      <path
         d="m 195.292,235.883 v -0.007 h 3.874 l -0.001,0.007 h -3.873"
         style="fill:#b01a4a;fill-opacity:1;fill-rule:nonzero;stroke:none;stroke-width:0.1"
         id="path76" />
      <path
         d="m 195.292,215.521 h 4.668 v 0.008 h -4.668 v -0.008"
         style="fill:#b01a4a;fill-opacity:1;fill-rule:nonzero;stroke:none;stroke-width:0.1"
         id="path78" />
      <path
         d="m 195.292,220.61 h 4.469 v 0.007 h -4.469 v -0.007"
         style="fill:#b01a4a;fill-opacity:1;fill-rule:nonzero;stroke:none;stroke-width:0.1"
         id="path80" />
      <path
         d="m 195.292,210.434 h 4.867 l -0.001,0.006 h -4.866 v -0.006"
         style="fill:#b01a4a;fill-opacity:1;fill-rule:nonzero;stroke:none;stroke-width:0.1"
         id="path82" />
      <path
         d="m 195.292,225.699 h 4.271 v 0.007 h -4.271 v -0.007"
         style="fill:#b01a4a;fill-opacity:1;fill-rule:nonzero;stroke:none;stroke-width:0.1"
         id="path84" />
      <path
         d="m 195.292,240.964 h -3.675 l -0.199,-5.081 h 3.874 v 5.081"
         style="fill:#ef3043;fill-opacity:1;fill-rule:nonzero;stroke:none;stroke-width:0.1"
         id="path86" />
      <path
         d="m 199.165,235.883 -0.198,5.081 h -3.675 v -5.081 h 3.873"
         style="fill:#b01a4a;fill-opacity:1;fill-rule:nonzero;stroke:none;stroke-width:0.1"
         id="path88" />
      <path
         d="m 195.292,235.876 h -3.874 l -0.198,-5.082 h 4.072 v 5.082"
         style="fill:#dbc5ca;fill-opacity:1;fill-rule:nonzero;stroke:none;stroke-width:0.1"
         id="path90" />
      <path
         d="m 195.292,230.794 h 4.072 l -0.198,5.082 h -3.874 v -5.082"
         style="fill:#898495;fill-opacity:1;fill-rule:nonzero;stroke:none;stroke-width:0.1"
         id="path92" />
      <path
         d="m 195.292,230.788 h -4.073 l -0.198,-5.082 h 4.271 v 5.082"
         style="fill:#ef3043;fill-opacity:1;fill-rule:nonzero;stroke:none;stroke-width:0.1"
         id="path94" />
      <path
         d="m 195.292,225.706 h 4.271 l -0.199,5.082 h -4.072 v -5.082"
         style="fill:#b01a4a;fill-opacity:1;fill-rule:nonzero;stroke:none;stroke-width:0.1"
         id="path96" />
      <path
         d="m 195.292,225.699 h -4.271 l -0.199,-5.082 h 4.47 v 5.082"
         style="fill:#dbc5ca;fill-opacity:1;fill-rule:nonzero;stroke:none;stroke-width:0.1"
         id="path98" />
      <path
         d="m 195.292,220.617 h 4.469 l -0.198,5.082 h -4.271 v -5.082"
         style="fill:#898495;fill-opacity:1;fill-rule:nonzero;stroke:none;stroke-width:0.1"
         id="path100" />
      <path
         d="m 195.292,220.61 h -4.47 l -0.198,-5.081 h 4.668 v 5.081"
         style="fill:#ef3043;fill-opacity:1;fill-rule:nonzero;stroke:none;stroke-width:0.1"
         id="path102" />
      <path
         d="m 195.292,215.529 h 4.668 l -0.199,5.081 h -4.469 v -5.081"
         style="fill:#b01a4a;fill-opacity:1;fill-rule:nonzero;stroke:none;stroke-width:0.1"
         id="path104" />
      <path
         d="m 195.292,215.521 h -4.668 l -0.199,-5.081 h 4.867 v 5.081"
         style="fill:#dbc5ca;fill-opacity:1;fill-rule:nonzero;stroke:none;stroke-width:0.1"
         id="path106" />
      <path
         d="m 195.292,210.44 h 4.866 l -0.198,5.081 h -4.668 v -5.081"
         style="fill:#898495;fill-opacity:1;fill-rule:nonzero;stroke:none;stroke-width:0.1"
         id="path108" />
      <path
         d="m 195.292,210.434 h -4.867 l -0.198,-5.082 h 5.065 v 5.082"
         style="fill:#ef3043;fill-opacity:1;fill-rule:nonzero;stroke:none;stroke-width:0.1"
         id="path110" />
      <path
         d="m 195.292,205.352 h 5.065 l -0.198,5.082 h -4.867 v -5.082"
         style="fill:#b01a4a;fill-opacity:1;fill-rule:nonzero;stroke:none;stroke-width:0.1"
         id="path112" />
      <path
         d="m 195.292,205.345 h -5.066 l -0.198,-5.081 h 5.264 v 5.081"
         style="fill:#dbc5ca;fill-opacity:1;fill-rule:nonzero;stroke:none;stroke-width:0.1"
         id="path114" />
      <path
         d="m 195.292,200.264 h 5.264 l -0.199,5.081 h -5.065 v -5.081"
         style="fill:#898495;fill-opacity:1;fill-rule:nonzero;stroke:none;stroke-width:0.1"
         id="path116" />
      <path
         d="m 219.879,226.346 -2.576,-22.143 h 8.069 v 22.143 h -5.493"
         style="fill:#828e9b;fill-opacity:1;fill-rule:nonzero;stroke:none;stroke-width:0.1"
         id="path118" />
      <path
         d="m 231.073,226.346 h -5.701 v -22.143 h 8.277 l -2.576,22.143"
         style="fill:#34436f;fill-opacity:1;fill-rule:nonzero;stroke:none;stroke-width:0.1"
         id="path120" />
      <path
         d="m 203.235,226.346 -2.576,-22.143 h 8.173 v 22.143 h -5.597"
         style="fill:#828e9b;fill-opacity:1;fill-rule:nonzero;stroke:none;stroke-width:0.1"
         id="path122" />
      <path
         d="m 214.429,226.346 h -5.597 v -22.143 h 8.173 l -2.576,22.143"
         style="fill:#34436f;fill-opacity:1;fill-rule:nonzero;stroke:none;stroke-width:0.1"
         id="path124" />
      <path
         d="m 247.258,184.286 h -12.863 v 17.906 h 12.863 v -17.906"
         style="fill:#364a76;fill-opacity:1;fill-rule:nonzero;stroke:none;stroke-width:0.1"
         id="path126" />
      <path
         d="m 256.614,212.178 -12.863,-9.986 h 12.863 z"
         style="fill:#273865;fill-opacity:1;fill-rule:nonzero;stroke:none;stroke-width:0.1"
         id="path128" />
      <path
         d="m 256.614,184.286 h -12.863 v 17.906 h 12.863 v -17.906"
         style="fill:#273865;fill-opacity:1;fill-rule:nonzero;stroke:none;stroke-width:0.1"
         id="path130" />
      <path
         d="m 265.97,212.178 -12.864,-9.986 h 12.864 z"
         style="fill:#1e2f57;fill-opacity:1;fill-rule:nonzero;stroke:none;stroke-width:0.1"
         id="path132" />
      <path
         d="m 265.97,184.286 h -12.864 v 17.906 h 12.864 v -17.906"
         style="fill:#1e2f57;fill-opacity:1;fill-rule:nonzero;stroke:none;stroke-width:0.1"
         id="path134" />
      <path
         d="m 200.659,184.286 h -10.734 v 13.344 h 10.734 v -13.344"
         style="fill:#5c6387;fill-opacity:1;fill-rule:nonzero;stroke:none;stroke-width:0.1"
         id="path136" />
      <path
         d="m 234.395,184.286 h -17.092 v 19.917 h 17.092 v -19.917"
         style="fill:#5c6387;fill-opacity:1;fill-rule:nonzero;stroke:none;stroke-width:0.1"
         id="path138" />
      <path
         d="m 204.745,193.239 h -2.468 v 5.606 h 2.468 v -5.606"
         style="fill:#1e2f57;fill-opacity:1;fill-rule:nonzero;stroke:none;stroke-width:0.1"
         id="path140" />
      <path
         d="m 209.838,193.239 h -2.468 v 5.606 h 2.468 v -5.606"
         style="fill:#1e2f57;fill-opacity:1;fill-rule:nonzero;stroke:none;stroke-width:0.1"
         id="path142" />
      <path
         d="m 214.932,193.239 h -2.469 v 5.606 h 2.469 v -5.606"
         style="fill:#1e2f57;fill-opacity:1;fill-rule:nonzero;stroke:none;stroke-width:0.1"
         id="path144" />
      <path
         d="m 221.513,193.239 h -2.469 v 5.606 h 2.469 v -5.606"
         style="fill:#273865;fill-opacity:1;fill-rule:nonzero;stroke:none;stroke-width:0.1"
         id="path146" />
      <path
         d="m 226.605,193.239 h -2.467 v 5.606 h 2.467 v -5.606"
         style="fill:#273865;fill-opacity:1;fill-rule:nonzero;stroke:none;stroke-width:0.1"
         id="path148" />
      <path
         d="m 231.699,193.239 h -2.469 v 5.606 h 2.469 v -5.606"
         style="fill:#273865;fill-opacity:1;fill-rule:nonzero;stroke:none;stroke-width:0.1"
         id="path150" />
      <path
         d="m 237.7,244.534 c 0,-4.58 -4.583,-8.292 -10.235,-8.292 -5.653,0 -10.236,3.712 -10.236,8.292 0,4.579 4.583,8.292 10.236,8.292 5.652,0 10.235,-3.713 10.235,-8.292"
         style="fill:#46507b;fill-opacity:1;fill-rule:nonzero;stroke:none;stroke-width:0.1"
         id="path152" />
      <path
         d="m 251.794,246.55 c 0,-4.216 -4.219,-7.633 -9.422,-7.633 -5.204,0 -9.422,3.417 -9.422,7.633 0,4.215 4.218,7.633 9.422,7.633 5.203,0 9.422,-3.418 9.422,-7.633"
         style="fill:#46507b;fill-opacity:1;fill-rule:nonzero;stroke:none;stroke-width:0.1"
         id="path154" />
      <path
         d="m 268.175,244.945 c 0,-3.767 -3.77,-6.82 -8.419,-6.82 -4.651,0 -8.42,3.053 -8.42,6.82 0,3.767 3.769,6.821 8.42,6.821 4.649,0 8.419,-3.054 8.419,-6.821"
         style="fill:#46507b;fill-opacity:1;fill-rule:nonzero;stroke:none;stroke-width:0.1"
         id="path156" />
      <path
         d="m 248.184,257.203 c 0,-4.579 -4.582,-8.292 -10.236,-8.292 -5.652,0 -10.235,3.713 -10.235,8.292 0,4.579 4.583,8.292 10.235,8.292 5.654,0 10.236,-3.713 10.236,-8.292"
         style="fill:#5d6d90;fill-opacity:1;fill-rule:nonzero;stroke:none;stroke-width:0.1"
         id="path158" />
      <path
         d="m 264.871,253.995 c 0,-3.049 -3.051,-5.52 -6.814,-5.52 -3.764,0 -6.815,2.471 -6.815,5.52 0,3.048 3.051,5.52 6.815,5.52 3.763,0 6.814,-2.472 6.814,-5.52"
         style="fill:#5d6d90;fill-opacity:1;fill-rule:nonzero;stroke:none;stroke-width:0.1"
         id="path160" />
      <path
         d="m 231.843,253.995 c 0,-3.049 -3.051,-5.52 -6.814,-5.52 -3.763,0 -6.814,2.471 -6.814,5.52 0,3.048 3.051,5.52 6.814,5.52 3.763,0 6.814,-2.472 6.814,-5.52"
         style="fill:#5d6d90;fill-opacity:1;fill-rule:nonzero;stroke:none;stroke-width:0.1"
         id="path162" />
    </g>
  </g>
</svg>
