<?xml version="1.0" encoding="UTF-8" standalone="no"?>
<!-- Created with Inkscape (http://www.inkscape.org/) -->

<svg
   version="1.1"
   id="svg2"
   xml:space="preserve"
   width="666.66669"
   height="666.66669"
   viewBox="0 0 666.66669 666.66669"
   sodipodi:docname="plant-a-tree.svg"
   inkscape:version="1.1 (c4e8f9ed74, 2021-05-24)"
   xmlns:inkscape="http://www.inkscape.org/namespaces/inkscape"
   xmlns:sodipodi="http://sodipodi.sourceforge.net/DTD/sodipodi-0.dtd"
   xmlns="http://www.w3.org/2000/svg"
   xmlns:svg="http://www.w3.org/2000/svg"><defs
     id="defs6"><clipPath
       clipPathUnits="userSpaceOnUse"
       id="clipPath18"><path
         d="M 0,500 H 500 V 0 H 0 Z"
         id="path16" /></clipPath><clipPath
       clipPathUnits="userSpaceOnUse"
       id="clipPath62"><path
         d="m 256.555,351.859 h 41.202 v -49.611 h -41.202 z"
         id="path60" /></clipPath><clipPath
       clipPathUnits="userSpaceOnUse"
       id="clipPath86"><path
         d="M 78.395,214.061 C 78.829,148.578 117.228,86.4 181.206,58.787 v 0 c 86.327,-37.26 186.515,2.517 223.774,88.845 v 0 c 9.356,21.674 13.851,44.222 13.976,66.429 v 0 z"
         id="path84" /></clipPath><clipPath
       clipPathUnits="userSpaceOnUse"
       id="clipPath146"><path
         d="M 78.3826,278.179 H 418.472 V 44.8057 H 78.3826 Z"
         id="path144" /></clipPath><clipPath
       clipPathUnits="userSpaceOnUse"
       id="clipPath162"><path
         d="M 0,500 H 500 V 0 H 0 Z"
         id="path160" /></clipPath><clipPath
       clipPathUnits="userSpaceOnUse"
       id="clipPath178"><path
         d="M 211.586,210.016 H 415.3 V 199.631 H 211.586 Z"
         id="path176" /></clipPath><clipPath
       clipPathUnits="userSpaceOnUse"
       id="clipPath222"><path
         d="M 120.326,370.419 H 256.68 V 336.206 H 120.326 Z"
         id="path220" /></clipPath><clipPath
       clipPathUnits="userSpaceOnUse"
       id="clipPath270"><path
         d="m 256.601,429.828 h 61.058 v -78.174 h -61.058 z"
         id="path268" /></clipPath><clipPath
       clipPathUnits="userSpaceOnUse"
       id="clipPath382"><path
         d="m 230.197,303.793 c 3.346,-1.338 4.862,2.774 5.444,4.141 v 0 c -1.546,0.581 -5.543,1.194 -5.543,1.194 v 0 c 0,0 -3.246,-3.997 0.099,-5.335"
         id="path380" /></clipPath><linearGradient
       x1="0"
       y1="0"
       x2="1"
       y2="0"
       gradientUnits="userSpaceOnUse"
       gradientTransform="matrix(-2.9731119,-4.7472577,-4.7472577,2.9731119,233.01591,308.54828)"
       spreadMethod="pad"
       id="linearGradient396"><stop
         style="stop-opacity:1;stop-color:#ffffff"
         offset="0"
         id="stop392" /><stop
         style="stop-opacity:0;stop-color:#ffffff"
         offset="1"
         id="stop394" /></linearGradient><mask
       maskUnits="userSpaceOnUse"
       x="0"
       y="0"
       width="1"
       height="1"
       id="mask398"><g
         id="g408"><g
           id="g406"><g
             id="g404"><g
               id="g402"><path
                 d="M -32768,32767 H 32767 V -32768 H -32768 Z"
                 style="fill:url(#linearGradient396);stroke:none"
                 id="path400" /></g></g></g></g></mask><linearGradient
       x1="0"
       y1="0"
       x2="1"
       y2="0"
       gradientUnits="userSpaceOnUse"
       gradientTransform="matrix(-2.9731119,-4.7472577,-4.7472577,2.9731119,233.01591,308.54828)"
       spreadMethod="pad"
       id="linearGradient418"><stop
         style="stop-opacity:1;stop-color:#f4a396"
         offset="0"
         id="stop414" /><stop
         style="stop-opacity:1;stop-color:#f4a396"
         offset="1"
         id="stop416" /></linearGradient><clipPath
       clipPathUnits="userSpaceOnUse"
       id="clipPath428"><path
         d="M 0,500 H 500 V 0 H 0 Z"
         id="path426" /></clipPath><clipPath
       clipPathUnits="userSpaceOnUse"
       id="clipPath444"><path
         d="m 236.659,299.878 c 1.644,-2.348 4.762,1.829 4.762,1.829 v 0 c 0,0 -1.472,2.762 -2.204,3.854 v 0 c -0.924,-0.711 -4.204,-3.334 -2.558,-5.683"
         id="path442" /></clipPath><linearGradient
       x1="0"
       y1="0"
       x2="1"
       y2="0"
       gradientUnits="userSpaceOnUse"
       gradientTransform="matrix(-2.9731777,-4.7473631,-4.7473631,2.9731777,240.16388,304.07172)"
       spreadMethod="pad"
       id="linearGradient458"><stop
         style="stop-opacity:1;stop-color:#ffffff"
         offset="0"
         id="stop454" /><stop
         style="stop-opacity:0;stop-color:#ffffff"
         offset="1"
         id="stop456" /></linearGradient><mask
       maskUnits="userSpaceOnUse"
       x="0"
       y="0"
       width="1"
       height="1"
       id="mask460"><g
         id="g470"><g
           id="g468"><g
             id="g466"><g
               id="g464"><path
                 d="M -32768,32767 H 32767 V -32768 H -32768 Z"
                 style="fill:url(#linearGradient458);stroke:none"
                 id="path462" /></g></g></g></g></mask><linearGradient
       x1="0"
       y1="0"
       x2="1"
       y2="0"
       gradientUnits="userSpaceOnUse"
       gradientTransform="matrix(-2.9731777,-4.7473631,-4.7473631,2.9731777,240.16388,304.07172)"
       spreadMethod="pad"
       id="linearGradient480"><stop
         style="stop-opacity:1;stop-color:#f4a396"
         offset="0"
         id="stop476" /><stop
         style="stop-opacity:1;stop-color:#f4a396"
         offset="1"
         id="stop478" /></linearGradient><clipPath
       clipPathUnits="userSpaceOnUse"
       id="clipPath490"><path
         d="M 0,500 H 500 V 0 H 0 Z"
         id="path488" /></clipPath><clipPath
       clipPathUnits="userSpaceOnUse"
       id="clipPath578"><path
         d="m 328.517,340.558 h 5.767 v -6.624 h -5.767 z"
         id="path576" /></clipPath><clipPath
       clipPathUnits="userSpaceOnUse"
       id="clipPath582"><path
         d="m 328.969,340.558 c -0.345,-1.247 -1.487,-5.758 2.05,-6.549 3.536,-0.79 3.259,4.901 3.259,4.901 0,0 -3.698,1.257 -5.309,1.648"
         id="path580" /></clipPath><linearGradient
       x1="0"
       y1="0"
       x2="1"
       y2="0"
       gradientUnits="userSpaceOnUse"
       gradientTransform="matrix(-0.6241123,-3.994319,3.994319,-0.6241123,331.62436,339.48694)"
       spreadMethod="pad"
       id="linearGradient592"><stop
         style="stop-opacity:1;stop-color:#ffffff"
         offset="0"
         id="stop588" /><stop
         style="stop-opacity:0;stop-color:#ffffff"
         offset="1"
         id="stop590" /></linearGradient><mask
       maskUnits="userSpaceOnUse"
       x="0"
       y="0"
       width="1"
       height="1"
       id="mask594"><g
         id="g604"><g
           id="g602"><g
             id="g600"><g
               id="g598"><path
                 d="M -32768,32767 H 32767 V -32768 H -32768 Z"
                 style="fill:url(#linearGradient592);stroke:none"
                 id="path596" /></g></g></g></g></mask><linearGradient
       x1="0"
       y1="0"
       x2="1"
       y2="0"
       gradientUnits="userSpaceOnUse"
       gradientTransform="matrix(-0.6241123,-3.994319,3.994319,-0.6241123,331.62436,339.48694)"
       spreadMethod="pad"
       id="linearGradient610"><stop
         style="stop-opacity:1;stop-color:#b96944"
         offset="0"
         id="stop606" /><stop
         style="stop-opacity:1;stop-color:#b96944"
         offset="1"
         id="stop608" /></linearGradient></defs><sodipodi:namedview
     id="namedview4"
     pagecolor="#ffffff"
     bordercolor="#666666"
     borderopacity="1.0"
     inkscape:pageshadow="2"
     inkscape:pageopacity="0.0"
     inkscape:pagecheckerboard="0"
     showgrid="false"
     inkscape:zoom="0.5"
     inkscape:cx="145"
     inkscape:cy="-33"
     inkscape:window-width="1920"
     inkscape:window-height="1020"
     inkscape:window-x="0"
     inkscape:window-y="32"
     inkscape:window-maximized="1"
     inkscape:current-layer="g8" /><g
     id="g8"
     inkscape:groupmode="layer"
     inkscape:label="3736563"
     transform="matrix(1.3333333,0,0,-1.3333333,0,666.66667)"><g
       id="g1926"
       transform="translate(13.680164,1.4804876)"><g
         id="g12"><g
           id="g14"
           clip-path="url(#clipPath18)"><g
             id="g20"
             transform="translate(286.9648,160.9951)"><path
               d="m 0,0 c 23.19,-2.161 47.1,2.753 68.218,12.577 10.496,4.883 20.77,12.434 24.136,23.51 1.584,5.207 1.498,10.761 2.392,16.129 5.215,31.303 40.376,47.667 56.22,75.163 3.971,6.892 6.736,14.965 5.162,22.762 -1.923,9.528 -9.902,16.707 -18.396,21.435 -8.493,4.728 -17.902,7.741 -26.08,12.996 -11.158,7.171 -21.225,18.121 -23.261,31.227 -3.83,24.659 -3.381,74.944 -62.646,83.475 -53.553,7.708 -107.855,-54.065 -131.1,-62.857 -51.543,-19.495 -111.502,-13.692 -124.161,-63.954 -15.103,-59.97 43.44,-89.626 56.815,-98.574 13.375,-8.949 17.885,-27.923 13.381,-43.372 -11.981,-41.096 41.335,-39.08 93.629,-19.997 C -13.396,29.602 -30.309,2.825 0,0"
               style="fill:#deeff1;fill-opacity:1;fill-rule:nonzero;stroke:none"
               id="path22" /></g><g
             id="g24"
             transform="translate(304.25,396.7319)"><path
               d="m 0,0 h 39.502 c 0,0 -0.863,7.59 -10.523,3.968 C 23.114,16.905 12.074,14.317 8.107,6.555 2.415,8.453 0,0 0,0"
               style="fill:#ffffff;fill-opacity:1;fill-rule:nonzero;stroke:none"
               id="path26" /></g><g
             id="g28"
             transform="translate(256.5547,351.7896)"><path
               d="m 0,0 c 10.697,3.204 28.399,-0.009 32.381,-21.846 3.98,-21.837 8.848,-27.432 8.848,-27.432 0,0 -12.74,-3.899 -30.188,18.355 C 1.522,-18.784 0,0 0,0"
               style="fill:#62a849;fill-opacity:1;fill-rule:nonzero;stroke:none"
               id="path30" /></g><g
             id="g32"
             transform="translate(290.5625,307.623)"><path
               d="M 0,0 0.285,0.005 C 1.724,0.029 3.202,0.492 4.118,0.84 4.189,0.664 4.261,0.487 4.331,0.32 3.438,-0.022 2.027,-0.468 0.585,-0.544 c 0.103,-1.514 0.596,-3.206 1.062,-4.52 -0.21,0.04 -0.422,0.082 -0.642,0.131 -0.472,1.381 -0.939,3.104 -0.994,4.648 z"
               style="fill:#8bbf43;fill-opacity:1;fill-rule:nonzero;stroke:none"
               id="path34" /></g><g
             id="g36"
             transform="translate(284.4971,314.4053)"><path
               d="M 0,0 0.058,0.172 0.237,0.191 C 2.62,0.433 6.071,1.459 7.535,1.919 7.588,1.735 7.64,1.56 7.691,1.38 6.241,0.923 2.921,-0.066 0.477,-0.346 -0.411,-3.217 -0.094,-7.103 0.149,-9.033 -0.053,-8.923 -0.255,-8.811 -0.46,-8.693 -0.706,-6.577 -0.937,-2.832 0,0"
               style="fill:#8bbf43;fill-opacity:1;fill-rule:nonzero;stroke:none"
               id="path38" /></g><g
             id="g40"
             transform="translate(280.0068,322.4199)"><path
               d="M 0,0 0.067,0.083 0.172,0.1 C 3.25,0.595 8.034,1.931 9.925,2.475 9.963,2.293 10.002,2.105 10.04,1.926 8.134,1.378 3.453,0.074 0.367,-0.436 c -3.229,-4.007 -3.954,-8.468 -4.113,-10.54 -0.172,0.155 -0.345,0.314 -0.519,0.475 C -4.03,-8.191 -3.162,-3.876 0,0"
               style="fill:#8bbf43;fill-opacity:1;fill-rule:nonzero;stroke:none"
               id="path42" /></g><g
             id="g44"
             transform="translate(275.7119,332.1621)"><path
               d="M 0,0 0.091,0.015 C 5.191,0.854 9.892,2.12 11.986,2.72 12.044,2.543 12.101,2.366 12.155,2.186 10.064,1.587 5.375,0.323 0.273,-0.522 c -5.339,-5.528 -7.108,-10.21 -7.586,-11.784 -0.141,0.175 -0.283,0.355 -0.424,0.534 0.626,1.914 2.519,6.392 7.673,11.706 z"
               style="fill:#8bbf43;fill-opacity:1;fill-rule:nonzero;stroke:none"
               id="path46" /></g><g
             id="g48"
             transform="translate(269.9521,342.1421)"><path
               d="m 0,0 0.098,0.012 c 6.447,0.78 10.538,2.094 12.178,2.703 0.13,-0.149 0.262,-0.296 0.391,-0.45 -1.522,-0.58 -5.69,-1.976 -12.403,-2.797 -5.07,-5.247 -7.279,-9.732 -8.033,-11.533 -0.103,0.231 -0.208,0.462 -0.307,0.694 0.942,2.1 3.237,6.383 8.007,11.3 z"
               style="fill:#8bbf43;fill-opacity:1;fill-rule:nonzero;stroke:none"
               id="path50" /></g><g
             id="g52"
             transform="translate(263.3496,348.8105)"><path
               d="m 0,0 0.061,0.055 0.08,0.014 C 3.382,0.645 6.065,2.182 7.478,3.126 7.713,3.063 7.949,2.998 8.185,2.927 6.891,2.008 3.986,0.203 0.319,-0.467 -2.151,-2.762 -3.874,-5.456 -4.953,-7.485 -5.02,-7.213 -5.087,-6.942 -5.149,-6.677 -4.026,-4.664 -2.338,-2.155 0,0"
               style="fill:#8bbf43;fill-opacity:1;fill-rule:nonzero;stroke:none"
               id="path54" /></g><g
             id="g56"><g
               id="g58" /><g
               id="g70"><g
                 clip-path="url(#clipPath62)"
                 opacity="0.419998"
                 id="g68"><g
                   transform="translate(278.4893,326.2124)"
                   id="g66"><path
                     d="m 0,0 c 4.985,-12.823 13.6,-21.281 19.269,-23.709 -0.622,-0.173 -13.154,-3.33 -30.163,18.363 -9.518,12.139 -11.041,30.923 -11.041,30.923 0.083,0.025 0.17,0.046 0.253,0.07 C -11.973,22.905 -5.099,13.114 0,0"
                     style="fill:#3a8f56;fill-opacity:1;fill-rule:nonzero;stroke:none"
                     id="path64" /></g></g></g></g><g
             id="g72"
             transform="translate(256.5547,351.7896)"><path
               d="M 0,0 0.25,0.08 0.253,0.081 0.256,0.08 c 2.684,-0.638 5.208,-1.909 7.465,-3.523 2.241,-1.649 4.207,-3.649 5.944,-5.814 3.472,-4.358 5.979,-9.367 8.119,-14.453 1.895,-5.165 4.375,-10.022 7.561,-14.467 1.581,-2.22 3.346,-4.316 5.306,-6.216 1.939,-1.921 4.091,-3.652 6.552,-4.893 -2.572,1.013 -4.838,2.684 -6.923,4.493 -2.066,1.845 -3.932,3.91 -5.625,6.105 -3.382,4.392 -5.93,9.429 -7.906,14.553 -2.035,5.068 -4.509,9.985 -7.768,14.349 -1.621,2.181 -3.468,4.205 -5.599,5.898 -2.103,1.726 -4.521,3.076 -7.131,3.947 h 0.005 z"
               style="fill:#3f6754;fill-opacity:1;fill-rule:nonzero;stroke:none"
               id="path74" /></g><g
             id="g76"
             transform="translate(336.2305,45.75)"><path
               d="m 0,0 c 0,-5.326 -39.199,-9.644 -87.555,-9.644 -48.355,0 -87.555,4.318 -87.555,9.644 0,5.327 39.2,9.645 87.555,9.645 C -39.199,9.645 0,5.327 0,0"
               style="fill:#e7f2e8;fill-opacity:1;fill-rule:nonzero;stroke:none"
               id="path78" /></g></g></g><g
         id="g80"><g
           id="g82"
           clip-path="url(#clipPath86)"><g
             id="g88"
             transform="translate(181.2056,58.7871)"><path
               d="M 0,0 C 86.328,-37.26 186.515,2.518 223.776,88.845 261.036,175.173 221.258,275.36 134.93,312.621 48.603,349.88 -51.585,310.103 -88.845,223.775 -126.105,137.447 -86.328,37.26 0,0"
               style="fill:#31d7e7;fill-opacity:1;fill-rule:nonzero;stroke:none"
               id="path90" /></g><g
             id="g92"
             transform="translate(307.4668,369.5215)"><path
               d="M 0,0 C 2.313,-1.149 5.303,-1.707 6.384,-4.053 7.252,-5.938 6.183,-8.458 4.224,-9.145 3.807,-9.291 3.342,-9.375 3.029,-9.688 2.498,-10.221 2.674,-11.114 2.95,-11.814 c 1.051,-2.665 3.029,-4.969 3.58,-7.78 0.552,-2.811 -1.415,-6.438 -4.235,-5.939 -0.894,0.158 -1.663,0.7 -2.492,1.067 -3.181,1.406 -7.356,-0.211 -8.758,-3.394 -0.697,-1.582 -0.754,-3.376 -1.337,-5.004 -0.582,-1.628 -2.028,-3.207 -3.745,-2.997 -0.689,0.084 -1.307,0.444 -1.947,0.71 -3.76,1.56 -8.163,-0.266 -11.143,-3.04 -2.979,-2.773 -5.016,-6.398 -7.678,-9.477 -1.8,-2.082 -4.812,-4.017 -7.105,-2.495 -1.786,1.187 -1.906,3.768 -1.477,5.87 0.43,2.101 1.212,4.286 0.556,6.327 -1.044,3.248 -5.224,4.612 -6.417,7.808 -1.03,2.762 0.578,5.831 2.626,7.95 2.049,2.12 4.605,3.796 6.177,6.29 3.38,5.368 0.12,13.607 -6.018,15.209 -0.991,0.258 -2.073,0.391 -2.852,1.056 -1.635,1.396 -0.76,4.317 1.096,5.401 1.857,1.084 4.166,0.878 6.299,0.608 2.133,-0.269 4.418,-0.544 6.332,0.433 2.234,1.14 3.385,3.78 3.413,6.287 0.003,0.233 -0.01,0.464 -0.022,0.695 C -22.31,12.2 -12.446,9.727 -2.712,6.319 -4.89,3.876 -2.025,1.006 0,0"
               style="fill:#08a96b;fill-opacity:1;fill-rule:nonzero;stroke:none"
               id="path94" /></g><g
             id="g96"
             transform="translate(256.8252,385.1621)"><path
               d="m 0,0 c -0.002,-0.005 -0.004,-0.008 -0.005,-0.013 -3.379,-4.898 -14.172,-4.126 -18.191,-9.158 -3.293,-4.124 -0.429,-10.133 2.463,-14.549 -1.999,-0.9 -3.997,-1.801 -5.996,-2.702 -0.258,-4.408 6.47,-6.292 7.168,-10.652 0.704,-4.394 -5.051,-6.939 -9.489,-6.619 -4.438,0.319 -9.376,1.75 -13.004,-0.826 -0.815,5.35 1.504,11.061 5.816,14.328 -2.837,0.672 -5.04,3.425 -5.075,6.341 -0.028,2.424 1.211,5.111 -0.158,7.112 -1.862,2.718 -6.297,1.035 -8.304,-1.578 -2.008,-2.613 -3.357,-6.091 -6.418,-7.309 -1.89,-0.753 -4.01,-0.438 -6.044,-0.447 -5.129,-0.022 -10.208,-2.296 -13.641,-6.107 -1.483,-1.647 -2.724,-3.607 -4.654,-4.697 -1.948,-1.101 -4.362,-1.167 -6.274,-2.328 -3.26,-1.98 -3.815,-7.224 -1.041,-9.841 2.201,2.082 6.316,0.829 7.482,-1.967 1.166,-2.797 -0.31,-6.227 -2.858,-7.866 2.11,-3.486 7.183,-4.249 10.866,-2.505 3.683,1.744 6.14,5.354 7.793,9.079 1.127,2.542 3,5.791 5.681,5.052 0.939,-1.361 1.879,-2.723 2.818,-4.084 1.446,2.645 5.346,5.418 6.789,2.77 0.462,-0.848 0.302,-1.918 0.702,-2.797 1.121,-2.464 4.737,-1.357 7.4,-0.872 3.224,0.588 6.842,-0.599 8.686,-3.309 1.844,-2.709 1.43,-6.871 -1.21,-8.812 -0.68,-0.5 -1.513,-0.897 -1.864,-1.665 -1.084,-2.377 3.194,-3.595 4.225,-5.997 1.103,-2.569 -2.377,-5.095 -5.102,-4.468 -2.726,0.626 -4.665,2.941 -6.778,4.773 -3.584,3.109 -8.655,5.074 -13.117,3.464 -0.841,-0.304 -1.673,-0.757 -2.16,-1.507 -1.271,-1.959 0.454,-4.5 2.323,-5.901 1.867,-1.401 4.191,-2.781 4.499,-5.095 0.481,-3.608 -4.253,-5.586 -7.88,-5.281 -3.627,0.305 -7.662,1.498 -10.636,-0.602 -3.82,-2.698 -4.667,-10.033 -9.32,-9.554 -1.158,0.12 -2.199,0.795 -3.353,0.942 -3.547,0.454 -5.623,-3.789 -6.641,-7.216 -1.018,-3.428 -3.326,-7.625 -6.83,-6.915 -2.316,0.469 -4.037,3.104 -6.377,2.774 -1.695,-0.238 -2.733,-1.932 -3.529,-3.448 -2.052,-3.903 -4.103,-7.806 -6.155,-11.71 -1.723,4.472 -3.447,8.944 -5.171,13.416 -1.42,-3.067 -6.455,-1.744 -8.115,1.2 -1.661,2.942 -1.485,6.581 -2.718,9.727 -1.234,3.146 -5.331,5.763 -7.878,3.542 -3.662,-3.195 1.755,-10.314 -1.636,-13.795 -1.179,-1.21 -3.016,-1.436 -4.514,-2.217 -5.249,-2.734 -4.432,-10.383 -2.846,-16.085 1.35,-4.849 2.699,-9.697 4.048,-14.547 0.26,-0.931 0.563,-1.93 1.331,-2.518 2.991,-2.288 7.006,4.335 10.266,2.45 4.09,-2.364 -3.771,-10.07 0.049,-12.849 1.498,-1.091 4,-0.38 5.108,-1.866 1.428,-1.913 -1.335,-4.492 -0.891,-6.838 0.38,-2.007 2.828,-2.819 4.018,-4.481 1.164,-1.626 1.028,-3.954 2.302,-5.496 3.382,-4.095 10.041,2.134 15.107,0.541 5.938,-1.866 4.494,-12.128 10.038,-14.957 4.067,-2.075 8.89,1.331 13.43,0.842 5.319,-0.573 8.469,-6.036 11.001,-10.749 2.531,-4.714 6.454,-9.939 11.783,-9.454 3.899,0.354 8.509,3.582 11.099,0.644 0.851,-0.966 1.071,-2.315 1.579,-3.499 1.64,-3.814 5.981,-5.494 9.533,-7.645 4.098,-2.483 7.653,-6.238 8.826,-10.883 1.173,-4.647 -0.548,-10.169 -4.733,-12.502 -1.061,-0.592 -2.304,-1.026 -2.962,-2.047 -0.688,-1.068 -0.524,-2.445 -0.664,-3.708 -0.393,-3.546 -3.71,-6.525 -7.278,-6.534 -1.791,-0.004 -3.926,0.524 -5.117,-0.813 -0.863,-0.97 -0.725,-2.429 -0.875,-3.719 -0.431,-3.697 -3.48,-6.461 -6.325,-8.863 -6.364,-5.372 -11.203,-13.448 -19.093,-16.115 -10.425,-3.524 -9.42,-5.107 -9.244,-9.158 0.245,-5.606 2.774,-11.134 7.171,-14.619 1.845,-1.463 4.259,-3.446 3.329,-5.609 -0.522,-1.212 -1.94,-1.768 -3.25,-1.929 -3.729,-0.457 -7.642,1.493 -9.524,4.745 -2.748,4.748 -1.549,11.807 -6.054,14.939 -2.522,1.754 -6.324,1.742 -7.958,4.343 -0.861,1.37 -0.837,3.097 -0.785,4.715 0.354,10.977 0.707,21.954 1.06,32.931 0.089,2.766 0.151,5.664 -1.09,8.138 -2.142,4.271 -7.299,5.854 -11.219,8.583 -6.044,4.208 -9.392,11.98 -8.299,19.262 0.448,2.984 1.515,6.279 -0.102,8.826 -1.316,2.074 -4.148,3.063 -4.877,5.409 -0.681,2.192 0.863,4.476 2.678,5.88 1.814,1.403 4.001,2.373 5.481,4.128 3.725,4.418 -0.351,12.562 -6.12,12.23 -0.878,-0.05 -1.775,-0.254 -2.622,-0.02 -2.923,0.807 -2.288,5.068 -3.191,7.963 -1.805,5.784 -11.263,7.376 -11.359,13.434 -0.041,2.577 1.677,5.636 -0.182,7.42 -1.828,1.756 -4.924,0.009 -7.36,0.706 -2.485,0.711 -3.506,3.71 -3.542,6.294 -0.036,2.584 0.503,5.279 -0.443,7.682 -1.049,2.662 -3.659,4.321 -5.506,6.506 -3.236,3.828 -4.017,9.208 -3.572,14.2 0.446,4.993 1.968,9.822 2.805,14.764 1.154,6.808 0.99,13.712 0.308,20.604 C -119.115,-26.696 -60.326,2.912 0.021,0.021 0.013,0.01 0.004,-0.001 -0.005,-0.013 -0.004,-0.008 -0.002,-0.005 0,0"
               style="fill:#08a96b;fill-opacity:1;fill-rule:nonzero;stroke:none"
               id="path98" /></g><g
             id="g100"
             transform="translate(256.8203,385.1489)"><path
               d="M 0,0 C -1.839,-6.864 -13.75,-3.598 -18.191,-9.158 -14.172,-4.126 -3.379,-4.897 0,0"
               style="fill:#08a96b;fill-opacity:1;fill-rule:nonzero;stroke:none"
               id="path102" /></g><g
             id="g104"
             transform="translate(406.8154,165.1484)"><path
               d="m 0,0 c -0.618,0.904 -1.532,1.572 -2.162,2.468 -2.18,3.099 -0.26,7.303 1.482,10.667 1.743,3.364 3.08,8.003 0.238,10.509 -2.544,2.244 -6.908,0.747 -8.648,-2.165 -1.74,-2.912 -1.518,-6.575 -0.889,-9.908 0.629,-3.333 1.615,-6.687 1.217,-10.055 -0.889,-7.537 -8.269,-12.756 -10.342,-20.056 -1.053,-3.713 -0.646,-7.666 -1.035,-11.506 -0.389,-3.84 -1.911,-7.984 -5.374,-9.689 -1.675,-0.826 -3.597,-0.97 -5.376,-1.541 -4.715,-1.516 -8.04,-6.02 -9.214,-10.831 -0.529,-2.169 -0.735,-4.535 -2.114,-6.289 -2.135,-2.715 -6.12,-2.887 -9.221,-4.409 -5.858,-2.876 -9.137,-10.883 -15.662,-11.038 -2.74,-0.065 -5.074,-0.346 -7.544,-1.534 -14.649,-7.038 -12.914,-3.044 -20.184,-2.511 -2.423,0.179 -4.847,0.357 -7.27,0.534 -1.387,2.002 0.137,4.822 2.141,6.206 2.004,1.383 4.49,2.072 6.221,3.786 3.9,3.863 2.914,11.77 7.97,13.906 3.421,1.444 8.221,-0.673 10.616,2.165 2.802,3.32 -1.523,9.16 1.232,12.52 1.852,2.256 5.641,1.679 7.844,3.594 4.167,3.622 -1.311,10.631 0.449,15.865 0.469,1.396 1.468,2.656 1.479,4.128 0.028,3.5 -5.132,4.425 -8.251,2.836 -3.121,-1.589 -5.782,-4.497 -9.28,-4.65 -7.49,-0.327 -9.931,11.273 -17.117,13.415 -4.721,1.406 -11.433,-1.122 -13.73,3.235 -0.566,1.073 -0.645,2.335 -0.582,3.546 0.287,5.634 3.544,11.032 8.395,13.912 1.958,1.162 4.463,2.385 4.563,4.661 0.038,0.875 -0.321,1.709 -0.58,2.546 -1.519,4.921 0.764,10.746 5.222,13.326 4.469,2.584 11.467,3.127 12.277,8.225 0.338,2.122 -0.701,4.409 0.143,6.385 0.759,1.775 2.769,2.636 4.645,3.096 5.684,1.396 11.749,0.691 17.38,2.286 3.508,0.993 6.73,2.847 10.255,3.776 3.525,0.928 7.707,0.726 10.26,-1.876 -1.651,-1.491 1.355,-3.861 3.529,-3.389 2.174,0.472 4.636,1.828 6.395,0.464 1.911,-1.48 0.892,-4.447 0.408,-6.816 -1.444,-7.075 5.213,-14.572 12.409,-13.976 -0.809,2.174 -0.66,4.687 0.404,6.749 2.986,-1.34 4.873,-4.297 7.41,-6.366 2.538,-2.067 6.812,-2.972 8.76,-0.341 2.752,3.722 -2.298,9.743 0.58,13.369 -3.359,-1.693 -8.025,1.242 -7.955,5.001 0.023,1.251 0.473,2.48 0.378,3.727 -0.095,1.248 -1.076,2.602 -2.312,2.406 -1.969,-0.31 -1.876,-3.734 -3.778,-4.332 -4.112,2.28 -0.593,9.131 -3.033,13.15 -0.756,1.245 -2.034,2.086 -2.893,3.262 -1.262,1.726 -1.5,3.973 -2.289,5.96 -0.788,1.988 -2.646,3.939 -4.739,3.503 -2.531,-0.525 -3.144,-3.984 -2.338,-6.439 0.805,-2.455 2.458,-4.717 2.433,-7.301 -0.024,-2.583 -3.256,-5.137 -5.101,-3.329 -0.497,0.487 -0.748,1.165 -0.984,1.819 -0.536,1.49 -1.073,2.978 -1.609,4.466 -1.157,3.211 -2.436,6.593 -5.114,8.709 -2.679,2.115 -7.221,2.248 -9.063,-0.625 -1.313,-2.05 -1.007,-5.092 -2.954,-6.553 -1.98,-1.485 -4.897,-0.276 -7.231,-1.101 -2.072,-0.732 -3.283,-2.905 -5.193,-3.988 -3.344,-1.896 -8.253,0.921 -8.303,4.764 -0.031,2.434 1.518,4.855 0.8,7.179 -0.442,1.433 -1.653,2.467 -2.584,3.643 -1.632,2.063 -2.364,5.251 -0.648,7.245 1.788,2.076 5.157,1.715 7.604,0.481 2.448,-1.232 4.59,-3.152 7.25,-3.808 2.661,-0.655 6.161,0.764 6.257,3.502 0.115,3.255 -4.495,5.539 -3.733,8.704 0.47,1.957 2.804,2.836 4.815,2.836 2.013,0 4.057,-0.547 6.012,-0.07 4.979,1.215 6.121,7.741 5.806,12.856 -0.067,1.072 -0.114,2.267 0.587,3.08 0.987,1.146 2.956,0.812 4.035,-0.247 1.079,-1.059 1.524,-2.583 2.028,-4.008 1.422,-4.023 4.151,-8.159 8.357,-8.878 4.206,-0.718 8.713,4.522 6.026,7.836 -0.409,0.505 -0.953,0.94 -1.137,1.564 -0.698,2.366 3.839,2.92 4.502,5.296 0.75,2.685 -3.535,3.56 -5.401,5.631 -3.153,3.499 1.001,10.712 -3.03,13.148 -2.302,1.391 -5.449,-0.564 -6.293,-3.119 -0.842,-2.554 -0.104,-5.33 0.627,-7.919 0.225,-0.793 0.444,-1.663 0.114,-2.418 -0.788,-1.8 -3.584,-1.139 -5,0.223 -1.417,1.362 -2.744,3.274 -4.709,3.245 -1.984,-0.029 -3.591,-2.133 -5.554,-1.854 -1.539,0.218 -2.505,1.875 -2.607,3.426 -0.512,7.738 13.2,11.076 11.922,18.724 -0.687,4.11 -5.733,8.107 -3.186,11.404 1.879,2.432 5.972,0.958 7.794,-1.516 1.822,-2.474 2.62,-5.692 4.884,-7.771 1.954,-1.794 4.879,-2.299 7.409,-1.564 C -5.604,129.371 4.168,106.726 8.891,82.891 L 7.332,82.46 C 5.891,82.062 4.097,81.132 4.396,79.667 4.506,79.131 4.901,78.686 4.998,78.147 5.151,77.296 4.535,76.516 3.95,75.878 2.474,74.271 0.232,72.592 -1.673,73.659 c -1.641,0.919 -2.083,3.525 -3.933,3.87 -1.318,0.246 -2.548,-0.966 -2.827,-2.277 -0.278,-1.312 0.131,-2.659 0.536,-3.938 0.104,-0.332 0.215,-0.674 0.45,-0.932 0.444,-0.489 1.183,-0.534 1.793,-0.789 2.505,-1.046 2.708,-5.5 5.418,-5.665 1.391,-0.085 2.465,1.122 3.466,2.093 1.001,0.971 2.583,1.815 3.707,0.988 1.16,-0.855 0.899,-2.897 2.113,-3.674 0.765,-0.489 1.639,-0.228 2.538,0.132 C 13.68,37.487 9.817,10.664 -0.79,-15.01 c -0.432,1.821 -0.1,4.016 0.469,5.864 C 0.609,-6.121 1.787,-2.613 0,0"
               style="fill:#08a96b;fill-opacity:1;fill-rule:nonzero;stroke:none"
               id="path106" /></g><g
             id="g108"
             transform="translate(353.8018,280.9438)"><path
               d="m 0,0 c 3.423,-3.51 7.7,-2.891 4.632,-5.318 -3.069,-2.428 -4.609,0.69 -9.09,-3.004 -4.48,-3.695 -7.677,-1.738 -4.394,3.195 C -5.567,-0.194 -3.4,3.488 0,0"
               style="fill:#08a96b;fill-opacity:1;fill-rule:nonzero;stroke:none"
               id="path110" /></g><g
             id="g112"
             transform="translate(343.1826,298.8042)"><path
               d="M 0,0 C 0,0 6.227,-0.956 6.146,-4.818 6.067,-8.68 7.438,-9.849 7.438,-9.849 8.216,-12.061 5.106,-16.924 3.171,-12.048 1.234,-7.171 2.525,-5.853 -2.147,-2.97 -6.82,-0.087 0,0 0,0"
               style="fill:#08a96b;fill-opacity:1;fill-rule:nonzero;stroke:none"
               id="path114" /></g><g
             id="g116"
             transform="translate(339.3994,289.0356)"><path
               d="M 0,0 C 1.941,-2.858 4.764,-1.334 3.938,-4.585 3.06,-8.043 3.913,-7.317 -0.178,-8.438 -4.27,-9.558 -5.469,-9.328 -4.342,-4.042 -3.215,1.244 -1.94,2.858 0,0"
               style="fill:#08a96b;fill-opacity:1;fill-rule:nonzero;stroke:none"
               id="path118" /></g><g
             id="g120"
             transform="translate(315.2686,329.7568)"><path
               d="m 0,0 c 2.686,-4.478 5.434,-4.798 8.148,-4.527 2.715,0.272 2.663,0.15 3.023,-2.026 0.834,-5.044 -2.401,-6.901 -8.708,-3.457 -6.307,3.443 -1.533,6.145 -6.222,9.324 C -8.448,2.492 -2.685,4.478 0,0"
               style="fill:#08a96b;fill-opacity:1;fill-rule:nonzero;stroke:none"
               id="path122" /></g><g
             id="g124"
             transform="translate(175.7163,224.8877)"><path
               d="M 0,0 C -8.696,-1.943 -4.72,6.359 -10.644,5.38 -16.566,4.4 -15.172,12.639 -11.22,11.326 -4.714,9.164 8.697,1.943 0,0"
               style="fill:#08a96b;fill-opacity:1;fill-rule:nonzero;stroke:none"
               id="path126" /></g><g
             id="g128"
             transform="translate(151.5952,238.6387)"><path
               d="m 0,0 c -3.35,4.981 -4.547,9.034 -9.425,9.568 -4.877,0.534 -3.496,3.277 1.26,2.01 C -3.408,10.311 0.816,4.166 4.621,1.148 7.797,-1.37 3.35,-4.982 0,0"
               style="fill:#08a96b;fill-opacity:1;fill-rule:nonzero;stroke:none"
               id="path130" /></g><g
             id="g132"
             transform="translate(132.043,251.5957)"><path
               d="M 0,0 C -3.309,2.803 0.014,5.494 2.348,1.344 4.136,-1.835 3.308,-2.803 0,0"
               style="fill:#08a96b;fill-opacity:1;fill-rule:nonzero;stroke:none"
               id="path134" /></g><g
             id="g136"
             transform="translate(234.1025,292.8022)"><path
               d="m 0,0 c -8.095,1.726 -4.72,6.359 -9.319,4.808 -4.598,-1.552 -7.601,0.138 -3.022,3.465 4.579,3.328 6.096,3.655 10.473,1.963 C 5.82,7.262 8.095,-1.726 0,0"
               style="fill:#08a96b;fill-opacity:1;fill-rule:nonzero;stroke:none"
               id="path138" /></g><g
             id="g140"><g
               id="g142" /><g
               id="g154"><g
                 clip-path="url(#clipPath146)"
                 opacity="0.660004"
                 id="g152"><g
                   transform="translate(180.9639,106.0547)"
                   id="g150"><path
                     d="M 0,0 C 42.119,-18.179 87.684,-15.762 126.445,1.736 176.155,24.177 229.154,66.508 237.508,96.098 236.111,77.784 231.703,59.386 224.018,41.577 186.757,-44.75 86.569,-84.527 0.242,-47.268 -84.629,-10.637 -124.503,86.815 -90.42,172.124 -104.402,102.103 -68.198,29.436 0,0"
                     style="fill:#31d7e7;fill-opacity:1;fill-rule:nonzero;stroke:none"
                     id="path148" /></g></g></g></g></g></g><g
         id="g156"><g
           id="g158"
           clip-path="url(#clipPath162)"><g
             id="g164"
             transform="translate(418.9736,214.041)"><path
               d="m 0,0 c 0,-5.068 -76.245,-9.176 -170.298,-9.176 -94.053,0 -170.297,4.108 -170.297,9.176 0,5.067 76.244,9.176 170.297,9.176 C -76.245,9.176 0,5.067 0,0"
               style="fill:#006c6c;fill-opacity:1;fill-rule:nonzero;stroke:none"
               id="path166" /></g><g
             id="g168"
             transform="translate(418.9736,214.041)"><path
               d="m 0,0 c -0.052,-0.467 -0.502,-0.732 -0.867,-0.957 -0.398,-0.207 -0.81,-0.383 -1.232,-0.532 -0.842,-0.305 -1.708,-0.532 -2.576,-0.745 -1.738,-0.418 -3.496,-0.745 -5.258,-1.041 -3.526,-0.577 -7.072,-1.015 -10.62,-1.416 -7.098,-0.787 -14.215,-1.39 -21.335,-1.921 -14.245,-0.995 -28.508,-1.674 -42.773,-2.239 -14.266,-0.59 -28.54,-0.867 -42.813,-1.121 -14.273,-0.235 -28.548,-0.364 -42.824,-0.401 -14.275,0.032 -28.55,0.165 -42.824,0.398 -14.273,0.258 -28.547,0.528 -42.813,1.12 -14.265,0.565 -28.527,1.247 -42.773,2.24 -7.12,0.531 -14.236,1.136 -21.335,1.922 -3.548,0.402 -7.094,0.84 -10.62,1.416 -1.762,0.297 -3.52,0.624 -5.258,1.043 -0.868,0.213 -1.734,0.44 -2.576,0.745 -0.421,0.149 -0.834,0.325 -1.232,0.532 -0.365,0.225 -0.815,0.49 -0.866,0.957 0.067,-0.463 0.519,-0.706 0.888,-0.918 0.401,-0.19 0.815,-0.352 1.239,-0.486 0.846,-0.274 1.716,-0.471 2.587,-0.654 1.744,-0.358 3.506,-0.626 5.272,-0.861 3.53,-0.478 7.078,-0.832 10.629,-1.142 7.104,-0.606 14.223,-1.031 21.345,-1.382 14.241,-0.754 28.499,-1.228 42.759,-1.569 28.519,-0.694 57.048,-1.054 85.578,-0.967 28.53,-0.093 57.06,0.275 85.579,0.962 14.26,0.341 28.517,0.819 42.759,1.571 7.122,0.351 14.241,0.776 21.345,1.384 3.551,0.31 7.098,0.664 10.629,1.142 1.765,0.235 3.528,0.504 5.271,0.861 0.871,0.183 1.741,0.38 2.587,0.655 0.424,0.134 0.838,0.295 1.239,0.486 C -0.52,-0.706 -0.067,-0.463 0,0"
               style="fill:#e1ecc3;fill-opacity:1;fill-rule:nonzero;stroke:none"
               id="path170" /></g><g
             id="g172"><g
               id="g174" /><g
               id="g186"><g
                 clip-path="url(#clipPath178)"
                 opacity="0.75"
                 id="g184"><g
                   transform="translate(211.5854,202.2744)"
                   id="g182"><path
                     d="M 0,0 C 0,0 137.032,-4.521 203.714,7.742 184.97,-6.74 35.258,-2.683 0,0"
                     style="fill:#d0e8e0;fill-opacity:1;fill-rule:nonzero;stroke:none"
                     id="path180" /></g></g></g></g><g
             id="g188"
             transform="translate(256.6807,351.835)"><path
               d="m 0,0 c -6.377,23.055 -32.376,51.507 -76.525,33.847 -44.149,-17.66 -59.846,-15.206 -59.846,-15.206 0,0 7.445,-27.553 67.695,-33.848 C -35.81,-18.641 0,0 0,0"
               style="fill:#93c364;fill-opacity:1;fill-rule:nonzero;stroke:none"
               id="path190" /></g><g
             id="g192"
             transform="translate(137.8105,363.2012)"><path
               d="M 0,0 -0.316,0.523 C -1.911,3.161 -2.755,6.368 -3.167,8.427 -3.569,8.355 -3.971,8.284 -4.354,8.22 c 0.397,-2.009 1.195,-5.075 2.701,-7.78 -2.864,-1.537 -6.495,-2.571 -9.41,-3.222 0.31,-0.335 0.63,-0.673 0.969,-1.016 3.044,0.718 6.7,1.834 9.566,3.493 z"
               style="fill:#bad57f;fill-opacity:1;fill-rule:nonzero;stroke:none"
               id="path194" /></g><g
             id="g196"
             transform="translate(157.0254,359.9268)"><path
               d="M 0,0 0.248,0.299 0.075,0.647 c -2.276,4.6 -4.346,12.029 -5.18,15.208 -0.394,-0.115 -0.77,-0.22 -1.155,-0.331 0.823,-3.15 2.813,-10.302 5.089,-15.055 -4.197,-4.881 -11.606,-8.734 -15.385,-10.492 0.428,-0.241 0.865,-0.48 1.31,-0.719 C -11.127,-8.775 -4.07,-4.927 0,0"
               style="fill:#bad57f;fill-opacity:1;fill-rule:nonzero;stroke:none"
               id="path198" /></g><g
             id="g200"
             transform="translate(176.6807,360.9121)"><path
               d="m 0,0 0.073,0.216 -0.089,0.21 c -2.607,6.148 -5.636,16.349 -6.803,20.399 -0.374,-0.138 -0.759,-0.282 -1.127,-0.416 1.178,-4.083 4.146,-14.06 6.738,-20.24 -3.59,-10.422 -10.856,-16.82 -14.435,-19.47 0.477,-0.136 0.964,-0.268 1.453,-0.4 C -10.267,-16.643 -3.428,-10.152 0,0"
               style="fill:#bad57f;fill-opacity:1;fill-rule:nonzero;stroke:none"
               id="path202" /></g><g
             id="g204"
             transform="translate(199.2466,364.2231)"><path
               d="M 0,0 -0.077,0.181 C -4.365,10.389 -7.425,20.357 -8.724,24.843 -9.11,24.745 -9.495,24.646 -9.884,24.541 -8.589,20.065 -5.538,10.117 -1.258,-0.1 -5.201,-16.084 -11.68,-24.628 -13.99,-27.289 c 0.477,-0.057 0.967,-0.108 1.451,-0.162 2.759,3.317 8.726,11.855 12.492,27.258 z"
               style="fill:#bad57f;fill-opacity:1;fill-rule:nonzero;stroke:none"
               id="path206" /></g><g
             id="g208"
             transform="translate(223.9141,365.145)"><path
               d="m 0,0 -0.09,0.192 c -5.932,12.584 -8.207,21.502 -8.973,25.171 -0.419,0.068 -0.836,0.139 -1.262,0.197 0.683,-3.424 2.9,-12.575 9.06,-25.686 -3.742,-15.176 -9.362,-24.294 -11.77,-27.714 0.537,0.077 1.076,0.15 1.609,0.234 2.737,4.101 7.89,13.145 11.376,27.4 z"
               style="fill:#bad57f;fill-opacity:1;fill-rule:nonzero;stroke:none"
               id="path210" /></g><g
             id="g212"
             transform="translate(243.5342,360.7656)"><path
               d="m 0,0 0.031,0.173 -0.065,0.162 c -2.649,6.535 -2.92,13.155 -2.815,16.792 -0.385,0.355 -0.77,0.71 -1.168,1.056 -0.193,-3.394 -0.157,-10.719 2.806,-18.134 -1.348,-7.097 -4.271,-13.291 -6.724,-17.561 0.57,0.188 1.138,0.376 1.69,0.565 C -3.873,-12.618 -1.246,-6.695 0,0"
               style="fill:#bad57f;fill-opacity:1;fill-rule:nonzero;stroke:none"
               id="path214" /></g><g
             id="g216"><g
               id="g218" /><g
               id="g230"><g
                 clip-path="url(#clipPath222)"
                 opacity="0.419998"
                 id="g228"><g
                   transform="translate(185.2896,362.4814)"
                   id="g226"><path
                     d="m 0,0 c -28.942,-5.567 -54.101,0.42 -64.964,7.937 0.394,-1.322 8.947,-27.654 67.679,-33.791 32.866,-3.433 68.676,15.208 68.676,15.208 -0.05,0.178 -0.111,0.359 -0.163,0.539 C 55.192,4.38 29.598,5.693 0,0"
                     style="fill:#409d5f;fill-opacity:1;fill-rule:nonzero;stroke:none"
                     id="path224" /></g></g></g></g><g
             id="g232"
             transform="translate(256.6807,351.835)"><path
               d="m 0,0 -0.185,0.533 0.007,-0.011 c -4.555,3.743 -9.759,6.59 -15.287,8.438 -5.506,1.914 -11.281,2.94 -17.08,3.427 -11.629,0.936 -23.358,-0.239 -34.878,-2.248 -2.866,-0.514 -5.796,-1.003 -8.737,-1.487 -2.947,-0.383 -5.896,-0.784 -8.865,-0.946 -5.931,-0.383 -11.893,-0.386 -17.809,0.18 -5.915,0.537 -11.787,1.593 -17.483,3.259 -5.657,1.723 -11.269,3.927 -16.038,7.439 2.512,-1.55 5.206,-2.735 7.928,-3.807 1.39,-0.47 2.752,-1.003 4.171,-1.379 l 2.107,-0.612 2.134,-0.51 c 5.687,-1.372 11.499,-2.161 17.326,-2.53 5.829,-0.336 11.679,-0.287 17.492,0.219 2.909,0.214 5.802,0.6 8.69,1.002 2.868,0.491 5.745,0.989 8.674,1.533 5.841,0.982 11.727,1.756 17.655,2.132 5.928,0.31 11.897,0.307 17.815,-0.378 5.913,-0.655 11.784,-1.962 17.319,-4.171 5.5,-2.254 10.682,-5.384 14.897,-9.527 l 0.004,-0.005 0.002,-0.006 z"
               style="fill:#3f6754;fill-opacity:1;fill-rule:nonzero;stroke:none"
               id="path234" /></g><g
             id="g236"
             transform="translate(256.791,351.6538)"><path
               d="m 0,0 c -8.443,14.784 -9.769,42.184 21.292,55.619 31.062,13.435 37.697,22.592 37.697,22.592 0,0 10.178,-17.58 -16.863,-51.16 C 27.375,8.732 0,0 0,0"
               style="fill:#93c364;fill-opacity:1;fill-rule:nonzero;stroke:none"
               id="path238" /></g><g
             id="g240"
             transform="translate(310.6748,417.3789)"><path
               d="M 0,0 -0.105,0.422 C -0.638,2.55 -1.833,4.585 -2.666,5.826 -2.429,5.993 -2.191,6.16 -1.967,6.321 -1.151,5.114 -0.004,3.172 0.606,1.055 2.819,1.73 5.163,3.045 6.954,4.19 6.968,3.866 6.978,3.535 6.98,3.192 5.092,2.015 2.694,0.729 0.419,0.114 Z"
               style="fill:#bad57f;fill-opacity:1;fill-rule:nonzero;stroke:none"
               id="path242" /></g><g
             id="g244"
             transform="translate(302.6904,406.0337)"><path
               d="m 0,0 -0.275,0.025 -0.089,0.262 c -1.181,3.456 -3.894,8.228 -5.081,10.244 0.255,0.14 0.497,0.278 0.746,0.417 C -3.521,8.952 -0.908,4.36 0.351,0.827 4.92,0.498 10.582,2.307 13.366,3.333 13.272,2.996 13.174,2.656 13.071,2.311 10.013,1.217 4.529,-0.416 0,0"
               style="fill:#bad57f;fill-opacity:1;fill-rule:nonzero;stroke:none"
               id="path246" /></g><g
             id="g248"
             transform="translate(292.334,396.603)"><path
               d="m 0,0 -0.146,0.072 -0.061,0.15 c -1.797,4.4 -5.429,11.047 -6.888,13.667 0.257,0.12 0.523,0.241 0.776,0.361 C -4.849,11.606 -1.3,5.103 0.521,0.695 7.584,-2.72 14.46,-2.26 17.593,-1.782 17.422,-2.091 17.244,-2.403 17.066,-2.716 13.554,-3.164 6.847,-3.361 0,0"
               style="fill:#bad57f;fill-opacity:1;fill-rule:nonzero;stroke:none"
               id="path250" /></g><g
             id="g252"
             transform="translate(279.3437,386.8691)"><path
               d="m 0,0 -0.053,0.129 c -3.004,7.286 -6.503,13.831 -8.116,16.737 0.243,0.145 0.486,0.291 0.734,0.434 1.611,-2.899 5.104,-9.429 8.117,-16.715 10.048,-6.026 17.613,-7.04 20.115,-7.209 -0.211,-0.269 -0.431,-0.542 -0.647,-0.813 -3.058,0.27 -10.362,1.54 -20.029,7.364 z"
               style="fill:#bad57f;fill-opacity:1;fill-rule:nonzero;stroke:none"
               id="path254" /></g><g
             id="g256"
             transform="translate(266.5049,374.8755)"><path
               d="m 0,0 -0.051,0.142 c -3.379,9.307 -6.741,14.929 -8.21,17.156 0.176,0.245 0.349,0.492 0.533,0.736 1.387,-2.062 4.896,-7.772 8.426,-17.458 9.54,-5.723 16.964,-7.459 19.899,-7.958 C 20.288,-7.614 19.981,-7.85 19.672,-8.077 16.228,-7.402 9.076,-5.468 0.13,-0.078 Z"
               style="fill:#bad57f;fill-opacity:1;fill-rule:nonzero;stroke:none"
               id="path258" /></g><g
             id="g260"
             transform="translate(258.876,362.772)"><path
               d="M 0,0 -0.104,0.071 -0.152,0.185 C -2.124,4.8 -5.33,8.257 -7.22,10.029 c 0.014,0.372 0.028,0.745 0.053,1.119 1.811,-1.605 5.491,-5.297 7.749,-10.512 4.26,-2.879 8.855,-4.51 12.24,-5.413 -0.381,-0.194 -0.76,-0.387 -1.133,-0.571 C 8.313,-4.374 4.005,-2.729 0,0"
               style="fill:#bad57f;fill-opacity:1;fill-rule:nonzero;stroke:none"
               id="path262" /></g><g
             id="g264"><g
               id="g266" /><g
               id="g278"><g
                 clip-path="url(#clipPath270)"
                 opacity="0.419998"
                 id="g276"><g
                   transform="translate(287.2236,393.043)"
                   id="g274"><path
                     d="m 0,0 c 17.328,11.822 26.924,27.529 28.576,36.785 0.471,-0.862 9.478,-18.389 -16.883,-51.123 -14.751,-18.319 -42.126,-27.051 -42.126,-27.051 -0.065,0.115 -0.126,0.236 -0.19,0.352 C -29.896,-25.672 -17.721,-12.09 0,0"
                     style="fill:#409d5f;fill-opacity:1;fill-rule:nonzero;stroke:none"
                     id="path272" /></g></g></g></g><g
             id="g280"
             transform="translate(256.791,351.6538)"><path
               d="m 0,0 -0.205,0.345 -0.002,0.003 v 0.006 c 0.022,4.206 1.041,8.392 2.662,12.3 1.676,3.895 3.97,7.505 6.587,10.832 2.609,3.343 5.61,6.351 8.737,9.191 3.164,2.804 6.507,5.388 9.933,7.845 6.988,4.634 13.365,9.961 18.882,16.213 2.754,3.114 5.258,6.458 7.404,10.024 l 0.814,1.334 0.748,1.371 c 0.521,0.905 0.935,1.86 1.395,2.797 0.824,1.912 1.577,3.867 2.054,5.913 C 58.391,74.005 56.688,70.065 54.722,66.345 52.692,62.64 50.269,59.158 47.591,55.888 44.922,52.606 41.922,49.604 38.757,46.799 37.185,45.381 35.503,44.093 33.831,42.797 L 28.699,39.131 C 21.903,34.324 15.437,28.983 10.063,22.652 7.382,19.493 5.012,16.051 3.232,12.304 1.393,8.585 0.221,4.53 -0.174,0.352 L -0.176,0.36 Z"
               style="fill:#3f6754;fill-opacity:1;fill-rule:nonzero;stroke:none"
               id="path282" /></g><g
             id="g284"
             transform="translate(252.4033,218.458)"><path
               d="m 0,0 c 0,0 3.289,112.556 3.267,132.655 -0.002,1.431 1.504,1.795 1.504,-0.179 0,-5.13 0.213,-120.222 1.353,-129.715 C 7.453,-3.315 -0.237,-7.316 0,0"
               style="fill:#006c6c;fill-opacity:1;fill-rule:nonzero;stroke:none"
               id="path286" /></g><g
             id="g288"
             transform="translate(253.1338,244.7861)"><path
               d="m 0,0 c -1.723,-8.9 -22.615,-17.205 -50.241,-21.935 -11.27,-1.928 -7.959,-3.948 17.284,-5.674 50.2,-3.432 101.906,3.654 81.644,5.65 C 29.101,-20.03 6.806,-8.538 4.715,-0.228 3.194,5.811 0.296,1.526 0,0"
               style="fill:#006c6c;fill-opacity:1;fill-rule:nonzero;stroke:none"
               id="path290" /></g><g
             id="g292"
             transform="translate(223.2603,223.3115)"><path
               d="m 0,0 c 0,0 6.116,-1.555 8.914,-1.762 2.799,-0.207 2.902,-2.384 2.695,-2.592 -0.207,-0.207 -18.658,-0.414 -21.871,0.105 -3.214,0.518 -0.104,6.944 -0.104,6.944 z"
               style="fill:#303853;fill-opacity:1;fill-rule:nonzero;stroke:none"
               id="path294" /></g><g
             id="g296"
             transform="translate(154.3628,225.2354)"><path
               d="m 0,0 c -1.436,0.151 -2.645,2.267 -5.063,0.68 -2.418,-1.587 -6.272,-7.33 -11.034,-8.313 -3.4,-0.68 -2.569,-1.36 0,-1.209 2.57,0.152 12.092,2.116 16.853,2.418 C 5.517,-6.121 0,0 0,0"
               style="fill:#303853;fill-opacity:1;fill-rule:nonzero;stroke:none"
               id="path298" /></g><g
             id="g300"
             transform="translate(207.6821,271.0977)"><path
               d="m 0,0 c 2.231,-4.787 8.28,-10.71 11.199,-13.171 5.859,-4.94 9.81,2.259 6.295,6.089 C 13.978,-3.252 9.201,1.742 5.854,7.8 4.235,10.731 -2.231,4.786 0,0"
               style="fill:#e7a691;fill-opacity:1;fill-rule:nonzero;stroke:none"
               id="path302" /></g><g
             id="g304"
             transform="translate(199.4678,280.1812)"><path
               d="M 0,0 C -2.406,6.205 -1.405,10.593 2.388,11.302 6.181,12.011 12.737,6.15 17.688,-3.28 14.547,-12.873 6.4,-11.231 6.4,-11.231 6.4,-11.231 1.903,-4.908 0,0"
               style="fill:#d4841d;fill-opacity:1;fill-rule:nonzero;stroke:none"
               id="path306" /></g><g
             id="g308"
             transform="translate(225.2041,264.0142)"><path
               d="m 0,0 c 3.868,-2.774 12.702,-6.77 23.111,-7.767 1.923,-0.311 2.698,-5.895 -1.694,-6.581 -4.393,-0.686 -17.835,0.81 -26.375,7.559 C -8.762,-3.056 -3.869,2.774 0,0"
               style="fill:#e7a691;fill-opacity:1;fill-rule:nonzero;stroke:none"
               id="path310" /></g><g
             id="g312"
             transform="translate(247.4785,256.0522)"><path
               d="M 0,0 C 1.408,0.575 3.845,2.149 4.12,4.575 4.396,7 6.081,8.932 6.489,7.926 6.963,6.757 6.946,0.354 5.74,-2.613 3.98,-6.946 3.569,-6.178 -0.857,-6.386 -5.284,-6.593 0,0 0,0"
               style="fill:#e7a691;fill-opacity:1;fill-rule:nonzero;stroke:none"
               id="path314" /></g><g
             id="g316"
             transform="translate(225.9868,260.4463)"><path
               d="m 0,0 c 0.063,-4.639 -3.345,-26.818 -4.413,-34.69 -2.256,-2.172 -7.772,-1.587 -10.445,-0.167 -0.926,2.188 2.094,24.749 3.105,28.116 C -10.744,-3.375 0,0 0,0"
               style="fill:#5189a3;fill-opacity:1;fill-rule:nonzero;stroke:none"
               id="path318" /></g><g
             id="g320"
             transform="translate(198.8691,256.7139)"><path
               d="M 0,0 C 4.738,2.04 16.728,6.305 21.508,7.849 26.979,9.616 31.073,0.593 21.73,-6.561 14.09,-12.412 2.086,-16.785 -8.068,-19.839 -18.222,-22.892 0,0 0,0"
               style="fill:#5189a3;fill-opacity:1;fill-rule:nonzero;stroke:none"
               id="path322" /></g><g
             id="g324"
             transform="translate(201.0181,257.4224)"><path
               d="m 0,0 c 0.667,-11.17 2.204,-18.381 -9.854,-22.046 -10.748,-3.267 -19.895,-0.367 -26.569,2.091 -4.944,1.822 -5.095,6.982 -4.673,11.546 C -40.822,-5.449 0,0 0,0"
               style="fill:#759fb8;fill-opacity:1;fill-rule:nonzero;stroke:none"
               id="path326" /></g><g
             id="g328"
             transform="translate(211.8682,297.7861)"><path
               d="m 0,0 c -3.862,4.648 -18.226,3.663 -28.663,-4.658 -10.232,-8.158 -22.282,-19.321 -23.411,-45.412 9.388,-1.387 33.125,-2.173 41.562,5.405 -0.93,17.16 3.55,22.34 10.51,32.674 C 2.357,-8.487 3.998,-4.812 0,0"
               style="fill:#f3bb1a;fill-opacity:1;fill-rule:nonzero;stroke:none"
               id="path330" /></g><g
             id="g332"
             transform="translate(195.7729,230.0049)"><path
               d="m 0,0 c -16.43,-0.082 -36.968,-2.793 -41.239,-3.04 -2.465,-2.464 -2.876,-8.379 2.793,-10.022 34.01,0.411 56.601,-1.725 60.709,1.479 4.108,3.203 3.151,7.968 -0.575,9.94 C 18.895,-0.164 0,0 0,0"
               style="fill:#5189a3;fill-opacity:1;fill-rule:nonzero;stroke:none"
               id="path334" /></g><g
             id="g336"
             transform="translate(161.4819,240.8643)"><path
               d="m 0,0 c 1.556,-7.763 42.631,-20.969 49.982,-22.689 11.702,-2.738 13.715,7.201 7.476,12.158 C 51.461,-5.766 31.99,2.064 31.99,2.064 31.99,2.064 -1.672,8.341 0,0"
               style="fill:#759fb8;fill-opacity:1;fill-rule:nonzero;stroke:none"
               id="path338" /></g><g
             id="g340"
             transform="translate(201.5273,266.9443)"><path
               d="m 0,0 c 2.411,-5.494 9.22,-12.425 12.52,-15.319 6.626,-5.813 11.502,2.158 7.56,6.623 C 16.138,-4.231 10.774,1.6 7.115,8.574 5.344,11.949 -2.411,5.494 0,0"
               style="fill:#febeaf;fill-opacity:1;fill-rule:nonzero;stroke:none"
               id="path342" /></g><g
             id="g344"
             transform="translate(192.5884,277.5205)"><path
               d="M 0,0 C -2.477,7.1 -1.176,12.016 3.135,12.669 7.445,13.322 14.621,6.451 19.846,-4.39 15.927,-15.1 6.792,-12.93 6.792,-12.93 6.792,-12.93 1.959,-5.616 0,0"
               style="fill:#ed9e21;fill-opacity:1;fill-rule:nonzero;stroke:none"
               id="path346" /></g><g
             id="g348"
             transform="translate(221.6401,258.2456)"><path
               d="m 0,0 c 4.394,-3.287 14.517,-8.152 26.589,-9.693 2.226,-0.429 2.911,-6.764 -2.226,-7.363 -5.137,-0.6 -20.72,1.627 -30.395,9.589 C -10.313,-3.1 -4.394,3.287 0,0"
               style="fill:#febeaf;fill-opacity:1;fill-rule:nonzero;stroke:none"
               id="path350" /></g><g
             id="g352"
             transform="translate(247.2485,248.3652)"><path
               d="M 0,0 C 1.661,0.594 4.557,2.274 4.972,5.001 5.387,7.729 7.422,9.843 7.858,8.691 8.364,7.352 8.096,0.122 6.579,-3.18 4.363,-8.002 3.914,-7.118 -1.245,-7.176 -6.404,-7.233 0,0 0,0"
               style="fill:#febeaf;fill-opacity:1;fill-rule:nonzero;stroke:none"
               id="path354" /></g><g
             id="g356"
             transform="translate(226.6006,290.4126)"><path
               d="M 0,0 C 0,0 12.666,2.72 20.502,13.313 29.005,24.806 25.47,34.72 16.733,41.184 7.132,48.286 0.354,48.313 -7.165,44.267 -13.927,40.629 -17.099,34.233 -18.646,27.412 -21.044,16.84 -14.598,9.942 0,0"
               style="fill:#3d160c;fill-opacity:1;fill-rule:nonzero;stroke:none"
               id="path358" /></g><g
             id="g360"
             transform="translate(211.1865,303.3809)"><path
               d="m 0,0 c 0,0 -3.726,-2.763 -6.269,-4.696 -2.543,-1.934 4.563,-11.497 7.967,-9.135 1.795,1.246 4.585,3.292 4.585,3.292 z"
               style="fill:#e99f8f;fill-opacity:1;fill-rule:nonzero;stroke:none"
               id="path362" /></g><g
             id="g364"
             transform="translate(244.7471,303.9624)"><path
               d="m 0,0 c -7.178,-10.013 -8.589,-14.039 -12.279,-15.797 -3.474,-1.655 -10.66,-2.215 -19.254,7.911 -6.156,7.253 -3.91,14.371 -3.91,14.371 0,0 -1.42,0.123 -2.597,1.228 -0.976,0.917 -1.644,3.01 -0.151,4.814 2.081,2.515 3.875,2.437 5.093,1.99 2.174,-0.799 2.162,-3.396 2.162,-3.396 0,0 2.732,3.806 5.168,6.299 2.436,2.494 5.014,5.094 18.832,-3.584 C -3.522,11.692 0.963,8.6 2.117,6.506 3.184,4.57 1.93,2.692 0,0"
               style="fill:#febeaf;fill-opacity:1;fill-rule:nonzero;stroke:none"
               id="path366" /></g><g
             id="g368"
             transform="translate(232.5483,301.1206)"><path
               d="M 0,0 C 0.562,-0.03 1.131,-0.162 1.64,-0.452 2.134,-0.737 2.602,-1.231 2.636,-1.89 2.609,-2.578 2.001,-3.031 1.447,-3.154 c -0.57,-0.154 -1.149,-0.111 -1.703,-0.03 0.561,0.05 1.122,0.073 1.63,0.263 0.505,0.165 0.948,0.543 0.945,1.033 C 2.32,-1.4 1.941,-0.957 1.509,-0.657 1.066,-0.348 0.541,-0.159 0,0"
               style="fill:#a46052;fill-opacity:1;fill-rule:nonzero;stroke:none"
               id="path370" /></g><g
             id="g372"
             transform="translate(223.6689,300.0044)"><path
               d="m 0,0 c -0.216,-0.238 -0.339,-0.534 -0.403,-0.838 -0.078,-0.299 -0.111,-0.609 -0.085,-0.911 0.04,-0.604 0.256,-1.186 0.66,-1.63 0.381,-0.462 0.898,-0.814 1.463,-1.078 0.561,-0.278 1.169,-0.459 1.784,-0.662 -0.321,0.022 -0.642,0.066 -0.965,0.106 -0.311,0.089 -0.637,0.146 -0.942,0.268 -0.621,0.218 -1.195,0.601 -1.652,1.104 -0.432,0.525 -0.689,1.212 -0.66,1.889 0.03,0.659 0.257,1.369 0.8,1.752"
               style="fill:#a46052;fill-opacity:1;fill-rule:nonzero;stroke:none"
               id="path374" /></g></g></g><g
         id="g376"><g
           id="g378"
           clip-path="url(#clipPath382)"><g
             id="g384"><g
               id="g386" /><g
               id="g410"
               mask="url(#mask398)"><g
                 id="g412"><path
                   d="m 230.197,303.793 c 3.346,-1.338 4.862,2.774 5.444,4.141 v 0 c -1.546,0.581 -5.543,1.194 -5.543,1.194 v 0 c 0,0 -3.246,-3.997 0.099,-5.335"
                   style="fill:url(#linearGradient418);stroke:none"
                   id="path420" /></g></g></g></g></g><g
         id="g422"><g
           id="g424"
           clip-path="url(#clipPath428)"><g
             id="g430"
             transform="translate(235.0884,308.5195)"><path
               d="M 0,0 C -3.803,1.591 -6.739,0.969 -4.414,-0.206 -2.09,-1.379 2.508,-1.049 0,0"
               style="fill:#0b424b;fill-opacity:1;fill-rule:nonzero;stroke:none"
               id="path432" /></g><g
             id="g434"
             transform="translate(231.7593,302.8237)"><path
               d="M 0,0 C 0.451,1.704 -0.945,2.369 -2.316,1.25"
               style="fill:none;stroke:#4a2b19;stroke-width:0.529;stroke-linecap:butt;stroke-linejoin:miter;stroke-miterlimit:10;stroke-dasharray:none;stroke-opacity:1"
               id="path436" /></g></g></g><g
         id="g438"><g
           id="g440"
           clip-path="url(#clipPath444)"><g
             id="g446"><g
               id="g448" /><g
               id="g472"
               mask="url(#mask460)"><g
                 id="g474"><path
                   d="m 236.659,299.878 c 1.644,-2.348 4.762,1.829 4.762,1.829 v 0 c 0,0 -1.472,2.762 -2.204,3.854 v 0 c -0.924,-0.711 -4.204,-3.334 -2.558,-5.683"
                   style="fill:url(#linearGradient480);stroke:none"
                   id="path482" /></g></g></g></g></g><g
         id="g484"><g
           id="g486"
           clip-path="url(#clipPath490)"><g
             id="g492"
             transform="translate(239.8374,305.2539)"><path
               d="M 0,0 C 2.059,-2.259 2.236,-5.151 0.49,-2.928 -1.255,-0.705 -1.075,1.179 0,0"
               style="fill:#0b424b;fill-opacity:1;fill-rule:nonzero;stroke:none"
               id="path494" /></g><g
             id="g496"
             transform="translate(237.5098,299.4517)"><path
               d="M 0,0 C 0.805,1.929 -0.865,2.776 -1.971,1.614"
               style="fill:none;stroke:#4a2b19;stroke-width:0.529;stroke-linecap:butt;stroke-linejoin:miter;stroke-miterlimit:10;stroke-dasharray:none;stroke-opacity:1"
               id="path498" /></g><g
             id="g500"
             transform="translate(226.2739,334.5229)"><path
               d="m 0,0 c 8.619,7.343 24.301,-2.974 24.301,-2.974 11.504,-0.871 4.029,-4.947 4.029,-4.947 16.842,-4.813 1.804,-12.308 1.804,-12.308 5.088,-3.382 -3.316,-4.461 -3.316,-4.461 0,0 -11.758,2.083 -14.704,3.745 C 9.169,-19.283 1.693,-5.748 1.693,-5.748 Z"
               style="fill:#3d160c;fill-opacity:1;fill-rule:nonzero;stroke:none"
               id="path502" /></g><g
             id="g504"
             transform="translate(366.5957,358.1338)"><path
               d="M 0,0 C 6.174,7.203 16.734,14.063 25.615,6.909 31.16,2.443 33.783,-4.116 27.953,-19.893 22.122,-35.67 27.438,-50.418 34.47,-53.505 25.209,-56.249 7.546,-57.621 9.432,-34.298 11.318,-10.976 8.403,-5.488 3.772,-7.717 0.857,-5.659 0,0 0,0"
               style="fill:#0a6464;fill-opacity:1;fill-rule:nonzero;stroke:none"
               id="path506" /></g><g
             id="g508"
             transform="translate(374.4971,220.8379)"><path
               d="m 0,0 c 0.937,-0.69 11.94,-3.008 21.329,-3.187 2.323,-0.103 2.059,0.996 -1.078,1.857 -3.884,1.066 -5.705,2.357 -8.659,4.42 C 8.205,5.453 6.59,7.241 5.447,7.265 4.305,7.289 0.67,6.619 0.67,6.619 Z"
               style="fill:#073c4a;fill-opacity:1;fill-rule:nonzero;stroke:none"
               id="path510" /></g><g
             id="g512"
             transform="translate(295.0039,218.4277)"><path
               d="M 0,0 C 22.738,-0.044 71.249,2.99 80.347,1.392 82.705,0.981 83.349,8.668 81.13,9.133 78.912,9.598 51.729,13.82 39.785,15.945 18.343,19.761 13.018,18.475 2.438,14.352 -8.143,10.229 -6.242,0.472 0,0"
               style="fill:#4a7a90;fill-opacity:1;fill-rule:nonzero;stroke:none"
               id="path514" /></g><g
             id="g516"
             transform="translate(331.5352,307.1094)"><path
               d="m 0,0 c -2.837,-2.952 -6.603,-22.066 -16.813,-40.011 -2.622,-4.607 2.105,-12.995 8.104,-6.449 8.374,9.136 20.1,32.429 25.239,41.346 C 19.758,0.487 4.226,4.396 0,0"
               style="fill:#e6b782;fill-opacity:1;fill-rule:nonzero;stroke:none"
               id="path518" /></g><g
             id="g520"
             transform="translate(370.1797,344.2124)"><path
               d="M 0,0 C 3.055,1.082 3.001,5.078 1.398,9.211 -0.567,14.281 -4.2,16.866 -7.128,14.256 -2.419,9.929 0,0 0,0"
               style="fill:#c5535f;fill-opacity:1;fill-rule:nonzero;stroke:none"
               id="path522" /></g><g
             id="g524"
             transform="translate(374.1465,217.2686)"><path
               d="m 0,0 c 0.957,-0.664 12.021,-2.669 21.41,-2.582 2.326,-0.037 2.03,1.053 -1.13,1.825 C 16.368,0.2 14.512,1.438 11.499,3.417 8.048,5.684 6.383,7.424 5.239,7.416 4.097,7.407 0.482,6.636 0.482,6.636 Z"
               style="fill:#11576c;fill-opacity:1;fill-rule:nonzero;stroke:none"
               id="path526" /></g><g
             id="g528"
             transform="translate(294.7539,212.6084)"><path
               d="m 0,0 c 22.73,0.6 71.136,5.006 80.274,3.665 2.37,-0.343 2.795,7.359 0.565,7.762 -2.231,0.401 -29.523,3.852 -41.522,5.638 C 17.776,20.272 12.489,18.836 2.03,14.415 -8.43,9.994 -6.254,0.296 0,0"
               style="fill:#5c91ab;fill-opacity:1;fill-rule:nonzero;stroke:none"
               id="path530" /></g><g
             id="g532"
             transform="translate(327.3174,255.6211)"><path
               d="m 0,0 c -11.465,-6.523 -30.837,-15.419 -40.057,-21.864 -7.364,-5.148 -1.734,-17.47 5.597,-14.542 7.331,2.928 41.435,16.041 41.435,16.041 z"
               style="fill:#5c91ab;fill-opacity:1;fill-rule:nonzero;stroke:none"
               id="path534" /></g><g
             id="g536"
             transform="translate(353.3906,222.4238)"><path
               d="m 0,0 c -10.074,-2.414 -53.591,-9.114 -58.637,-9.815 -5.047,-0.702 -10.224,10.13 -2.505,14.929 11.151,6.932 40.999,21.56 40.999,21.56 z"
               style="fill:#759fb8;fill-opacity:1;fill-rule:nonzero;stroke:none"
               id="path538" /></g><g
             id="g540"
             transform="translate(357.3447,257.7881)"><path
               d="m 0,0 c 2.618,-4.676 7.994,-11.821 8.836,-20.848 0.842,-9.027 -5.974,-16.76 -19.917,-14.068 -15.602,3.012 -21.385,10.238 -21.399,17.128 -0.013,5.716 2.538,16.974 2.538,16.974 z"
               style="fill:#759fb8;fill-opacity:1;fill-rule:nonzero;stroke:none"
               id="path542" /></g><g
             id="g544"
             transform="translate(314.2695,260.4971)"><path
               d="m 0,0 c -2.202,2.824 -4.737,8.505 -6.337,11.475 -1.805,3.351 -0.556,8.351 3.358,4.276 C 0.439,12.192 8.414,3.291 7.831,0.208 7.388,-2.136 2.965,-3.803 0,0"
               style="fill:#e6be98;fill-opacity:1;fill-rule:nonzero;stroke:none"
               id="path546" /></g><g
             id="g548"
             transform="translate(331.1562,307.0718)"><path
               d="m 0,0 c 0.231,-2.438 -1.04,-7.078 -2.555,-9.521 -2.014,-3.249 -5.689,-8.592 -6.269,-11.378 -0.581,-2.787 2.206,-8.825 2.902,-11.959 0.696,-3.135 1.873,-11.723 1.873,-17.18 0,-5.457 29.728,-4.85 30.237,0.754 2.172,23.881 8.992,24.785 10.966,31.171 1.974,6.386 3.253,16.588 -1.277,18.925 C 28.678,4.528 17.532,10.682 0,0"
               style="fill:#f18f8c;fill-opacity:1;fill-rule:nonzero;stroke:none"
               id="path550" /></g><g
             id="g552"
             transform="translate(344.1924,293.8491)"><path
               d="M 0,0 C 8.575,-1.178 13.942,5.563 18.455,16.211 12.604,18.865 4.778,21.014 -5.753,16.879 -9.491,9.81 -8.574,1.178 0,0"
               style="fill:#e6be98;fill-opacity:1;fill-rule:nonzero;stroke:none"
               id="path554" /></g><g
             id="g556"
             transform="translate(354.001,306.4751)"><path
               d="M 0,0 C 1.099,0.83 1.998,0.733 2.909,1.71 L 5.258,24.687 -4.384,24.819 -8.17,1.883 C -6.045,-0.44 -2.964,-2.235 0,0"
               style="fill:#e6be98;fill-opacity:1;fill-rule:nonzero;stroke:none"
               id="path558" /></g><g
             id="g560"
             transform="translate(359.2588,331.1626)"><path
               d="m 0,0 -1.611,-15.763 c -2.952,-1.369 -7.213,-2.51 -11.096,-2.678 l 3.065,18.572 z"
               style="fill:#d99772;fill-opacity:1;fill-rule:nonzero;stroke:none"
               id="path562" /></g><g
             id="g564"
             transform="translate(357.7656,322.5117)"><path
               d="m 0,0 c -2.959,-6.38 -19.092,-10.634 -24.498,-7.795 -2.62,1.377 -3.658,4.532 -4.781,8.526 -1.888,6.71 -2.324,15.675 -0.572,21.516 2.893,9.648 14.694,18.006 23.904,14.461 C 3.258,33.161 3.564,7.687 0,0"
               style="fill:#e6be98;fill-opacity:1;fill-rule:nonzero;stroke:none"
               id="path566" /></g><g
             id="g568"
             transform="translate(331.7178,335.9849)"><path
               d="M 0,0 C 0.02,0.011 0.026,0.013 0.048,0.024 L -0.409,1.266 C -3.021,-1.536 -6.076,-3.497 -8.878,-5.599 -3.354,-11.292 2.548,-6.468 1.393,0.3 0.833,0.305 0.297,0.124 0,0 -0.334,-0.178 -0.281,-0.118 0,0"
               style="fill:#e6be98;fill-opacity:1;fill-rule:nonzero;stroke:none"
               id="path570" /></g><g
             id="g572"><g
               id="g574" /><g
               id="g628"><g
                 clip-path="url(#clipPath578)"
                 opacity="0.399994"
                 id="g626"><g
                   id="g624"><g
                     clip-path="url(#clipPath582)"
                     id="g622"><g
                       id="g620"><g
                         id="g612" /><g
                         mask="url(#mask594)"
                         id="g618"><g
                           id="g616"><path
                             d="m 328.969,340.558 c -0.345,-1.247 -1.487,-5.758 2.05,-6.549 3.536,-0.79 3.259,4.901 3.259,4.901 0,0 -3.698,1.257 -5.309,1.648"
                             style="fill:url(#linearGradient610);stroke:none"
                             id="path614" /></g></g></g></g></g></g></g></g><g
             id="g630"
             transform="translate(329.835,340.7422)"><path
               d="M 0,0 C 3.875,-0.422 6.392,-2.706 2.856,-2.092 -0.68,-1.478 -2.023,0.22 0,0"
               style="fill:#0a6464;fill-opacity:1;fill-rule:nonzero;stroke:none"
               id="path632" /></g><g
             id="g634"
             transform="translate(332.2109,334.2573)"><path
               d="M 0,0 C -0.759,2.178 -3.106,1.7 -3.268,-0.052"
               style="fill:none;stroke:#4a2b19;stroke-width:0.626;stroke-linecap:butt;stroke-linejoin:miter;stroke-miterlimit:10;stroke-dasharray:none;stroke-opacity:1"
               id="path636" /></g><g
             id="g638"
             transform="translate(328.126,281.7324)"><path
               d="M 0,0 C 1.731,-0.065 20.737,-2.161 22.668,-2.815 24.599,-3.469 13.615,-4.611 8.559,-4.277 4.394,-4.002 -1.852,0.069 0,0"
               style="fill:#ee7981;fill-opacity:1;fill-rule:nonzero;stroke:none"
               id="path640" /></g><g
             id="g642"
             transform="translate(329.9834,349.3389)"><path
               d="m 0,0 c 6.447,-9.729 15.64,-12.896 17.745,-12.843 2.348,-10.491 3.857,-16.089 10.313,-17.869 4.438,1.51 7.539,6.637 9.675,10.81 1.702,3.32 6.473,15.696 -1.525,26.637 -7.998,10.94 -22.219,8.339 -26.192,6.16 C 6.043,10.715 3.307,8.088 0.088,4.535 -2.821,1.324 -4.778,-1.382 -6.045,-0.46 -2.072,-5.008 0,0 0,0"
               style="fill:#0a6464;fill-opacity:1;fill-rule:nonzero;stroke:none"
               id="path644" /></g><g
             id="g646"
             transform="translate(346.1104,332.3311)"><path
               d="M 0,0 C -0.589,-3.194 1.068,-6.177 3.7,-6.662 6.333,-7.147 8.944,-4.951 9.533,-1.756 10.121,1.438 8.465,4.421 5.832,4.906 3.2,5.391 0.589,3.195 0,0"
               style="fill:#e6be98;fill-opacity:1;fill-rule:nonzero;stroke:none"
               id="path648" /></g><g
             id="g650"
             transform="translate(347.127,340.5586)"><path
               d="m 0,0 c 4.278,-5.395 -4.364,-12.414 -2.709,-20.991 -1.58,3.236 -1.441,5.713 0.496,10.411 C 0.859,-3.129 0,0 0,0"
               style="fill:#0a6464;fill-opacity:1;fill-rule:nonzero;stroke:none"
               id="path652" /></g><g
             id="g654"
             transform="translate(346.4912,340.1138)"><path
               d="m 0,0 c 2.544,-4.021 -3.91,-8.21 -3.402,-14.225 -0.849,2.339 -0.572,4.032 1.105,7.118 C 0.361,-2.213 0,0 0,0"
               style="fill:#0a6464;fill-opacity:1;fill-rule:nonzero;stroke:none"
               id="path656" /></g><g
             id="g658"
             transform="translate(336.127,326.5137)"><path
               d="m 0,0 c 0.157,-0.667 0.147,-1.389 -0.075,-2.067 -0.219,-0.68 -0.677,-1.284 -1.256,-1.709 -1.199,-0.822 -2.769,-0.914 -4.04,-0.411 1.348,-0.148 2.737,-0.005 3.788,0.763 0.538,0.354 0.937,0.884 1.198,1.475 C -0.12,-1.354 -0.02,-0.685 0,0"
               style="fill:#7c3d39;fill-opacity:1;fill-rule:nonzero;stroke:none"
               id="path660" /></g><g
             id="g662"
             transform="translate(362.6289,237.7715)"><path
               d="m 0,0 c -0.074,-0.571 -6.297,-6.121 -6.297,-6.121 l -6.741,-6.595 0.916,-1.377 7.282,4.734 -0.404,-7.869 -1.139,-8.646 1.806,-0.454 2.702,9.819 -0.519,-10.087 0.901,0.023 2.333,9.155 0.807,-7.413 1.273,0.41 0.547,6.875 0.177,-3.993 0.898,0.478 0.066,9.043 -0.213,9.978 0.809,2.991 -3.157,3.414 z"
               style="fill:#e6be98;fill-opacity:1;fill-rule:nonzero;stroke:none"
               id="path664" /></g><g
             id="g666"
             transform="translate(380.292,265.6934)"><path
               d="m 0,0 c -2.486,-6.274 -12.168,-29.885 -13.396,-33.554 -2.654,-0.217 -5.78,2.774 -6.136,3.411 0,0 8.579,28.862 9.48,31.389 0.018,0.049 0.034,0.115 0.052,0.169 C -6.531,7.983 1.3,5.137 0,0"
               style="fill:#e6be98;fill-opacity:1;fill-rule:nonzero;stroke:none"
               id="path668" /></g><g
             id="g670"
             transform="translate(367.7881,307.4829)"><path
               d="m 0,0 c 8.748,-2.746 10.473,-22.223 10.92,-25.224 0.446,-3.001 1.66,-12.069 1.724,-14.304 0.006,-0.226 0.087,-0.677 -0.004,-1.519 -0.576,-5.327 -8.717,-5.602 -9.694,-2.07 -0.933,3.375 -2.708,10.557 -3.585,14.125 C -1.532,-25.352 -5.236,-7.791 0,0"
               style="fill:#e6be98;fill-opacity:1;fill-rule:nonzero;stroke:none"
               id="path672" /></g><g
             id="g674"
             transform="translate(278.3398,253.2202)"><path
               d="m 0,0 c -5.767,-2.382 -11.351,0.309 -14.212,4.431 -2.734,-1.122 -4.846,-2.967 -4.846,-2.967 0,0 5.537,-10.399 20.021,-4.299 C 0.648,-0.807 0,0 0,0"
               style="fill:#007685;fill-opacity:1;fill-rule:nonzero;stroke:none"
               id="path676" /></g><g
             id="g678"
             transform="translate(258.7627,254.3574)"><path
               d="M 0,0 C 0,0 3.888,2.74 5.814,3.591"
               style="fill:none;stroke:#00525d;stroke-width:1.083;stroke-linecap:round;stroke-linejoin:miter;stroke-miterlimit:10;stroke-dasharray:none;stroke-opacity:1"
               id="path680" /></g><g
             id="g682"
             transform="translate(278.3398,253.2202)"><path
               d="m 0,0 c -1.464,-0.604 -2.915,-0.879 -4.312,-0.89 -0.515,-1.399 -1.406,-2.776 -2.619,-3.845 2.268,0.085 4.884,0.632 7.894,1.9 C 0.648,-0.807 0,0 0,0"
               style="fill:#00626e;fill-opacity:1;fill-rule:nonzero;stroke:none"
               id="path684" /></g><g
             id="g686"
             transform="translate(272.2842,269.5742)"><path
               d="m 0,0 c 1.814,-6.29 4.661,-15.61 7.451,-21.531 0.653,-1.385 1.714,-3.451 5.157,-2.835 4.026,0.72 17.591,6.714 20.748,9.312 2.208,1.816 2.05,2.688 0.455,5.98 -2.531,5.223 -7.653,15.178 -11.275,19.713 -1.434,1.795 -2.28,1.99 -4.403,1.275 C 15.1,10.892 3.7,6.129 1.899,4.989 0.1,3.849 -0.714,2.933 0,0"
               style="fill:#007685;fill-opacity:1;fill-rule:nonzero;stroke:none"
               id="path688" /></g><g
             id="g690"
             transform="translate(304.5176,258.3647)"><path
               d="m 0,0 -1.55,2.855 7.527,4.086 -7.789,14.573 -8.651,-3.792 -1.304,2.975 8.728,3.826 c 0.015,0.006 0.028,0.012 0.043,0.018 1.49,0.628 3.244,0.009 4.009,-1.422 L 8.884,8.392 C 9.698,6.869 9.126,4.958 7.607,4.132 Z"
               style="fill:#007685;fill-opacity:1;fill-rule:nonzero;stroke:none"
               id="path692" /></g><g
             id="g694"
             transform="translate(306.0947,260.5005)"><path
               d="m 0,0 c -2.53,5.223 -7.652,15.178 -11.275,19.712 -1.208,1.514 -2.007,1.881 -3.497,1.533 5.8,-8.054 11.507,-30.354 -11.659,-33.548 0.025,-0.05 0.048,-0.105 0.072,-0.155 0.652,-1.384 1.713,-3.451 5.158,-2.834 4.024,0.719 17.59,6.714 20.747,9.312 C 1.754,-4.164 1.596,-3.292 0,0"
               style="fill:#00626e;fill-opacity:1;fill-rule:nonzero;stroke:none"
               id="path696" /></g><g
             id="g698"
             transform="translate(304.9824,275.6582)"><path
               d="M 0,0 C 0.824,-0.294 2.82,0.618 3.144,0.958 2.715,1.742 2.46,2.248 2.46,2.248 c 0,0 2.371,0.82 4.086,-2.482 C 8.261,-3.537 9.085,-5.698 6.398,-7.211 3.711,-8.725 1.14,-8.438 -0.053,-6.375 -1.245,-4.31 -2.776,0.121 -0.648,1.222 -0.437,0.77 0,0 0,0"
               style="fill:#e6be98;fill-opacity:1;fill-rule:nonzero;stroke:none"
               id="path700" /></g><g
             id="g702"
             transform="translate(188.8647,433.6211)"><path
               d="M 0,0 C -26.068,-20.727 -17.021,-33.655 9.284,-15.86 35.588,1.934 47.193,37.522 0,0"
               style="fill:#deeff1;fill-opacity:1;fill-rule:nonzero;stroke:none"
               id="path704" /></g><g
             id="g706"
             transform="translate(164.4941,404.9951)"><path
               d="m 0,0 c 0,-4.059 -3.291,-7.35 -7.35,-7.35 -4.059,0 -7.349,3.291 -7.349,7.35 0,4.06 3.29,7.35 7.349,7.35 C -3.291,7.35 0,4.06 0,0"
               style="fill:#deeff1;fill-opacity:1;fill-rule:nonzero;stroke:none"
               id="path708" /></g><g
             id="g710"
             transform="translate(396.793,418.9331)"><path
               d="m 0,0 c 4.989,-14.776 4.11,-28.417 -1.962,-30.467 -6.073,-2.051 -15.04,8.266 -20.028,23.043 -4.989,14.776 -4.111,28.417 1.963,30.467 C -13.955,25.093 -4.988,14.776 0,0"
               style="fill:#deeff1;fill-opacity:1;fill-rule:nonzero;stroke:none"
               id="path712" /></g><g
             id="g714"
             transform="translate(25.0337,308.9062)"><path
               d="m 0,0 h 101.05 c 0,0 -2.206,19.416 -26.917,10.149 C 59.13,43.244 30.889,36.625 20.739,16.768 6.178,21.622 0,0 0,0"
               style="fill:#ffffff;fill-opacity:1;fill-rule:nonzero;stroke:none"
               id="path716" /></g><g
             id="g718"
             transform="translate(391.71,276.375)"><path
               d="m 0,0 c -1.152,8.067 7.491,11.237 12.966,5.186 1.44,4.322 4.61,4.034 5.186,0.865 C 25.355,16.423 44.084,18.44 46.677,2.881 51.287,7.203 55.896,0 55.896,0 Z"
               style="fill:#ffffff;fill-opacity:1;fill-rule:nonzero;stroke:none"
               id="path720" /></g><g
             id="g722"
             transform="translate(374.9502,451.0562)"><path
               d="m 0,0 c 0,-3.063 -2.483,-5.546 -5.547,-5.546 -3.062,0 -5.546,2.483 -5.546,5.546 0,3.063 2.484,5.546 5.546,5.546 C -2.483,5.546 0,3.063 0,0"
               style="fill:#deeff1;fill-opacity:1;fill-rule:nonzero;stroke:none"
               id="path724" /></g><g
             id="g726"
             transform="translate(415.1846,254.2905)"><path
               d="M 0,0 C -12.153,-9.744 -20.935,-27.973 -8.302,-21.295 4.332,-14.618 20.936,16.784 0,0"
               style="fill:#deeff1;fill-opacity:1;fill-rule:nonzero;stroke:none"
               id="path728" /></g><g
             id="g730"
             transform="translate(56.873,260.7964)"><path
               d="M 0,0 C 20.021,-31.626 45.263,-24.083 30.176,-1.451 15.088,21.181 -23.273,36.766 0,0"
               style="fill:#deeff1;fill-opacity:1;fill-rule:nonzero;stroke:none"
               id="path732" /></g><g
             id="g734"
             transform="translate(100.9756,233.5225)"><path
               d="m 0,0 c 0,-1.923 -1.559,-3.481 -3.481,-3.481 -1.923,0 -3.482,1.558 -3.482,3.481 0,1.923 1.559,3.481 3.482,3.481 C -1.559,3.481 0,1.923 0,0"
               style="fill:#deeff1;fill-opacity:1;fill-rule:nonzero;stroke:none"
               id="path736" /></g></g></g></g></g></svg>
